<svg width="500" height="702" viewBox="0 0 500 702" fill="none" xmlns="http://www.w3.org/2000/svg">
<g clipPath="url(#clip0_446_4562)">
<path d="M508 556.3V682.177L507.237 682.582L500.281 682.938C500.107 682.831 499.906 682.778 499.703 682.785C499.5 682.791 499.303 682.857 499.136 682.974C495.612 683.124 492.084 683.254 488.56 683.432C485.165 683.598 481.769 683.837 478.374 684.002C474.528 684.197 470.679 684.302 466.838 684.537C459.85 684.97 452.854 684.941 445.858 685.01C439.699 685.063 433.539 684.982 427.375 684.954C426.973 684.954 426.607 684.893 426.226 684.865L421.199 684.941L418.9 684.897L409.63 684.541L408.871 684.516L402.321 684.16L401.562 684.128C398.749 683.885 395.936 683.675 393.124 683.383C388.532 682.908 383.942 682.404 379.353 681.869C374.897 681.332 370.476 680.529 366.113 679.465C363.167 678.822 360.283 677.913 357.498 676.749C355.971 676.085 354.494 675.31 353.078 674.43C352.111 673.797 351.237 673.03 350.482 672.151C348.935 670.411 348.638 668.351 349.41 666.177C349.72 665.33 350.136 664.527 350.647 663.785C351.603 662.381 353.46 660.952 354.979 660.142C358.784 658.119 362.891 657.155 367.106 656.581C368.946 656.33 370.806 656.249 372.659 656.075C373.294 656.014 373.925 655.905 374.559 655.816H381.889C382.257 655.916 382.634 655.985 383.014 656.022C389.113 656.2 395.137 657.083 401.156 657.977L404.849 658.714C403.462 658.054 402.406 657.467 401.192 657.281C399.621 656.556 398.046 655.84 396.483 655.103C395.964 654.86 395.478 654.561 394.976 654.294C394.55 654.176 394.133 654.03 393.726 653.857C389.833 651.89 385.947 649.902 382.074 647.931C380.502 647.122 378.919 646.385 377.34 645.612L376.854 645.369C376.155 644.56 375.102 644.345 374.242 643.803C373.716 643.475 373.089 643.297 372.607 642.726L376.127 640.273C376.303 640.238 376.472 640.176 376.629 640.087C376.778 639.958 377.115 639.921 376.942 639.488L376.102 639.577L371.104 639.856L369.577 639.905C368.504 639.856 367.363 640.018 366.362 639.694C365.454 639.399 364.719 638.573 363.903 637.99C363.209 637.447 362.431 637.02 361.601 636.728C361.597 636.671 361.577 636.618 361.543 636.572C361.51 636.527 361.464 636.493 361.412 636.473C361.275 636.262 361.187 635.991 361.01 635.861C359.75 634.915 358.629 633.795 357.679 632.534C357.173 631.891 356.767 631.175 356.474 630.409C355.537 627.949 356.112 625.832 357.892 624.027C358.841 623.001 360.026 622.228 361.344 621.776C364.057 620.881 366.904 620.47 369.758 620.562C370.81 621.614 371.196 623.193 372.169 624.371C372.191 624.645 372.283 624.909 372.437 625.136C372.59 625.364 372.8 625.548 373.045 625.67C372.988 625.144 372.944 624.727 372.9 624.306C372.948 623.164 372.43 622.043 372.775 620.764C373.081 620.764 373.382 620.704 373.683 620.708C376.697 620.752 379.711 620.878 382.724 620.837C390.103 620.687 397.449 621.856 404.423 624.29C404.825 624.435 405.283 624.537 405.717 624.658C406.118 625.115 406.673 625.136 407.211 625.212C408.574 625.971 410.047 626.509 411.575 626.807C410.346 625.998 409.164 625.119 407.718 624.739L405.451 623.448C403.474 622.14 401.494 620.845 399.533 619.514C399.1 619.235 398.731 618.868 398.448 618.437C397.99 617.672 397.644 616.818 397.218 615.948C397.509 615.685 397.821 615.447 398.15 615.235C398.886 614.831 399.645 614.503 400.397 614.139C402.578 613.37 402.578 613.37 403.378 612.475L400.401 612.637C399.271 612.605 398.146 612.556 397.021 612.548C396.463 612.56 395.911 612.432 395.414 612.176C395.219 612.077 395.054 611.926 394.94 611.738C394.826 611.551 394.766 611.335 394.767 611.115C393.248 609.56 391.841 607.897 390.556 606.141C389.479 604.728 388.374 603.34 387.422 601.834C385.771 599.318 384.338 596.664 383.138 593.901C382.469 592.292 381.993 590.609 381.72 588.886C381.529 587.669 381.613 586.424 381.965 585.243C382.159 584.42 382.582 583.67 383.184 583.08C383.786 582.49 384.542 582.085 385.364 581.912C386.683 581.615 388.045 581.564 389.383 581.763C392.117 582.118 394.803 582.78 397.391 583.738C402.317 585.567 407.207 587.498 412.118 589.372C412.455 589.474 412.765 589.651 413.025 589.89C413.285 590.129 413.489 590.423 413.62 590.752C413.986 591.711 414.376 592.658 414.754 593.614L416.558 597.163L417.016 598.697C417.016 598.819 417.016 598.985 417.08 599.058C417.144 599.13 417.41 599.337 417.482 599.292C417.791 599.143 417.719 598.916 417.482 598.722L417.253 597.103C417.096 595.314 416.939 593.529 416.771 591.578C417.166 591.618 417.558 591.694 417.94 591.804C420.254 592.756 422.533 593.796 424.863 594.686C428.882 596.224 432.9 597.799 437.159 598.479C437.913 598.647 438.697 598.626 439.441 598.418C440.277 598.139 440.615 597.576 440.281 596.799C439.979 596.161 439.634 595.544 439.249 594.953C438.841 594.377 438.468 593.777 438.131 593.156C436.291 589.109 434.483 585.041 432.671 580.981C432.605 580.802 432.551 580.618 432.51 580.431C431.397 577.82 430.244 575.226 429.183 572.595C425.906 564.656 423.076 556.537 420.705 548.278C419.647 544.616 418.841 540.884 418.294 537.111C417.96 534.672 417.9 532.204 418.113 529.752C418.253 528.166 418.888 526.761 419.567 525.373C419.819 525.008 420.165 524.72 420.568 524.539C422.215 523.6 423.995 523.584 425.792 523.863C429.856 524.533 433.768 525.934 437.34 528C441.414 530.34 445.228 533.114 448.715 536.273C449.011 536.518 449.248 536.827 449.409 537.178C449.57 537.528 449.65 537.911 449.644 538.296C449.672 539.511 449.744 540.753 449.796 541.98V543.696C450.033 543.577 450.236 543.399 450.387 543.18C450.537 542.961 450.63 542.706 450.656 542.441L452.264 539.903C452.529 540.073 452.783 540.261 453.023 540.466C454.261 541.68 455.493 542.904 456.72 544.137C456.908 544.311 457.07 544.513 457.198 544.736C458.138 546.61 459.91 547.792 461.071 549.484C461.397 549.867 461.764 550.213 462.164 550.516C462.143 550.634 462.148 550.755 462.178 550.871C462.209 550.986 462.265 551.094 462.342 551.185C462.419 551.276 462.515 551.349 462.623 551.399C462.731 551.448 462.849 551.473 462.968 551.471C463.056 552.143 463.567 552.487 464.029 552.863C464.051 552.989 464.051 553.118 464.029 553.244L464.885 553.908C465.56 555.013 466.187 556.158 467.364 556.83C467.547 557.507 467.883 558.133 468.344 558.659C468.602 559.299 468.923 559.845 469.952 559.813L469.345 558.688L468.224 556.704C468.039 556.162 467.886 555.608 467.661 555.085C466.689 552.762 465.692 550.451 464.716 548.128C464.583 547.768 464.47 547.4 464.378 547.027C464.257 546.881 464.151 546.723 464.065 546.553C461.284 539.6 458.805 532.541 457.258 525.191C456.728 522.669 456.414 520.103 456.053 517.549C456.012 516.951 456.012 516.35 456.053 515.752C457.66 515.218 459.356 515.347 460.955 514.942C461.204 515.048 461.477 515.048 461.497 514.736C461.497 514.61 461.184 514.469 461.015 514.331C459.459 513.088 457.836 511.932 456.153 510.871C456.088 510.712 456.058 510.54 456.065 510.369C456.276 508.049 456.853 505.779 457.772 503.642C458.841 501.262 460.694 499.594 462.554 497.902C465.632 496.405 468.766 495.502 472.198 496.729C473.955 497.358 475.609 498.246 477.108 499.364C479.575 501.236 481.791 503.423 483.702 505.868C484.907 507.378 486.028 508.956 487.19 510.506C487.225 510.815 487.212 511.128 487.154 511.433C486.704 512.647 486.82 513.886 486.804 515.125C486.748 515.153 486.659 515.169 486.639 515.218C485.928 516.861 485.783 518.609 485.699 520.419C486.575 519.696 487.327 518.833 487.925 517.865C488.034 517.679 487.925 517.371 487.925 517.116C488.48 517.116 488.825 516.76 489.227 516.44C490.195 515.667 490.561 515.813 491.047 517.104C491.307 517.282 491.539 517.499 491.734 517.747C492.671 519.439 493.571 521.151 494.487 522.851C495.29 524.32 496.094 525.782 496.898 527.251C497.018 527.47 497.127 527.696 497.223 527.927C497.464 528.522 497.625 529.141 497.926 529.716C499.859 533.581 501.611 537.523 503.214 541.539C503.833 543.093 504.516 544.623 505.123 546.185C505.702 547.679 506.284 549.18 506.73 550.718C507.132 552.013 506.971 553.301 505.959 554.325C505.543 554.81 505.049 555.221 504.496 555.539C505.051 555.28 506.18 556.753 506.811 556.668C507.228 556.627 507.632 556.502 508 556.3Z" fill="url(#paint0_linear_446_4562)"/>
<path d="M505.991 516.436C506.651 516.589 507.323 516.677 508 516.699V556.3C507.627 556.503 507.217 556.627 506.795 556.664C506.164 556.737 505.035 555.276 504.48 555.535C505.033 555.217 505.527 554.806 505.943 554.321C506.955 553.296 507.096 552.009 506.714 550.714C506.26 549.176 505.678 547.674 505.107 546.181C504.5 544.619 503.817 543.089 503.198 541.534C501.591 537.519 499.843 533.577 497.91 529.712C497.625 529.141 497.448 528.497 497.207 527.923C497.111 527.692 497.002 527.466 496.882 527.247C496.078 525.778 495.274 524.316 494.471 522.847C493.555 521.147 492.654 519.435 491.718 517.743C491.523 517.495 491.291 517.278 491.031 517.1C490.545 515.809 490.179 515.663 489.211 516.436C488.809 516.756 488.463 517.124 487.909 517.112L486.788 515.12C486.788 513.882 486.687 512.635 487.137 511.429C487.196 511.124 487.209 510.811 487.174 510.502C488.577 510.281 490.013 510.42 491.349 510.907C493.462 511.66 495.564 512.446 497.653 513.267C497.992 513.431 498.282 513.682 498.493 513.995C498.738 514.372 498.955 514.767 499.14 515.177C499.136 515.448 499.206 515.715 499.342 515.949C499.478 516.183 499.675 516.375 499.911 516.505C499.823 515.954 499.759 515.554 499.698 515.149C499.751 514.914 499.807 514.679 499.891 514.307C500.293 514.42 500.558 514.489 500.836 514.59C502.559 515.185 504.259 515.865 505.991 516.436Z" fill="#EE6D10"/>
<path d="M-125.788 640.2C-127.365 638.421 -127.312 635.846 -127.183 633.454C-127.078 631.582 -127.256 629.693 -127.123 627.821C-126.941 625.242 -126.058 622.894 -124.115 621.107C-123.175 620.242 -122.081 619.566 -120.889 619.113C-118.843 618.338 -116.668 617.963 -114.483 618.009C-108.89 618.061 -103.298 618.009 -97.7014 618.009H-97.2982C-96.4152 617.976 -95.4999 618.281 -94.6693 617.737C-92.5082 618.179 -90.3228 618.078 -88.1456 618.078H-19.1985V621.144C-24.678 621.144 -30.1574 621.067 -35.6369 621.189C-40.8785 621.306 -45.1444 625.019 -45.7572 630.595C-45.9152 632.051 -45.7681 633.524 -45.3253 634.92C-44.8826 636.315 -44.1542 637.601 -43.187 638.695C-42.2199 639.789 -41.0357 640.667 -39.7108 641.271C-38.386 641.875 -36.95 642.192 -35.4958 642.202C-30.4034 642.202 -25.311 642.202 -20.2186 642.202C-19.8355 642.202 -19.4485 642.158 -19.0654 642.133H-18.9203H-18.7751H-5.57843C-4.93734 642.154 -4.29624 642.194 -3.65516 642.194H45.5351C46.1762 642.194 46.8173 642.154 47.4584 642.133L48.1681 642.198L50.4421 645.24C49.7324 645.24 49.0228 645.24 48.3132 645.24C-6.41438 645.24 -61.142 645.24 -115.87 645.24C-116.575 645.24 -117.285 645.187 -117.99 645.159C-119.297 645.537 -120.506 647.567 -121.716 644.144H-121.696C-122.023 644.063 -122.331 643.915 -122.598 643.709C-122.866 643.502 -123.089 643.243 -123.252 642.946H-123.232L-123.716 642.539C-123.95 642.369 -124.256 642.263 -124.421 642.02C-124.835 641.382 -125.292 640.774 -125.788 640.2Z" fill="#86B0F1"/>
<path d="M-12.5416 554.017C-11.836 554.05 -11.1304 554.103 -10.4248 554.107C-2.19957 554.107 6.02971 554.164 14.255 554.078C17.3919 554.046 20.3998 554.379 23.2705 555.679C23.8431 556.133 24.4075 556.596 25.1696 556.682C25.437 557.037 25.7279 557.373 26.0405 557.689C29.295 560.522 31.3208 564.524 31.6853 568.841C32.1933 574.121 30.6329 578.711 26.9961 582.524C25.1531 584.547 22.7306 585.941 20.0651 586.513C18.6862 586.919 17.2709 586.858 15.8597 586.858H-90.0889C-91.5001 586.858 -92.9113 586.813 -94.2943 587.187C-94.9072 586.663 -95.645 586.886 -96.3103 586.886C-103.493 586.865 -110.675 586.865 -117.857 586.886C-118.494 586.886 -119.135 586.955 -119.772 586.988C-120.176 586.842 -120.494 586.582 -120.329 586.135C-120.272 585.993 -120.187 585.864 -120.079 585.756C-119.971 585.648 -119.842 585.564 -119.7 585.509C-119.199 585.409 -118.69 585.349 -118.18 585.331C-117.535 585.355 -116.894 585.4 -116.249 585.4C-89.0998 585.4 -61.951 585.4 -34.8023 585.4C-33.516 585.446 -32.2286 585.348 -30.9638 585.107C-26.3714 584.039 -23.1982 581.176 -21.287 576.895C-18.4646 570.58 -20.2871 563.249 -25.0408 559.094C-27.4275 556.963 -30.4888 555.757 -33.6773 555.691C-34.387 555.691 -35.0966 555.691 -35.8062 555.691H-115.527C-116.297 555.691 -117.067 555.743 -117.841 555.776C-118.333 555.739 -118.829 555.715 -119.321 555.67C-120.103 555.597 -120.18 555.475 -120.168 554.415L-119.789 554.143C-118.95 554.143 -118.111 554.115 -117.277 554.115C-83.8434 554.115 -50.4114 554.115 -16.9809 554.115C-15.5011 554.099 -14.0214 554.046 -12.5416 554.017Z" fill="#4970B6"/>
<path d="M-94.2984 587.183C-92.9154 586.809 -91.5042 586.854 -90.093 586.854H15.8597C17.2709 586.854 18.6821 586.894 20.065 586.508C20.6658 587.073 21.4077 586.829 22.081 586.833C28.2339 586.854 34.3907 586.833 40.5476 586.833C41.0596 586.833 41.5757 586.813 42.0838 586.858C43.0676 586.943 43.4667 587.593 43.0555 588.458C42.749 589.092 42.3539 589.676 41.9991 590.298C41.2894 590.298 40.5798 590.249 39.8742 590.249H-45.4427C-46.0879 590.249 -46.733 590.249 -47.3781 590.269C-51.9342 590.359 -56.7968 593.657 -58.2443 599.026C-58.5953 600.479 -58.7311 601.976 -58.6475 603.469C-58.4661 610.231 -52.9059 614.942 -47.2934 615.011C-46.6483 615.011 -46.0032 615.011 -45.3581 615.011L-19.2428 615.04C-19.2428 616.043 -19.2428 617.05 -19.2227 618.053H-88.1697C-90.347 618.053 -92.5324 618.155 -94.6935 617.712L-96.9474 617.237L-97.7538 616.945L-98.1247 616.847L-98.8948 616.518C-98.9333 616.477 -98.9815 616.445 -99.0351 616.428C-99.0887 616.41 -99.1458 616.406 -99.2013 616.417L-99.669 616.165C-99.7106 616.118 -99.7629 616.083 -99.8212 616.062C-99.8796 616.041 -99.9422 616.034 -100.004 616.043L-100.443 615.783C-100.481 615.735 -100.531 615.697 -100.587 615.674C-100.644 615.65 -100.705 615.642 -100.766 615.649L-101.217 615.361L-102.1 614.898L-102.383 614.621L-103.661 613.728L-103.931 613.452C-104.423 613.046 -105.019 612.741 -105.382 612.233C-106.244 611.136 -107.008 609.965 -107.664 608.732C-109.644 604.704 -109.733 600.695 -107.862 596.601C-106.929 594.559 -105.568 592.744 -103.874 591.281C-103.521 591.018 -103.147 590.783 -102.757 590.578C-102.673 590.497 -101.741 589.888 -101.741 589.888L-101.625 589.827L-101.318 589.55C-100.729 589.006 -99.9553 588.888 -99.2416 588.637L-98.6328 588.356L-98.0522 588.06L-97.786 587.975L-96.8869 587.666L-96.6087 587.589L-96.1612 587.544L-94.2984 587.183Z" fill="#38558A"/>
<path d="M-137.558 684.932H-132.538L-131.042 684.961C-129.369 684.997 -127.691 685.062 -126.018 685.062C-64.7909 685.062 -3.56239 685.062 57.6674 685.062C58.373 685.062 59.0827 685.062 59.7923 685.03C60.5749 685.575 61.1326 686.39 61.3607 687.32C60.6551 687.341 59.9455 687.381 59.2399 687.381C-31.9396 687.381 -123.118 687.381 -214.295 687.381C-215.173 687.381 -216.101 687.657 -216.931 687.105C-216.933 687.086 -216.94 687.068 -216.95 687.052C-216.961 687.036 -216.975 687.023 -216.992 687.013C-217.008 687.004 -217.027 686.999 -217.046 686.999C-217.065 686.999 -217.084 687.003 -217.101 687.012C-217.318 686.865 -217.469 686.638 -217.52 686.38C-217.571 686.122 -217.519 685.854 -217.375 685.635C-217.263 685.438 -217.098 685.276 -216.899 685.169C-216.7 685.061 -216.475 685.011 -216.25 685.026H-214.702H-193.038C-192.203 685.026 -191.365 685.001 -190.53 684.989C-190.215 684.989 -189.893 685.034 -189.574 685.034H-171.221C-170.838 685.034 -170.451 684.977 -170.068 684.944C-169.491 684.973 -168.918 685.03 -168.342 685.03C-158.665 685.03 -148.979 685.03 -139.283 685.03C-138.707 685.03 -138.134 684.973 -137.558 684.932Z" fill="#1C4655"/>
<path d="M61.3608 687.328C61.1335 686.398 60.5754 685.585 59.7923 685.042C58.4069 682.944 56.8433 680.971 55.1193 679.145C52.821 676.218 50.5241 673.29 48.2286 670.36C47.9197 670.033 47.502 669.832 47.0553 669.795C47.2811 669.426 47.3214 669.068 46.9303 668.788C45.8941 668.057 44.9707 667.164 43.7853 666.648C42.8015 666.221 41.8379 665.738 40.8661 665.283C41.0548 665.243 41.2462 665.217 41.4387 665.206C45.2933 665.206 49.1479 665.169 53.0025 665.239C54.0278 665.282 55.0406 665.482 56.0063 665.831C59.2432 666.966 62.1062 668.978 64.2799 671.647C64.8968 672.391 65.4895 673.17 66.0903 673.918C67.566 675.705 69.0444 677.488 70.5255 679.267C71.3319 680.331 72.0778 681.419 72.9124 682.447C73.6624 683.377 74.493 684.242 75.2913 685.135C75.7033 686.059 76.3765 686.84 77.2267 687.381C77.1915 687.54 77.2101 687.707 77.2795 687.854C77.3489 688.001 77.4651 688.12 77.6097 688.193C78.783 689.717 79.9483 691.248 81.1417 692.758C83.4158 695.642 85.7006 698.522 87.9961 701.397C88.0243 701.434 87.9961 701.511 87.9961 701.568C87.9074 701.649 87.8268 701.799 87.7421 701.799C82.9037 701.799 78.0653 701.799 73.2269 701.799C72.2955 700.881 71.6544 699.768 70.8319 698.802C70.0094 697.835 69.2554 696.84 68.4692 695.857C67.5458 694.712 66.6225 693.563 65.7516 692.377C65.1509 691.564 64.2114 691.008 63.913 689.964C63.0099 689.489 62.7276 688.486 62.0865 687.787L61.7357 687.503L61.3608 687.328Z" fill="#375985"/>
<path d="M77.2387 687.369C76.3885 686.828 75.7154 686.047 75.3033 685.123C76.0735 685.103 76.8436 685.062 77.6137 685.062C90.5537 685.062 103.491 685.062 116.426 685.062C117.192 685.062 117.962 684.989 118.732 684.953L125.227 684.989H126.034L126.881 684.969C127.844 684.989 128.812 685.022 129.78 685.022H188.006C188.651 685.022 189.296 685.022 189.937 685.074C190.191 685.122 190.422 685.252 190.596 685.444C190.77 685.636 190.877 685.88 190.901 686.138C190.887 686.398 190.798 686.648 190.645 686.856C190.492 687.065 190.28 687.224 190.038 687.312C189.786 687.369 189.529 687.395 189.272 687.389C188.756 687.389 188.239 687.389 187.723 687.389H142.847C142.138 687.389 141.432 687.442 140.726 687.471C140.15 687.442 139.573 687.389 138.997 687.389H79.7385C79.162 687.389 78.5854 687.442 78.0088 687.471L77.2387 687.369Z" fill="#1C4655"/>
<path d="M77.2388 687.369L78.0089 687.466Z" fill="#F9FBFE"/>
<path d="M114.502 651.166C114.135 652.059 113.793 652.961 113.402 653.846C112.423 656.171 111.736 658.609 111.357 661.104C111.331 661.426 111.331 661.749 111.357 662.071C111.357 662.237 111.321 662.404 111.301 662.57C111.301 662.928 111.301 663.285 111.301 663.642C111.301 664 111.192 664.28 111.18 664.601C110.999 668.884 111.85 673.148 113.66 677.029C113.978 677.723 114.196 678.462 114.466 679.181H73.0293C72.1947 679.181 71.3601 679.234 70.5295 679.263C69.0457 677.481 67.5673 675.698 66.0943 673.914C65.4774 673.166 64.8847 672.387 64.2839 671.643C62.1071 668.98 59.2427 666.973 56.0063 665.844C55.0406 665.494 54.0277 665.294 53.0024 665.251C49.1478 665.182 45.2933 665.218 41.4387 665.218C41.2462 665.23 41.0548 665.255 40.8661 665.295H38.5115L37.7333 665.535C35.8584 666.181 34.9431 667.484 35.0359 669.491C35.0359 669.775 35.1891 669.852 35.4391 669.795H47.0552C47.502 669.832 47.9197 670.033 48.2285 670.36C50.516 673.306 52.8129 676.234 55.1192 679.145C51.188 679.145 47.2568 679.181 43.3256 679.181C23.3431 679.181 3.3592 679.181 -16.626 679.181C-18.2364 679.209 -19.8425 679.005 -21.3959 678.576C-24.7696 677.574 -27.6411 675.322 -29.4322 672.273C-31.2233 669.224 -31.8008 665.605 -31.0485 662.144C-30.6464 660.161 -29.8102 658.293 -28.6007 656.677C-27.3912 655.061 -25.8389 653.738 -24.057 652.803C-21.82 651.626 -19.3219 651.045 -16.7994 651.113C26.4558 651.137 69.7096 651.144 112.962 651.133L114.502 651.166Z" fill="#F9DFB1"/>
<path d="M118.526 645.468C118.454 645.748 118.466 645.975 118.361 646.089C117.097 647.474 115.983 648.99 115.039 650.613C114.88 650.816 114.7 651.001 114.502 651.166C114.135 652.059 113.793 652.961 113.402 653.846C112.423 656.17 111.737 658.609 111.357 661.104C111.331 661.426 111.331 661.749 111.357 662.071L112.253 662.127C112.849 661.904 113.462 661.721 114.039 661.453C119.256 658.838 124.467 656.21 129.671 653.57C129.886 653.439 130.091 653.291 130.284 653.127C131.038 652.778 131.816 652.465 132.542 652.063C133.267 651.661 134.211 651.466 134.799 650.634L131.493 648.428C131.443 648.395 131.407 648.345 131.392 648.286C131.394 648.19 131.407 648.095 131.433 648.002C131.792 648.002 132.167 648.002 132.542 648.002C134.474 648.089 136.404 648.181 138.331 648.278C138.97 648.381 139.624 648.275 140.198 647.978C142.565 646.511 144.863 644.96 146.791 642.917C147.606 642.082 148.262 641.103 148.726 640.029C149.057 639.284 149.184 638.464 149.094 637.652C149.004 636.841 148.7 636.069 148.214 635.416C147.386 634.245 146.237 633.343 144.908 632.82C142.419 631.811 139.729 631.413 137.057 631.659C136.465 632.727 135.884 633.803 135.271 634.859C135.082 635.109 134.867 635.338 134.63 635.542C134.332 634.177 135.033 632.987 134.771 631.838C134.607 631.766 134.435 631.714 134.259 631.683C129.171 631.817 124.078 631.858 118.998 632.142C116.229 632.29 113.496 632.837 110.882 633.767C108.635 634.292 106.434 634.996 104.297 635.871C103.83 636.129 103.292 636.224 102.765 636.143C104.092 635.363 103.285 635.769 104.378 635.18C106.245 634.035 108.14 632.938 109.962 631.724C110.852 631.085 111.682 630.366 112.442 629.575C113.056 628.994 113.46 628.222 113.587 627.382C113.043 627.106 112.595 626.862 112.132 626.651C111.132 626.204 110.116 625.782 109.124 625.327C108.87 625.209 108.487 625.136 108.624 624.588H114.777C118.954 619.97 122.724 615.145 125.344 609.5C125.861 608.385 126.284 607.229 126.61 606.044C127.014 604.541 127.264 603.01 126.852 601.438C126.328 599.407 125.159 598.278 123.07 598.152C121.787 598.064 120.497 598.127 119.228 598.339C117.513 598.672 115.819 599.107 114.156 599.643C109.652 601.016 105.35 602.929 100.967 604.63C100.58 604.771 100.228 604.996 99.9361 605.289C99.6443 605.581 99.4195 605.935 99.2776 606.324C98.5236 608.111 97.7293 609.886 96.9189 611.653C96.7737 611.965 96.7536 612.42 96.2496 612.522C96.1246 610.584 96.8826 608.688 96.5641 606.763C95.794 606.58 95.2577 607.023 94.6811 607.262C90.5161 609 86.3631 610.767 82.0005 611.941C80.8817 612.237 79.743 612.45 78.5935 612.579C77.8516 612.668 76.9444 612.802 76.5291 611.941C76.1743 611.218 76.6057 610.515 77.0613 609.979C78.0451 608.822 78.6096 607.445 79.2225 606.092C80.346 603.615 81.4575 601.132 82.5569 598.644C82.7867 598.116 82.9601 597.551 83.1295 597.019C83.3615 596.638 83.5741 596.245 83.7665 595.842C86.3793 589.632 88.8549 583.369 90.9999 576.976C92.7498 571.753 94.3303 566.478 95.2214 561.023C95.59 559.046 95.7642 557.036 95.7415 555.025C95.7397 553.594 95.466 552.177 94.9351 550.849C94.1892 549.152 92.9191 548.201 91.0281 548.189C90.6249 548.189 90.254 548.189 89.8669 548.218C87.4247 548.421 85.0318 549.025 82.7827 550.005C78.6862 551.682 75.0453 554.115 71.6262 556.909C70.5295 557.803 69.4771 558.753 68.4409 559.646C68.3925 561.466 68.3442 563.147 68.2958 564.833C68.297 564.863 68.2922 564.892 68.2818 564.92C68.2714 564.948 68.2556 564.974 68.2353 564.995C68.1909 565.032 68.1143 565.032 67.9692 565.068L66.1145 562.071C65.683 562.441 65.3081 562.705 65.0218 563.009C61.8008 566.281 58.7524 569.72 55.8893 573.313C55.7361 573.523 55.6012 573.746 55.4861 573.979L52.8129 577.086C52.4845 577.983 51.9284 578.777 51.2001 579.389C51.1235 579.202 51.0106 579.064 51.0429 578.983C51.4461 578.073 51.9057 577.175 52.3371 576.27C53.0952 574.499 53.8518 572.727 54.6072 570.953C55.2402 569.467 55.9095 567.997 56.4982 566.486C58.9819 560.142 61.147 553.696 62.3163 546.959C62.6348 545.119 63.038 543.271 62.8647 541.342C62.1389 540.915 61.3527 540.936 60.5987 540.867C59.8447 540.797 59.0867 540.797 58.2359 540.31C59.7641 539.027 61.4374 538.166 62.901 536.834C62.5986 533.434 61.6914 530.25 59.2198 527.712C55.9256 524.312 51.4945 523.374 47.2085 525.64C46.1266 526.216 45.096 526.885 44.128 527.639C40.8298 530.209 38.3179 533.491 35.9431 536.919C36.435 539.628 36.9188 542.292 37.4631 545.302C37.1284 545.043 36.8093 544.765 36.5075 544.469C35.7455 543.592 35.0117 542.682 34.2456 541.809C33.9467 541.521 33.6259 541.258 33.286 541.021C31.8304 543.616 30.2418 545.976 29.1935 548.636C28.9667 548.939 28.7592 549.257 28.5726 549.586C27.4235 551.95 26.2945 554.322 25.1575 556.69C25.4249 557.045 25.7158 557.381 26.0284 557.697C29.2829 560.53 31.3087 564.532 31.6732 568.85C32.1812 574.129 30.6208 578.719 26.984 582.532C25.1409 584.555 22.7185 585.949 20.053 586.521C20.6537 587.085 21.3956 586.841 22.069 586.846C28.2218 586.866 34.3786 586.846 40.5355 586.846C41.0476 586.846 41.5636 586.825 42.0717 586.87C43.0555 586.955 43.4547 587.605 43.0434 588.47C42.737 589.104 42.3418 589.689 41.987 590.31C41.3298 592.272 40.5395 594.201 40.0436 596.203C38.6647 601.718 39.1404 607.14 41.1726 612.449C41.4951 613.293 41.8163 614.139 42.1362 614.987C42.4144 615.421 42.6926 615.852 42.9668 616.291C43.123 616.538 43.2162 616.819 43.238 617.111C43.2598 617.403 43.2096 617.696 43.0918 617.964H50.047C50.3695 618.468 50.047 618.662 49.8817 618.902L48.1519 621.168C47.9826 621.574 47.8334 622.005 47.6399 622.387C44.7503 628.389 44.6817 634.423 47.4342 640.488C47.6238 640.895 47.7971 641.301 47.9786 641.707L48.164 642.174L50.4381 645.216C51.3412 645.216 52.2444 645.261 53.1435 645.261H116.22C116.978 645.305 117.736 645.196 118.526 645.468Z" fill="url(#paint1_linear_446_4562)"/>
<path d="M153.145 676.87C152.096 677.829 150.914 678.629 149.637 679.246C146.905 680.554 144.038 681.556 141.089 682.235C137.461 683.137 133.796 683.799 130.102 684.335C129.022 684.489 127.961 684.766 126.877 684.985L126.026 685.005C125.756 684.668 125.494 684.705 125.219 685.005L118.724 684.969C118.705 684.842 118.664 684.72 118.603 684.607C117.346 683.098 116.191 681.507 115.144 679.843C114.939 679.601 114.707 679.383 114.454 679.193C114.188 678.475 113.97 677.735 113.648 677.041C111.837 673.161 110.987 668.897 111.168 664.613C111.168 664.292 111.249 663.975 111.289 663.655C113.708 663.346 116.127 663.021 118.547 662.737C125.322 661.866 132.175 661.804 138.965 662.55C141.715 662.849 144.422 663.472 147.029 664.406C148.491 664.916 149.883 665.609 151.173 666.469C152.482 667.311 153.561 668.468 154.314 669.836C155.685 672.439 155.282 674.864 153.145 676.87Z" fill="url(#paint2_linear_446_4562)"/>
<path d="M23.2705 555.678C20.3998 554.379 17.3919 554.054 14.255 554.078C6.02971 554.164 -2.19957 554.111 -10.4248 554.107C-11.1304 554.107 -11.836 554.05 -12.5416 554.017C-12.5416 553.266 -11.6546 529.58 -11.3844 526.282C-10.9312 520.066 -9.56143 513.953 -7.32022 508.144C-6.3889 505.827 -5.19992 503.624 -3.77608 501.577C-3.14527 500.615 -2.39305 499.74 -1.53833 498.973C-0.480472 498.005 0.682754 497.16 1.92918 496.455C3.90092 495.377 6.04002 494.644 8.25537 494.286C13.0938 493.624 17.7628 493.982 22.0125 496.723C22.3464 496.911 22.6942 497.073 23.0528 497.207C23.9156 497.978 24.8188 498.709 25.6454 499.522C27.8806 501.728 29.3798 504.579 29.9354 507.681C28.7621 509.224 27.113 510.317 25.855 511.925C26.734 512.067 27.2945 511.543 27.9315 511.308C28.5686 511.072 29.2298 510.772 30.0241 510.435C30.1339 510.802 30.2055 511.181 30.2378 511.564C30.133 513.96 30.0926 516.368 29.8588 518.752C28.8064 529.413 26.6856 539.892 24.4559 550.35C24.0769 552.125 23.6697 553.908 23.2705 555.678Z" fill="url(#paint3_linear_446_4562)"/>
<path d="M111.293 662.57C111.313 662.404 111.329 662.237 111.349 662.071L112.245 662.127L111.293 662.57Z" fill="#F2870F"/>
<path d="M114.502 651.166H112.954C69.7043 651.166 26.4504 651.159 -16.8075 651.145C-19.33 651.077 -21.828 651.659 -24.0651 652.835C-25.847 653.77 -27.3992 655.094 -28.6087 656.71C-29.8183 658.326 -30.6545 660.193 -31.0566 662.176C-31.8089 665.637 -31.2313 669.257 -29.4403 672.306C-27.6492 675.355 -24.7777 677.607 -21.404 678.609C-19.8506 679.037 -18.2445 679.241 -16.6341 679.214C3.34843 679.198 23.3323 679.198 43.3176 679.214C47.2488 679.214 51.18 679.189 55.1111 679.177C56.8352 681.003 58.3988 682.976 59.7842 685.074C59.0746 685.074 58.365 685.103 57.6594 685.103C-3.57046 685.103 -64.7989 685.103 -126.026 685.103C-127.699 685.103 -129.377 685.038 -131.05 685.005C-131.493 684.668 -131.941 684.331 -132.546 684.376C-135.884 683.291 -138.384 681.127 -140.207 678.162C-141.12 676.581 -141.689 674.823 -141.876 673.004C-142.477 668.475 -142.146 663.935 -142.142 659.406C-142.1 656.932 -141.473 654.504 -140.311 652.323C-139.486 650.803 -138.341 649.482 -136.957 648.453C-135.94 647.672 -134.839 647.01 -133.675 646.479C-132.063 645.676 -130.287 645.266 -128.49 645.281C-125.929 645.334 -123.369 645.248 -120.829 645.22L-118.006 645.187C-117.301 645.216 -116.591 645.269 -115.886 645.269C-61.1581 645.269 -6.4305 645.269 48.2971 645.269C49.0067 645.269 49.7163 645.269 50.426 645.269C51.3291 645.269 52.2323 645.313 53.1315 645.313H116.208C116.954 645.313 117.724 645.204 118.514 645.476C118.442 645.756 118.454 645.983 118.349 646.097C117.085 647.482 115.971 648.999 115.027 650.622C114.871 650.821 114.695 651.003 114.502 651.166Z" fill="#B75743"/>
<path d="M48.1519 621.168C47.9826 621.575 47.8334 622.005 47.6399 622.387C44.7503 628.39 44.6817 634.423 47.4342 640.488C47.6237 640.895 47.7971 641.301 47.9785 641.707L47.4544 642.113C46.8133 642.133 46.1722 642.174 45.5311 642.174H-3.6592C-4.30029 642.174 -4.94136 642.133 -5.58244 642.113L-5.96145 641.772C-5.96145 637.682 -5.99371 633.592 -5.99371 629.502C-5.99371 626.712 -5.96146 623.922 -5.94533 621.132L48.1519 621.168Z" fill="#F9E0B2"/>
<path d="M47.4543 642.141L47.9785 641.735L48.164 642.202L47.4543 642.141Z" fill="#F9DFB1"/>
<path d="M-5.92116 615.052C-5.94938 612.526 -5.98568 610 -6.00584 607.473C-6.026 604.651 -7.5138 602.921 -10.316 602.839C-13.6586 602.742 -17.0051 602.839 -20.3476 602.88C-21.6338 602.851 -22.92 602.758 -24.2022 602.819C-24.8339 602.896 -25.4484 603.079 -26.0206 603.359C-26.319 603.481 -26.5085 603.765 -26.2061 604.289C-24.1901 604.322 -22.0733 604.362 -19.9646 604.253C-19.7037 604.372 -19.4861 604.571 -19.3417 604.82C-19.1973 605.07 -19.1332 605.358 -19.1582 605.646C-19.1904 608.787 -19.2213 611.926 -19.2509 615.064L-45.3702 615.036C-46.0153 615.036 -46.6604 615.036 -47.3055 615.036C-52.9181 614.967 -58.4782 610.255 -58.6596 603.493C-58.7432 602 -58.6074 600.503 -58.2564 599.05C-56.8009 593.673 -51.9343 590.375 -47.3781 590.302C-46.733 590.302 -46.0879 590.281 -45.4427 590.281H39.8783C40.5838 590.281 41.2935 590.314 42.0031 590.33C41.3459 592.292 40.5556 594.221 40.0597 596.223C38.6807 601.739 39.1565 607.161 41.1886 612.469C41.5112 613.314 41.8324 614.16 42.1523 615.007C41.3822 615.028 40.6121 615.068 39.8379 615.068L-5.92116 615.052Z" fill="#F9E0B2"/>
<path d="M114.462 679.181C114.715 679.371 114.947 679.589 115.152 679.831C116.199 681.495 117.354 683.086 118.611 684.595C118.672 684.707 118.713 684.83 118.732 684.957C117.962 684.993 117.192 685.066 116.426 685.066C103.486 685.066 90.5483 685.066 77.6137 685.066C76.8436 685.066 76.0735 685.107 75.3034 685.127C74.497 684.234 73.6905 683.369 72.9245 682.439C72.0898 681.411 71.3117 680.323 70.5375 679.258C71.3681 679.23 72.2028 679.177 73.0374 679.177L114.462 679.181Z" fill="#B75743"/>
<path d="M47.0553 669.795H35.4391L35.0359 669.491C34.9432 667.485 35.8423 666.181 37.7333 665.535L38.5115 665.295H40.8662C41.8379 665.75 42.8015 666.234 43.7853 666.66C44.9707 667.176 45.8941 668.069 46.9303 668.8C47.3214 669.068 47.2811 669.426 47.0553 669.795Z" fill="#1C4655"/>
<path d="M125.227 684.993C125.49 684.684 125.752 684.648 126.034 684.993H125.227Z" fill="#B75743"/>
<path d="M-5.95746 621.168V618.094C-5.18735 618.094 -4.41321 618.094 -3.63906 618.094C11.11 618.094 25.859 618.094 40.608 618.094C41.4427 618.094 42.2773 618.021 43.1119 617.98H50.0469C50.3695 618.484 50.0469 618.679 49.8816 618.918L48.1519 621.168H-5.95746Z" fill="#86B0F1"/>
<path d="M43.1079 617.952C42.2733 617.992 41.4387 618.065 40.604 618.065C25.855 618.065 11.106 618.065 -3.64303 618.065C-4.41717 618.065 -5.19132 618.065 -5.96143 618.065C-5.96143 617.053 -5.948 616.042 -5.92112 615.032H39.838C40.6121 615.032 41.3822 614.991 42.1523 614.971C42.4305 615.405 42.7087 615.836 42.9829 616.274C43.1398 616.522 43.2334 616.804 43.2552 617.097C43.277 617.39 43.2264 617.684 43.1079 617.952Z" fill="#38558A"/>
<path d="M35.0358 669.499L35.439 669.804C35.189 669.852 35.0358 669.775 35.0358 669.499Z" fill="#375985"/>
<path d="M402.377 178.479L397.584 179.153L397.043 179.334C395.147 179.282 393.278 179.798 391.673 180.816C391.888 181.5 392.494 181.449 392.92 181.662C393.347 181.874 393.741 181.962 394.149 182.124C395.114 182.457 396.057 182.849 396.974 183.297C398.731 184.277 399.084 185.528 398.181 187.358C397.813 188.074 397.396 188.764 396.933 189.423C395.192 191.881 393.135 194.096 390.815 196.01C388.522 197.955 385.771 198.893 382.945 199.743C382.106 199.997 381.258 200.205 380.414 200.445L379.919 200.639C378.414 200.879 376.906 201.101 375.401 201.364C374.382 201.555 373.338 201.567 372.315 201.401C371.806 200.357 372.076 199.249 372.04 198.168C371.965 197.11 372.004 196.048 372.154 194.999L377.378 194.661L377.896 194.523C379.284 194.537 380.664 194.299 381.969 193.821C384.12 193.137 386.238 192.338 388.389 191.589L388.848 191.363C390.514 190.91 392.118 190.253 393.627 189.409L392.448 188.758C390.898 187.88 389.183 187.344 387.729 186.24C386.958 185.653 385.894 185.473 384.94 185.113L384.45 184.914L381.409 184.803L379.024 184.715C378.689 183.473 379.52 182.738 380.024 182.078C380.808 181.057 381.666 180.008 382.918 179.449C383.184 179.327 383.421 179.147 383.61 178.922C385.124 177.098 387.165 176.183 389.343 175.495L389.536 175.536L389.682 175.384L391.1 175.065L391.485 174.959L393.296 174.635L393.709 174.525L398.603 173.702L398.951 173.619L402.492 172.912L402.895 172.764C403.955 172.732 404.363 171.896 404.766 171.129C405.413 169.896 405.968 168.611 406.601 167.23C408.435 165.784 410.728 165.9 412.985 166.158C413.966 166.274 414.319 166.782 414.402 167.812C414.521 169.222 414.114 170.625 413.26 171.748C411.815 173.71 409.917 175.286 407.729 176.34C406.165 177.116 404.482 177.652 402.854 178.299L402.377 178.479Z" fill="#56C1A8"/>
<path d="M388.793 216.646C388.394 216.535 387.839 216.526 387.495 216.253C386.703 215.607 385.802 215.11 384.835 214.784C384.216 214.581 383.872 213.86 384.202 213.398C385.491 211.661 386.284 209.564 388.013 207.957C389.605 208.419 390.976 209.375 392.37 210.211C392.104 211.8 391.343 213.172 388.793 216.646Z" fill="#56C1A8"/>
<path d="M334 141.189C334.252 140.511 334.297 139.948 334.612 139.621C336.327 137.818 336.734 135.873 335.544 133.66C335.379 133.203 335.271 132.728 335.224 132.246C335.796 132.207 336.27 132.022 336.591 132.175C339.158 133.393 341.48 133.327 343.567 131.235C343.79 131.005 344.368 131.093 345.008 131C345.008 132.093 345.134 133.07 345.06 134.005C345.006 134.528 345.107 135.055 345.35 135.526C345.594 135.997 345.971 136.394 346.438 136.671C346.884 136.977 347.37 137.217 347.782 137.567C348.194 137.916 348.502 138.299 349 138.807C348.661 139.115 348.302 139.404 347.925 139.67C347.685 139.801 347.417 139.88 347.141 139.899C344.854 140.134 343.607 141.352 343.281 143.543C343.196 144.089 342.995 144.8 342.258 144.969C341.429 145.16 341.24 144.423 340.851 143.964C340.723 143.841 340.613 143.701 340.525 143.549C339.684 141.822 338.283 141.167 336.322 141.363C335.544 141.376 334.766 141.317 334 141.189Z" fill="#9EC3F9"/>
<path d="M42 139V137.457L45.2549 137.276L46.9931 133.693L51.1867 134.406C52.1688 133.343 52.0297 131.839 52.6772 130.564C54.2199 130.504 55.6758 131.476 57.3402 131.186C57.9094 130.357 58.4874 129.523 59.1306 128.594L62.581 128.887C62.7852 128.533 63.0504 128.071 63.3198 127.591C63.6587 127.025 64.0411 126.873 64.5018 127.103C64.9624 127.332 65.1232 127.734 64.9015 128.339C64.6191 129.108 64.2628 129.851 63.9499 130.581C62.694 131.014 61.5207 130.504 60.3256 130.651C59.513 130.975 59.2044 131.804 58.7133 132.448C58.4983 132.762 58.1925 133.004 57.8363 133.142C57.4801 133.279 57.0904 133.305 56.7187 133.218C55.8496 133.079 55.0152 132.561 53.9114 132.881L52.5469 136.511L48.2403 135.737C47.2104 136.601 47.2278 138.049 46.2892 138.978L42 139Z" fill="#F48F82"/>
<path d="M95.701 107.759C95.2013 109.34 94.7801 110.709 94.3365 112.071C94.1713 112.581 93.9724 113.079 93.7413 113.563C93.5762 113.777 93.3394 113.924 93.0743 113.978C92.8091 114.031 92.5336 113.988 92.2982 113.854C92.0997 113.693 91.9257 113.505 91.7816 113.294C90.7596 111.853 89.7432 110.406 88.6426 108.841C86.5987 108.359 84.3189 109.049 82.1794 108.449C82.0089 108.062 81.9584 107.633 82.0345 107.217C82.1105 106.801 82.3097 106.418 82.6062 106.116C83.5945 104.866 84.5154 103.559 85.5205 102.191C85.0376 100.638 84.5547 99.107 84.0943 97.5706C83.9202 97.0099 83.4597 96.3762 84.0943 95.8491C84.7288 95.3221 85.2847 95.6922 85.8743 95.8996C86.8064 96.2249 87.7442 96.5388 88.6819 96.8529C89.1087 96.9986 89.5298 97.1557 89.9622 97.2734C90.2201 97.3493 90.4932 97.3571 90.7549 97.2962C91.0167 97.2353 91.2582 97.1076 91.4559 96.9258C92.2476 96.2304 93.0675 95.5632 93.848 94.8566C94.2291 94.5086 94.6872 94.2556 95.1849 94.1182C95.6826 93.9808 96.2058 93.9629 96.7118 94.066C96.8525 94.5578 96.952 95.0605 97.0094 95.5688C97.0609 96.7333 97.0421 97.8999 96.9532 99.0622C96.8612 99.6837 96.9707 100.318 97.2657 100.873C97.5608 101.428 98.0258 101.874 98.5929 102.146C99.2892 102.544 99.9237 103.049 100.581 103.509C100.877 103.712 101.162 103.931 101.434 104.165C102.26 104.871 102.181 105.612 101.204 105.987C100.227 106.363 99.3341 106.61 98.3964 106.901C97.5597 107.204 96.7062 107.451 95.701 107.759Z" fill="#F47559"/>
<path d="M95.21 326.571H91.38C89.2067 323.213 87.08 319.906 85 316.649C86.42 314.987 86.42 314.987 89.13 314L93.82 320.739C97.56 321.847 101.2 319.369 105.27 319.953C107.55 323.076 108.12 327.266 110.69 330.701L116.97 329.14C118.72 330.358 118.47 332.02 118.45 333.612L117.32 334.337L107.45 337.006C106.58 334.891 105.71 332.746 104.81 330.61C104.408 329.575 103.944 328.566 103.42 327.588C103.104 326.846 102.54 326.239 101.826 325.871C101.112 325.503 100.293 325.398 99.51 325.574C98.43 325.795 97.35 325.987 96.26 326.178L95.21 326.571Z" fill="#56C1A8"/>
<path d="M442.59 441.105C439.34 440.328 436.591 439.988 434.094 438.454C433.428 435.19 435.135 432.742 436.987 430.527C438.379 429.095 439.9 427.794 441.529 426.642C442.792 425.762 443.988 424.788 445.107 423.727C448 420.473 447.122 417.316 442.956 415.956C441.654 415.539 440.256 415.461 438.915 415.169C438.078 415.023 437.31 414.609 436.724 413.991C436.137 413.372 435.763 412.58 435.656 411.731C435.463 410.886 435.589 409.999 436.01 409.243C436.431 408.487 437.116 407.916 437.932 407.641C439.06 407.165 440.279 406.95 441.5 407.01C445.496 407.229 449.387 408.386 452.86 410.39C457.759 413.411 458.897 417.734 457.421 423.242C456.817 425.68 455.332 427.803 453.255 429.196C452.224 429.876 451.327 430.789 450.304 431.421C446.688 433.694 443.795 436.55 442.59 441.105Z" fill="#F7CD82"/>
<path d="M435.241 455.482C431.827 455.822 428.915 452.801 429.002 449.11C429.089 447.489 429.735 445.95 430.828 444.758C431.921 443.567 433.394 442.797 434.99 442.582C438.337 442.31 441.162 445.399 441.374 449.022C441.596 452.801 438.481 455.9 435.241 455.482Z" fill="#F7CD82"/>
</g>
<defs>
<linearGradient id="paint0_linear_446_4562" x1="376.432" y1="555.895" x2="501.512" y2="654.805" gradientUnits="userSpaceOnUse">
<stop offset="0.01" stop-color="#F39008"/>
<stop offset="1" stop-color="#EE6C10"/>
</linearGradient>
<linearGradient id="paint1_linear_446_4562" x1="55.4781" y1="636.074" x2="135.695" y2="534.256" gradientUnits="userSpaceOnUse">
<stop stop-color="#F0780F"/>
<stop offset="0.52" stop-color="#F4910A"/>
</linearGradient>
<linearGradient id="paint2_linear_446_4562" x1="111.16" y1="673.503" x2="155.129" y2="673.503" gradientUnits="userSpaceOnUse">
<stop offset="0.01" stop-color="#F39008"/>
<stop offset="1" stop-color="#EE6C10"/>
</linearGradient>
<linearGradient id="paint3_linear_446_4562" x1="8.07395" y1="561.092" x2="10.3894" y2="477.632" gradientUnits="userSpaceOnUse">
<stop stop-color="#EF7210"/>
<stop offset="1" stop-color="#ED6811"/>
</linearGradient>
<clipPath id="clip0_446_4562">
<rect width="500" height="702" fill="white"/>
</clipPath>
</defs>
</svg>
