<svg width="375" height="1623" viewBox="0 0 375 1623" fill="none" xmlns="http://www.w3.org/2000/svg">
<g clipPath="url(#clip0_459_4354)">
<path d="M314.843 62.8775C314.301 64.5873 313.845 66.0668 313.365 67.5401C313.186 68.0913 312.97 68.6301 312.72 69.1529C312.541 69.3843 312.284 69.5436 311.997 69.6015C311.71 69.6594 311.411 69.6121 311.156 69.4682C310.941 69.2941 310.753 69.0899 310.597 68.8619C309.49 67.3036 308.388 65.7393 307.196 64.0477C304.982 63.5263 302.512 64.272 300.194 63.6233C300.01 63.205 299.955 62.7411 300.037 62.2915C300.12 61.8419 300.335 61.4272 300.657 61.101C301.727 59.749 302.725 58.3363 303.814 56.8569C303.291 55.1774 302.768 53.5221 302.269 51.8608C302.08 51.2545 301.581 50.5694 302.269 49.9994C302.956 49.4295 303.558 49.8297 304.197 50.054C305.207 50.4057 306.223 50.7452 307.239 51.0847C307.701 51.2424 308.157 51.4121 308.626 51.5395C308.905 51.6215 309.201 51.63 309.485 51.5641C309.768 51.4982 310.03 51.3602 310.244 51.1636C311.102 50.4117 311.99 49.6902 312.835 48.9263C313.248 48.55 313.744 48.2764 314.284 48.1278C314.823 47.9792 315.39 47.9599 315.938 48.0714C316.09 48.6032 316.198 49.1467 316.26 49.6963C316.316 50.9555 316.296 52.2169 316.199 53.4736C316.1 54.1456 316.218 54.8318 316.538 55.4318C316.857 56.0318 317.361 56.5142 317.976 56.8083C318.73 57.2388 319.417 57.7845 320.129 58.2817C320.45 58.5011 320.759 58.738 321.054 58.9911C321.948 59.755 321.863 60.5554 320.804 60.9616C319.746 61.3678 318.779 61.6346 317.763 61.9499C316.856 62.2773 315.932 62.5441 314.843 62.8775Z" fill="#F47559"/>
<path d="M274 88.211C274.273 87.4786 274.322 86.8701 274.663 86.5157C276.521 84.5664 276.961 82.4634 275.673 80.0711C275.494 79.5761 275.377 79.0625 275.326 78.5412C275.945 78.4998 276.459 78.299 276.806 78.4644C279.588 79.7816 282.103 79.7107 284.365 77.4483C284.606 77.2002 285.232 77.2948 285.926 77.1943C285.926 78.3758 286.062 79.4331 285.981 80.4432C285.923 81.0087 286.032 81.5785 286.296 82.088C286.56 82.5975 286.968 83.0263 287.475 83.3259C287.958 83.6567 288.484 83.9166 288.93 84.2947C289.376 84.6727 289.711 85.0862 290.25 85.6356C289.882 85.9694 289.493 86.2811 289.085 86.5689C288.825 86.7111 288.535 86.7959 288.237 86.817C285.758 87.071 284.408 88.3883 284.055 90.757C283.962 91.3477 283.745 92.1156 282.946 92.2987C282.048 92.5055 281.843 91.708 281.422 91.2119C281.283 91.0785 281.164 90.9274 281.069 90.7629C280.158 88.8963 278.64 88.1874 276.515 88.4001C275.672 88.4133 274.83 88.35 274 88.211Z" fill="#9EC3F9"/>
<path d="M318.061 550.593H313.912C311.557 546.962 309.253 543.386 307 539.865C308.538 538.067 308.538 538.067 311.474 537L316.555 544.287C320.607 545.485 324.55 542.805 328.959 543.437C331.429 546.813 332.047 551.344 334.831 555.058L341.634 553.37C343.53 554.688 343.259 556.485 343.238 558.206L342.013 558.99L331.321 561.876C330.378 559.589 329.436 557.269 328.461 554.96C328.025 553.841 327.522 552.75 326.955 551.693C326.612 550.89 326.001 550.233 325.228 549.836C324.454 549.438 323.567 549.324 322.719 549.514C321.549 549.754 320.379 549.961 319.198 550.168L318.061 550.593Z" fill="#56C1A8"/>
<path d="M343.62 1535.6C341.08 1535 338.932 1534.73 336.98 1533.53C336.46 1530.99 337.794 1529.08 339.241 1527.35C340.33 1526.23 341.518 1525.22 342.791 1524.32C343.778 1523.63 344.713 1522.87 345.587 1522.05C347.848 1519.51 347.162 1517.05 343.906 1515.99C342.889 1515.66 341.796 1515.6 340.749 1515.37C340.095 1515.26 339.494 1514.94 339.036 1514.45C338.577 1513.97 338.285 1513.35 338.201 1512.69C338.051 1512.03 338.149 1511.34 338.478 1510.75C338.807 1510.16 339.342 1509.71 339.98 1509.5C340.861 1509.13 341.814 1508.96 342.768 1509.01C345.891 1509.18 348.932 1510.08 351.646 1511.64C355.474 1514 356.363 1517.37 355.21 1521.67C354.738 1523.57 353.577 1525.23 351.955 1526.31C351.148 1526.84 350.448 1527.56 349.649 1528.05C346.823 1529.82 344.562 1532.05 343.62 1535.6Z" fill="#F7CD82"/>
<path d="M337.877 1546.82C335.21 1547.08 332.934 1544.72 333.001 1541.85C333.069 1540.58 333.574 1539.38 334.429 1538.45C335.283 1537.52 336.434 1536.92 337.681 1536.75C340.296 1536.54 342.505 1538.95 342.67 1541.78C342.844 1544.72 340.409 1547.14 337.877 1546.82Z" fill="#F7CD82"/>
<path d="M322 1072.22V1070.13L326.446 1069.89L328.82 1065.05L334.549 1066.01C335.89 1064.57 335.7 1062.54 336.584 1060.82C338.692 1060.74 340.68 1062.05 342.954 1061.66C343.731 1060.54 344.521 1059.41 345.399 1058.15L350.112 1058.55C350.391 1058.07 350.754 1057.45 351.122 1056.8C351.585 1056.03 352.107 1055.83 352.736 1056.14C353.365 1056.45 353.585 1056.99 353.282 1057.81C352.896 1058.85 352.41 1059.85 351.982 1060.84C350.267 1061.42 348.664 1060.74 347.032 1060.93C345.922 1061.37 345.5 1062.49 344.829 1063.36C344.536 1063.79 344.118 1064.12 343.631 1064.3C343.145 1064.49 342.613 1064.52 342.105 1064.4C340.918 1064.22 339.778 1063.52 338.27 1063.95L336.406 1068.85L330.524 1067.81C329.117 1068.98 329.141 1070.93 327.859 1072.19L322 1072.22Z" fill="#F48F82"/>
<path d="M298 1589.64C298.285 1588.87 298.337 1588.23 298.693 1587.85C300.638 1585.79 301.098 1583.57 299.75 1581.04C299.563 1580.52 299.441 1579.97 299.387 1579.42C300.035 1579.38 300.573 1579.17 300.936 1579.34C303.846 1580.73 306.477 1580.66 308.843 1578.27C309.096 1578.01 309.75 1578.11 310.476 1578C310.476 1579.25 310.619 1580.37 310.534 1581.43C310.473 1582.03 310.587 1582.63 310.864 1583.17C311.14 1583.71 311.567 1584.16 312.096 1584.48C312.602 1584.83 313.153 1585.11 313.62 1585.5C314.086 1585.9 314.436 1586.34 315 1586.92C314.616 1587.27 314.209 1587.6 313.782 1587.91C313.51 1588.06 313.206 1588.15 312.894 1588.17C310.301 1588.44 308.888 1589.83 308.519 1592.34C308.422 1592.96 308.195 1593.77 307.359 1593.96C306.419 1594.18 306.205 1593.34 305.764 1592.82C305.619 1592.67 305.495 1592.52 305.395 1592.34C304.442 1590.37 302.854 1589.62 300.631 1589.84C299.75 1589.86 298.869 1589.79 298 1589.64Z" fill="#9EC3F9"/>
</g>
<defs>
<clipPath id="clip0_459_4354">
<rect width="375" height="1623" fill="white"/>
</clipPath>
</defs>
</svg>
