<svg width="600" height="545" viewBox="0 0 600 545" fill="none" xmlns="http://www.w3.org/2000/svg">
<g clipPath="url(#clip0_446_4562)">
<path d="M618 400.3V526.177L617.237 526.582L610.281 526.938C610.107 526.831 609.906 526.778 609.703 526.785C609.5 526.791 609.303 526.857 609.136 526.974C605.612 527.124 602.084 527.254 598.56 527.432C595.165 527.598 591.769 527.837 588.374 528.002C584.528 528.197 580.679 528.302 576.838 528.537C569.85 528.97 562.854 528.941 555.858 529.01C549.699 529.063 543.539 528.982 537.375 528.954C536.973 528.954 536.607 528.893 536.226 528.865L531.199 528.941L528.9 528.897L519.63 528.541L518.871 528.516L512.321 528.16L511.562 528.128C508.749 527.885 505.936 527.675 503.124 527.383C498.532 526.908 493.942 526.404 489.353 525.869C484.897 525.332 480.476 524.529 476.113 523.465C473.167 522.822 470.283 521.913 467.498 520.749C465.971 520.085 464.494 519.31 463.078 518.43C462.111 517.797 461.237 517.03 460.482 516.151C458.935 514.411 458.638 512.351 459.41 510.177C459.72 509.33 460.136 508.527 460.647 507.785C461.603 506.381 463.46 504.952 464.979 504.142C468.784 502.119 472.891 501.155 477.106 500.581C478.946 500.33 480.806 500.249 482.659 500.075C483.294 500.014 483.925 499.905 484.559 499.816H491.889C492.257 499.916 492.634 499.985 493.014 500.022C499.113 500.2 505.137 501.083 511.156 501.977L514.849 502.714C513.462 502.054 512.406 501.467 511.192 501.281C509.621 500.556 508.046 499.84 506.483 499.103C505.964 498.86 505.478 498.561 504.976 498.294C504.55 498.176 504.133 498.03 503.726 497.857C499.833 495.89 495.947 493.902 492.074 491.931C490.502 491.122 488.919 490.385 487.34 489.612L486.854 489.369C486.155 488.56 485.102 488.345 484.242 487.803C483.716 487.475 483.089 487.297 482.607 486.726L486.127 484.273C486.303 484.238 486.472 484.176 486.629 484.087C486.778 483.958 487.115 483.921 486.942 483.488L486.102 483.577L481.104 483.856L479.577 483.905C478.504 483.856 477.363 484.018 476.362 483.694C475.454 483.399 474.719 482.573 473.903 481.99C473.209 481.447 472.431 481.02 471.601 480.728C471.597 480.671 471.577 480.618 471.543 480.572C471.51 480.527 471.464 480.493 471.412 480.473C471.275 480.262 471.187 479.991 471.01 479.861C469.75 478.915 468.629 477.795 467.679 476.534C467.173 475.891 466.767 475.175 466.474 474.409C465.537 471.949 466.112 469.832 467.892 468.027C468.841 467.001 470.026 466.228 471.344 465.776C474.057 464.881 476.904 464.47 479.758 464.562C480.81 465.614 481.196 467.193 482.169 468.371C482.191 468.645 482.283 468.909 482.437 469.136C482.59 469.364 482.8 469.548 483.045 469.67C482.988 469.144 482.944 468.727 482.9 468.306C482.948 467.164 482.43 466.043 482.775 464.764C483.081 464.764 483.382 464.704 483.683 464.708C486.697 464.752 489.711 464.878 492.724 464.837C500.103 464.687 507.449 465.856 514.423 468.29C514.825 468.435 515.283 468.537 515.717 468.658C516.118 469.115 516.673 469.136 517.211 469.212C518.574 469.971 520.047 470.509 521.575 470.807C520.346 469.998 519.164 469.119 517.718 468.739L515.451 467.448C513.474 466.14 511.494 464.845 509.533 463.514C509.1 463.235 508.731 462.868 508.448 462.437C507.99 461.672 507.644 460.818 507.218 459.948C507.509 459.685 507.821 459.447 508.15 459.235C508.886 458.831 509.645 458.503 510.397 458.139C512.578 457.37 512.578 457.37 513.378 456.475L510.401 456.637C509.271 456.605 508.146 456.556 507.021 456.548C506.463 456.56 505.911 456.432 505.414 456.176C505.219 456.077 505.054 455.926 504.94 455.738C504.826 455.551 504.766 455.335 504.767 455.115C503.248 453.56 501.841 451.897 500.556 450.141C499.479 448.728 498.374 447.34 497.422 445.834C495.771 443.318 494.338 440.664 493.138 437.901C492.469 436.292 491.993 434.609 491.72 432.886C491.529 431.669 491.613 430.424 491.965 429.243C492.159 428.42 492.582 427.67 493.184 427.08C493.786 426.49 494.542 426.085 495.364 425.912C496.683 425.615 498.045 425.564 499.383 425.763C502.117 426.118 504.803 426.78 507.391 427.738C512.317 429.567 517.207 431.498 522.118 433.372C522.455 433.474 522.765 433.651 523.025 433.89C523.285 434.129 523.489 434.423 523.62 434.752C523.986 435.711 524.376 436.658 524.754 437.614L526.558 441.163L527.016 442.697C527.016 442.819 527.016 442.985 527.08 443.058C527.144 443.13 527.41 443.337 527.482 443.292C527.791 443.143 527.719 442.916 527.482 442.722L527.253 441.103C527.096 439.314 526.939 437.529 526.771 435.578C527.166 435.618 527.558 435.694 527.94 435.804C530.254 436.756 532.533 437.796 534.863 438.686C538.882 440.224 542.9 441.799 547.159 442.479C547.913 442.647 548.697 442.626 549.441 442.418C550.277 442.139 550.615 441.576 550.281 440.799C549.979 440.161 549.634 439.544 549.249 438.953C548.841 438.377 548.468 437.777 548.131 437.156C546.291 433.109 544.483 429.041 542.671 424.981C542.605 424.802 542.551 424.618 542.51 424.431C541.397 421.82 540.244 419.226 539.183 416.595C535.906 408.656 533.076 400.537 530.705 392.278C529.647 388.616 528.841 384.884 528.294 381.111C527.96 378.672 527.9 376.204 528.113 373.752C528.253 372.166 528.888 370.761 529.567 369.373C529.819 369.008 530.165 368.72 530.568 368.539C532.215 367.6 533.995 367.584 535.792 367.863C539.856 368.533 543.768 369.934 547.34 372C551.414 374.34 555.228 377.114 558.715 380.273C559.011 380.518 559.248 380.827 559.409 381.178C559.57 381.528 559.65 381.911 559.644 382.296C559.672 383.511 559.744 384.753 559.796 385.98V387.696C560.033 387.577 560.236 387.399 560.387 387.18C560.537 386.961 560.63 386.706 560.656 386.441L562.264 383.903C562.529 384.073 562.783 384.261 563.023 384.466C564.261 385.68 565.493 386.904 566.72 388.137C566.908 388.311 567.07 388.513 567.198 388.736C568.138 390.61 569.91 391.792 571.071 393.484C571.397 393.867 571.764 394.213 572.164 394.516C572.143 394.634 572.148 394.755 572.178 394.871C572.209 394.986 572.265 395.094 572.342 395.185C572.419 395.276 572.515 395.349 572.623 395.399C572.731 395.448 572.849 395.473 572.968 395.471C573.056 396.143 573.567 396.487 574.029 396.863C574.051 396.989 574.051 397.118 574.029 397.244L574.885 397.908C575.56 399.013 576.187 400.158 577.364 400.83C577.547 401.507 577.883 402.133 578.344 402.659C578.602 403.299 578.923 403.845 579.952 403.813L579.345 402.688L578.224 400.704C578.039 400.162 577.886 399.608 577.661 399.085C576.689 396.762 575.692 394.451 574.716 392.128C574.583 391.768 574.47 391.4 574.378 391.027C574.257 390.881 574.151 390.723 574.065 390.553C571.284 383.6 568.805 376.541 567.258 369.191C566.728 366.669 566.414 364.103 566.053 361.549C566.012 360.951 566.012 360.35 566.053 359.752C567.66 359.218 569.356 359.347 570.955 358.942C571.204 359.048 571.477 359.048 571.497 358.736C571.497 358.61 571.184 358.469 571.015 358.331C569.459 357.088 567.836 355.932 566.153 354.871C566.088 354.712 566.058 354.54 566.065 354.369C566.276 352.049 566.853 349.779 567.772 347.642C568.841 345.262 570.694 343.594 572.554 341.902C575.632 340.405 578.766 339.502 582.198 340.729C583.955 341.358 585.609 342.246 587.108 343.364C589.575 345.236 591.791 347.423 593.702 349.868C594.907 351.378 596.028 352.956 597.19 354.506C597.225 354.815 597.212 355.128 597.154 355.433C596.704 356.647 596.82 357.886 596.804 359.125C596.748 359.153 596.659 359.169 596.639 359.218C595.928 360.861 595.783 362.609 595.699 364.419C596.575 363.696 597.327 362.833 597.925 361.865C598.034 361.679 597.925 361.371 597.925 361.116C598.48 361.116 598.825 360.76 599.227 360.44C600.195 359.667 600.561 359.813 601.047 361.104C601.307 361.282 601.539 361.499 601.734 361.747C602.671 363.439 603.571 365.151 604.487 366.851C605.29 368.32 606.094 369.782 606.898 371.251C607.018 371.47 607.127 371.696 607.223 371.927C607.464 372.522 607.625 373.141 607.926 373.716C609.859 377.581 611.611 381.523 613.214 385.539C613.833 387.093 614.516 388.623 615.123 390.185C615.702 391.679 616.284 393.18 616.73 394.718C617.132 396.013 616.971 397.301 615.959 398.325C615.543 398.81 615.049 399.221 614.496 399.539C615.051 399.28 616.18 400.753 616.811 400.668C617.228 400.627 617.632 400.502 618 400.3Z" fill="url(#paint0_linear_446_4562)"/>
<path d="M615.991 360.436C616.651 360.589 617.323 360.677 618 360.699V400.3C617.627 400.503 617.217 400.627 616.795 400.664C616.164 400.737 615.035 399.276 614.48 399.535C615.033 399.217 615.527 398.806 615.943 398.321C616.955 397.296 617.096 396.009 616.714 394.714C616.26 393.176 615.678 391.674 615.107 390.181C614.5 388.619 613.817 387.089 613.198 385.534C611.591 381.519 609.843 377.577 607.91 373.712C607.625 373.141 607.448 372.497 607.207 371.923C607.111 371.692 607.002 371.466 606.882 371.247C606.078 369.778 605.274 368.316 604.471 366.847C603.555 365.147 602.654 363.435 601.718 361.743C601.523 361.495 601.291 361.278 601.031 361.1C600.545 359.809 600.179 359.663 599.211 360.436C598.809 360.756 598.463 361.124 597.909 361.112L596.788 359.12C596.788 357.882 596.687 356.635 597.137 355.429C597.196 355.124 597.209 354.811 597.174 354.502C598.577 354.281 600.013 354.42 601.349 354.907C603.462 355.66 605.564 356.446 607.653 357.267C607.992 357.431 608.282 357.682 608.493 357.995C608.738 358.372 608.955 358.767 609.14 359.177C609.136 359.448 609.206 359.715 609.342 359.949C609.478 360.183 609.675 360.375 609.911 360.505C609.823 359.954 609.759 359.554 609.698 359.149C609.751 358.914 609.807 358.679 609.891 358.307C610.293 358.42 610.558 358.489 610.836 358.59C612.559 359.185 614.259 359.865 615.991 360.436Z" fill="#EE6D10"/>
<path d="M-125.788 479.2C-127.365 477.421 -127.312 474.846 -127.183 472.454C-127.078 470.582 -127.256 468.693 -127.123 466.821C-126.941 464.242 -126.058 461.894 -124.115 460.107C-123.175 459.242 -122.081 458.566 -120.889 458.113C-118.843 457.338 -116.668 456.963 -114.483 457.009C-108.89 457.061 -103.298 457.009 -97.7014 457.009H-97.2982C-96.4152 456.976 -95.4999 457.281 -94.6693 456.737C-92.5082 457.179 -90.3228 457.078 -88.1456 457.078H-19.1985V460.144C-24.678 460.144 -30.1574 460.067 -35.6369 460.189C-40.8785 460.306 -45.1444 464.019 -45.7572 469.595C-45.9152 471.051 -45.7681 472.524 -45.3253 473.92C-44.8826 475.315 -44.1542 476.601 -43.187 477.695C-42.2199 478.789 -41.0357 479.667 -39.7108 480.271C-38.386 480.875 -36.95 481.192 -35.4958 481.202C-30.4034 481.202 -25.311 481.202 -20.2186 481.202C-19.8355 481.202 -19.4485 481.158 -19.0654 481.133H-18.9203H-18.7751H-5.57843C-4.93734 481.154 -4.29624 481.194 -3.65516 481.194H45.5351C46.1762 481.194 46.8173 481.154 47.4584 481.133L48.1681 481.198L50.4421 484.24C49.7324 484.24 49.0228 484.24 48.3132 484.24C-6.41438 484.24 -61.142 484.24 -115.87 484.24C-116.575 484.24 -117.285 484.187 -117.99 484.159C-119.297 484.537 -120.506 486.567 -121.716 483.144H-121.696C-122.023 483.063 -122.331 482.915 -122.598 482.709C-122.866 482.502 -123.089 482.243 -123.252 481.946H-123.232L-123.716 481.539C-123.95 481.369 -124.256 481.263 -124.421 481.02C-124.835 480.382 -125.292 479.774 -125.788 479.2Z" fill="#86B0F1"/>
<path d="M-12.5416 393.017C-11.836 393.05 -11.1304 393.103 -10.4248 393.107C-2.19957 393.107 6.02971 393.164 14.255 393.078C17.3919 393.046 20.3998 393.379 23.2705 394.679C23.8431 395.133 24.4075 395.596 25.1696 395.682C25.437 396.037 25.7279 396.373 26.0405 396.689C29.295 399.522 31.3208 403.524 31.6853 407.841C32.1933 413.121 30.6329 417.711 26.9961 421.524C25.1531 423.547 22.7306 424.941 20.0651 425.513C18.6862 425.919 17.2709 425.858 15.8597 425.858H-90.0889C-91.5001 425.858 -92.9113 425.813 -94.2943 426.187C-94.9072 425.663 -95.645 425.886 -96.3103 425.886C-103.493 425.865 -110.675 425.865 -117.857 425.886C-118.494 425.886 -119.135 425.955 -119.772 425.988C-120.176 425.842 -120.494 425.582 -120.329 425.135C-120.272 424.993 -120.187 424.864 -120.079 424.756C-119.971 424.648 -119.842 424.564 -119.7 424.509C-119.199 424.409 -118.69 424.349 -118.18 424.331C-117.535 424.355 -116.894 424.4 -116.249 424.4C-89.0998 424.4 -61.951 424.4 -34.8023 424.4C-33.516 424.446 -32.2286 424.348 -30.9638 424.107C-26.3714 423.039 -23.1982 420.176 -21.287 415.895C-18.4646 409.58 -20.2871 402.249 -25.0408 398.094C-27.4275 395.963 -30.4888 394.757 -33.6773 394.691C-34.387 394.691 -35.0966 394.691 -35.8062 394.691H-115.527C-116.297 394.691 -117.067 394.743 -117.841 394.776C-118.333 394.739 -118.829 394.715 -119.321 394.67C-120.103 394.597 -120.18 394.475 -120.168 393.415L-119.789 393.143C-118.95 393.143 -118.111 393.115 -117.277 393.115C-83.8434 393.115 -50.4114 393.115 -16.9809 393.115C-15.5011 393.099 -14.0214 393.046 -12.5416 393.017Z" fill="#4970B6"/>
<path d="M-94.2984 426.183C-92.9154 425.809 -91.5042 425.854 -90.093 425.854H15.8597C17.2709 425.854 18.6821 425.894 20.065 425.508C20.6658 426.073 21.4077 425.829 22.081 425.833C28.2339 425.854 34.3907 425.833 40.5476 425.833C41.0596 425.833 41.5757 425.813 42.0838 425.858C43.0676 425.943 43.4667 426.593 43.0555 427.458C42.749 428.092 42.3539 428.676 41.9991 429.298C41.2894 429.298 40.5798 429.249 39.8742 429.249H-45.4427C-46.0879 429.249 -46.733 429.249 -47.3781 429.269C-51.9342 429.359 -56.7968 432.657 -58.2443 438.026C-58.5953 439.479 -58.7311 440.976 -58.6475 442.469C-58.4661 449.231 -52.9059 453.942 -47.2934 454.011C-46.6483 454.011 -46.0032 454.011 -45.3581 454.011L-19.2428 454.04C-19.2428 455.043 -19.2428 456.05 -19.2227 457.053H-88.1697C-90.347 457.053 -92.5324 457.155 -94.6935 456.712L-96.9474 456.237L-97.7538 455.945L-98.1247 455.847L-98.8948 455.518C-98.9333 455.477 -98.9815 455.445 -99.0351 455.428C-99.0887 455.41 -99.1458 455.406 -99.2013 455.417L-99.669 455.165C-99.7106 455.118 -99.7629 455.083 -99.8212 455.062C-99.8796 455.041 -99.9422 455.034 -100.004 455.043L-100.443 454.783C-100.481 454.735 -100.531 454.697 -100.587 454.674C-100.644 454.65 -100.705 454.642 -100.766 454.649L-101.217 454.361L-102.1 453.898L-102.383 453.621L-103.661 452.728L-103.931 452.452C-104.423 452.046 -105.019 451.741 -105.382 451.233C-106.244 450.136 -107.008 448.965 -107.664 447.732C-109.644 443.704 -109.733 439.695 -107.862 435.601C-106.929 433.559 -105.568 431.744 -103.874 430.281C-103.521 430.018 -103.147 429.783 -102.757 429.578C-102.673 429.497 -101.741 428.888 -101.741 428.888L-101.625 428.827L-101.318 428.55C-100.729 428.006 -99.9553 427.888 -99.2416 427.637L-98.6328 427.356L-98.0522 427.06L-97.786 426.975L-96.8869 426.666L-96.6087 426.589L-96.1612 426.544L-94.2984 426.183Z" fill="#38558A"/>
<path d="M-137.558 523.932H-132.538L-131.042 523.961C-129.369 523.997 -127.691 524.062 -126.018 524.062C-64.7909 524.062 -3.56239 524.062 57.6674 524.062C58.373 524.062 59.0827 524.062 59.7923 524.03C60.5749 524.575 61.1326 525.39 61.3607 526.32C60.6551 526.341 59.9455 526.381 59.2399 526.381C-31.9396 526.381 -123.118 526.381 -214.295 526.381C-215.173 526.381 -216.101 526.657 -216.931 526.105C-216.933 526.086 -216.94 526.068 -216.95 526.052C-216.961 526.036 -216.975 526.023 -216.992 526.013C-217.008 526.004 -217.027 525.999 -217.046 525.999C-217.065 525.999 -217.084 526.003 -217.101 526.012C-217.318 525.865 -217.469 525.638 -217.52 525.38C-217.571 525.122 -217.519 524.854 -217.375 524.635C-217.263 524.438 -217.098 524.276 -216.899 524.169C-216.7 524.061 -216.475 524.011 -216.25 524.026H-214.702H-193.038C-192.203 524.026 -191.365 524.001 -190.53 523.989C-190.215 523.989 -189.893 524.034 -189.574 524.034H-171.221C-170.838 524.034 -170.451 523.977 -170.068 523.944C-169.491 523.973 -168.918 524.03 -168.342 524.03C-158.665 524.03 -148.979 524.03 -139.283 524.03C-138.707 524.03 -138.134 523.973 -137.558 523.932Z" fill="#1C4655"/>
<path d="M61.3608 526.328C61.1335 525.398 60.5754 524.585 59.7923 524.042C58.4069 521.944 56.8433 519.971 55.1193 518.145C52.821 515.218 50.5241 512.29 48.2286 509.36C47.9197 509.033 47.502 508.832 47.0553 508.795C47.2811 508.426 47.3214 508.068 46.9303 507.788C45.8941 507.057 44.9707 506.164 43.7853 505.648C42.8015 505.221 41.8379 504.738 40.8661 504.283C41.0548 504.243 41.2462 504.217 41.4387 504.206C45.2933 504.206 49.1479 504.169 53.0025 504.239C54.0278 504.282 55.0406 504.482 56.0063 504.831C59.2432 505.966 62.1062 507.978 64.2799 510.647C64.8968 511.391 65.4895 512.17 66.0903 512.918C67.566 514.705 69.0444 516.488 70.5255 518.267C71.3319 519.331 72.0778 520.419 72.9124 521.447C73.6624 522.377 74.493 523.242 75.2913 524.135C75.7033 525.059 76.3765 525.84 77.2267 526.381C77.1915 526.54 77.2101 526.707 77.2795 526.854C77.3489 527.001 77.4651 527.12 77.6097 527.193C78.783 528.717 79.9483 530.248 81.1417 531.758C83.4158 534.642 85.7006 537.522 87.9961 540.397C88.0243 540.434 87.9961 540.511 87.9961 540.568C87.9074 540.649 87.8268 540.799 87.7421 540.799C82.9037 540.799 78.0653 540.799 73.2269 540.799C72.2955 539.881 71.6544 538.768 70.8319 537.802C70.0094 536.835 69.2554 535.84 68.4692 534.857C67.5458 533.712 66.6225 532.563 65.7516 531.377C65.1509 530.564 64.2114 530.008 63.913 528.964C63.0099 528.489 62.7276 527.486 62.0865 526.787L61.7357 526.503L61.3608 526.328Z" fill="#375985"/>
<path d="M77.2387 526.369C76.3885 525.828 75.7154 525.047 75.3033 524.123C76.0735 524.103 76.8436 524.062 77.6137 524.062C90.5537 524.062 103.491 524.062 116.426 524.062C117.192 524.062 117.962 523.989 118.732 523.953L125.227 523.989H126.034L126.881 523.969C127.844 523.989 128.812 524.022 129.78 524.022H188.006C188.651 524.022 189.296 524.022 189.937 524.074C190.191 524.122 190.422 524.252 190.596 524.444C190.77 524.636 190.877 524.88 190.901 525.138C190.887 525.398 190.798 525.648 190.645 525.856C190.492 526.065 190.28 526.224 190.038 526.312C189.786 526.369 189.529 526.395 189.272 526.389C188.756 526.389 188.239 526.389 187.723 526.389H142.847C142.138 526.389 141.432 526.442 140.726 526.471C140.15 526.442 139.573 526.389 138.997 526.389H79.7385C79.162 526.389 78.5854 526.442 78.0088 526.471L77.2387 526.369Z" fill="#1C4655"/>
<path d="M77.2387 526.369L78.0088 526.466Z" fill="#F9FBFE"/>
<path d="M114.502 490.166C114.135 491.059 113.793 491.961 113.402 492.846C112.423 495.171 111.736 497.609 111.357 500.104C111.331 500.426 111.331 500.749 111.357 501.071C111.357 501.237 111.321 501.404 111.301 501.57C111.301 501.928 111.301 502.285 111.301 502.642C111.301 503 111.192 503.28 111.18 503.601C110.999 507.884 111.849 512.148 113.66 516.029C113.978 516.723 114.196 517.462 114.466 518.181H73.0293C72.1947 518.181 71.36 518.234 70.5295 518.263C69.0457 516.481 67.5673 514.698 66.0943 512.914C65.4774 512.166 64.8847 511.387 64.2839 510.643C62.107 507.98 59.2427 505.973 56.0062 504.844C55.0405 504.494 54.0277 504.294 53.0024 504.251C49.1478 504.182 45.2932 504.218 41.4386 504.218C41.2462 504.23 41.0548 504.255 40.8661 504.295H38.5114L37.7332 504.535C35.8584 505.181 34.9431 506.484 35.0358 508.491C35.0358 508.775 35.1891 508.852 35.439 508.795H47.0552C47.5019 508.832 47.9196 509.033 48.2285 509.36C50.516 512.306 52.8129 515.234 55.1192 518.145C51.188 518.145 47.2568 518.181 43.3256 518.181C23.3431 518.181 3.35917 518.181 -16.6261 518.181C-18.2365 518.209 -19.8425 518.005 -21.3959 517.576C-24.7696 516.574 -27.6411 514.322 -29.4322 511.273C-31.2233 508.224 -31.8008 504.605 -31.0485 501.144C-30.6465 499.161 -29.8102 497.293 -28.6007 495.677C-27.3912 494.061 -25.8389 492.738 -24.057 491.803C-21.82 490.626 -19.322 490.045 -16.7994 490.113C26.4558 490.137 69.7096 490.144 112.962 490.133L114.502 490.166Z" fill="#F9DFB1"/>
<path d="M118.526 484.468C118.454 484.748 118.466 484.975 118.361 485.089C117.097 486.474 115.983 487.99 115.039 489.613C114.88 489.816 114.7 490.001 114.502 490.166C114.135 491.059 113.793 491.961 113.402 492.846C112.423 495.17 111.736 497.609 111.357 500.104C111.331 500.426 111.331 500.749 111.357 501.071L112.253 501.127C112.849 500.904 113.462 500.721 114.039 500.453C119.256 497.838 124.467 495.21 129.671 492.57C129.886 492.439 130.091 492.291 130.284 492.127C131.038 491.778 131.816 491.465 132.541 491.063C133.267 490.661 134.211 490.466 134.799 489.634L131.493 487.428C131.443 487.395 131.407 487.345 131.392 487.286C131.394 487.19 131.407 487.095 131.433 487.002C131.792 487.002 132.167 487.002 132.541 487.002C134.474 487.089 136.404 487.181 138.331 487.278C138.97 487.381 139.624 487.275 140.198 486.978C142.565 485.511 144.863 483.96 146.791 481.917C147.606 481.082 148.262 480.103 148.726 479.029C149.057 478.284 149.184 477.464 149.094 476.652C149.004 475.841 148.7 475.069 148.214 474.416C147.386 473.245 146.237 472.343 144.908 471.82C142.419 470.811 139.729 470.413 137.057 470.659C136.465 471.727 135.884 472.803 135.271 473.859C135.082 474.109 134.867 474.338 134.63 474.542C134.332 473.177 135.033 471.987 134.771 470.838C134.607 470.766 134.435 470.714 134.259 470.683C129.171 470.817 124.078 470.858 118.998 471.142C116.229 471.29 113.496 471.837 110.882 472.767C108.635 473.292 106.434 473.996 104.297 474.871C103.83 475.129 103.292 475.224 102.765 475.143C104.092 474.363 103.285 474.769 104.378 474.18C106.245 473.035 108.14 471.938 109.962 470.724C110.852 470.085 111.682 469.366 112.442 468.575C113.056 467.994 113.46 467.222 113.587 466.382C113.043 466.106 112.595 465.862 112.132 465.651C111.132 465.204 110.116 464.782 109.124 464.327C108.87 464.209 108.487 464.136 108.624 463.588H114.777C118.954 458.97 122.724 454.145 125.344 448.5C125.861 447.385 126.284 446.229 126.61 445.044C127.014 443.541 127.264 442.01 126.852 440.438C126.328 438.407 125.159 437.278 123.07 437.152C121.787 437.064 120.497 437.127 119.228 437.339C117.513 437.672 115.819 438.107 114.156 438.643C109.652 440.016 105.35 441.929 100.967 443.63C100.58 443.771 100.228 443.996 99.9361 444.289C99.6442 444.581 99.4195 444.935 99.2776 445.324C98.5236 447.111 97.7293 448.886 96.9188 450.653C96.7737 450.965 96.7535 451.42 96.2495 451.522C96.1246 449.584 96.8826 447.688 96.564 445.763C95.7939 445.58 95.2577 446.023 94.6811 446.262C90.5161 448 86.3631 449.767 82.0005 450.941C80.8817 451.237 79.743 451.45 78.5934 451.579C77.8516 451.668 76.9444 451.802 76.5291 450.941C76.1742 450.218 76.6057 449.515 77.0613 448.979C78.0451 447.822 78.6096 446.445 79.2224 445.092C80.346 442.615 81.4575 440.132 82.5569 437.644C82.7867 437.116 82.9601 436.551 83.1294 436.019C83.3614 435.638 83.5741 435.245 83.7665 434.842C86.3792 428.632 88.8549 422.369 90.9999 415.976C92.7498 410.753 94.3303 405.478 95.2214 400.023C95.59 398.046 95.7642 396.036 95.7415 394.025C95.7397 392.594 95.466 391.177 94.9351 389.849C94.1892 388.152 92.9191 387.201 91.0281 387.189C90.6249 387.189 90.254 387.189 89.8669 387.218C87.4247 387.421 85.0318 388.025 82.7827 389.005C78.6862 390.682 75.0453 393.115 71.6262 395.909C70.5295 396.803 69.4771 397.753 68.4409 398.646C68.3925 400.466 68.3441 402.147 68.2957 403.833C68.2969 403.863 68.2922 403.892 68.2818 403.92C68.2714 403.948 68.2556 403.974 68.2353 403.995C68.1909 404.032 68.1143 404.032 67.9692 404.068L66.1144 401.071C65.683 401.441 65.308 401.705 65.0218 402.009C61.8007 405.281 58.7524 408.72 55.8893 412.313C55.7361 412.523 55.6012 412.746 55.4861 412.979L52.8129 416.086C52.4845 416.983 51.9284 417.777 51.2001 418.389C51.1235 418.202 51.0106 418.064 51.0428 417.983C51.446 417.073 51.9057 416.175 52.3371 415.27C53.0951 413.499 53.8518 411.727 54.6071 409.953C55.2401 408.467 55.9095 406.997 56.4981 405.486C58.9818 399.142 61.147 392.696 62.3163 385.959C62.6348 384.119 63.038 382.271 62.8646 380.342C62.1389 379.915 61.3526 379.936 60.5987 379.867C59.8447 379.797 59.0867 379.797 58.2359 379.31C59.764 378.027 61.4373 377.166 62.9009 375.834C62.5985 372.434 61.6913 369.25 59.2197 366.712C55.9256 363.312 51.4944 362.374 47.2084 364.64C46.1266 365.216 45.096 365.885 44.128 366.639C40.8298 369.209 38.3179 372.491 35.943 375.919C36.4349 378.628 36.9188 381.292 37.4631 384.302C37.1284 384.043 36.8093 383.765 36.5075 383.469C35.7455 382.592 35.0116 381.682 34.2456 380.809C33.9467 380.521 33.6259 380.258 33.2859 380.021C31.8304 382.616 30.2418 384.976 29.1935 387.636C28.9666 387.939 28.7592 388.257 28.5725 388.586C27.4234 390.95 26.2945 393.322 25.1575 395.69C25.4248 396.045 25.7158 396.381 26.0284 396.697C29.2829 399.53 31.3087 403.532 31.6732 407.85C32.1812 413.129 30.6208 417.719 26.9839 421.532C25.1409 423.555 22.7184 424.949 20.0529 425.521C20.6537 426.085 21.3956 425.841 22.0689 425.846C28.2218 425.866 34.3786 425.846 40.5355 425.846C41.0475 425.846 41.5636 425.825 42.0717 425.87C43.0555 425.955 43.4546 426.605 43.0434 427.47C42.7369 428.104 42.3418 428.689 41.987 429.31C41.3298 431.272 40.5395 433.201 40.0436 435.203C38.6646 440.718 39.1404 446.14 41.1725 451.449C41.4951 452.293 41.8163 453.139 42.1362 453.987C42.4144 454.421 42.6926 454.852 42.9668 455.291C43.123 455.538 43.2162 455.819 43.238 456.111C43.2598 456.403 43.2096 456.696 43.0918 456.964H50.0469C50.3695 457.468 50.047 457.662 49.8816 457.902L48.1519 460.168C47.9826 460.574 47.8334 461.005 47.6399 461.387C44.7503 467.389 44.6817 473.423 47.4342 479.488C47.6237 479.895 47.7971 480.301 47.9785 480.707L48.164 481.174L50.438 484.216C51.3412 484.216 52.2444 484.261 53.1435 484.261H116.22C116.978 484.305 117.736 484.196 118.526 484.468Z" fill="url(#paint1_linear_446_4562)"/>
<path d="M153.145 515.87C152.096 516.829 150.914 517.629 149.637 518.246C146.905 519.554 144.038 520.556 141.089 521.235C137.461 522.137 133.796 522.799 130.102 523.335C129.022 523.489 127.961 523.766 126.877 523.985L126.026 524.005C125.756 523.668 125.494 523.705 125.219 524.005L118.724 523.969C118.705 523.842 118.664 523.72 118.603 523.607C117.346 522.098 116.191 520.507 115.144 518.843C114.939 518.601 114.707 518.383 114.454 518.193C114.188 517.475 113.97 516.735 113.648 516.041C111.837 512.161 110.987 507.897 111.168 503.613C111.168 503.292 111.249 502.975 111.289 502.655C113.708 502.346 116.127 502.021 118.547 501.737C125.322 500.866 132.175 500.804 138.965 501.55C141.715 501.849 144.422 502.472 147.029 503.406C148.491 503.916 149.883 504.609 151.173 505.469C152.482 506.311 153.561 507.468 154.314 508.836C155.685 511.439 155.282 513.864 153.145 515.87Z" fill="url(#paint2_linear_446_4562)"/>
<path d="M23.2705 394.678C20.3997 393.379 17.3918 393.054 14.2549 393.078C6.02968 393.164 -2.1996 393.111 -10.4249 393.107C-11.1305 393.107 -11.8361 393.05 -12.5417 393.017C-12.5417 392.266 -11.6546 368.58 -11.3845 365.282C-10.9312 359.066 -9.56146 352.953 -7.32025 347.144C-6.38893 344.827 -5.19995 342.624 -3.77611 340.577C-3.1453 339.615 -2.39308 338.74 -1.53836 337.973C-0.480503 337.005 0.682724 336.16 1.92915 335.455C3.90089 334.377 6.03999 333.644 8.25534 333.286C13.0937 332.624 17.7628 332.982 22.0125 335.723C22.3463 335.911 22.6941 336.073 23.0528 336.207C23.9156 336.978 24.8188 337.709 25.6453 338.522C27.8806 340.728 29.3797 343.579 29.9354 346.681C28.7621 348.224 27.113 349.317 25.855 350.925C26.734 351.067 27.2944 350.543 27.9315 350.308C28.5685 350.072 29.2298 349.772 30.0241 349.435C30.1339 349.802 30.2055 350.181 30.2378 350.564C30.1329 352.96 30.0926 355.368 29.8588 357.752C28.8064 368.413 26.6856 378.892 24.4559 389.35C24.0769 391.125 23.6697 392.908 23.2705 394.678Z" fill="url(#paint3_linear_446_4562)"/>
<path d="M111.293 501.57C111.313 501.404 111.329 501.237 111.349 501.071L112.245 501.127L111.293 501.57Z" fill="#F2870F"/>
<path d="M114.502 490.166H112.954C69.7042 490.166 26.4504 490.159 -16.8075 490.145C-19.33 490.077 -21.8281 490.659 -24.0651 491.835C-25.847 492.77 -27.3993 494.094 -28.6088 495.71C-29.8183 497.326 -30.6546 499.193 -31.0566 501.176C-31.8089 504.637 -31.2314 508.257 -29.4403 511.306C-27.6492 514.355 -24.7777 516.607 -21.404 517.609C-19.8506 518.037 -18.2445 518.241 -16.6341 518.214C3.3484 518.198 23.3323 518.198 43.3175 518.214C47.2487 518.214 51.1799 518.189 55.1111 518.177C56.8352 520.003 58.3987 521.976 59.7842 524.074C59.0746 524.074 58.3649 524.103 57.6593 524.103C-3.57049 524.103 -64.799 524.103 -126.026 524.103C-127.699 524.103 -129.377 524.038 -131.05 524.005C-131.493 523.668 -131.941 523.331 -132.546 523.376C-135.884 522.291 -138.384 520.127 -140.207 517.162C-141.12 515.581 -141.689 513.823 -141.876 512.004C-142.477 507.475 -142.146 502.935 -142.142 498.406C-142.1 495.932 -141.473 493.504 -140.311 491.323C-139.486 489.803 -138.341 488.482 -136.957 487.453C-135.94 486.672 -134.839 486.01 -133.675 485.479C-132.063 484.676 -130.287 484.266 -128.49 484.281C-125.929 484.334 -123.369 484.248 -120.829 484.22L-118.006 484.187C-117.301 484.216 -116.591 484.269 -115.886 484.269C-61.1581 484.269 -6.43053 484.269 48.297 484.269C49.0067 484.269 49.7163 484.269 50.4259 484.269C51.3291 484.269 52.2323 484.313 53.1314 484.313H116.208C116.954 484.313 117.724 484.204 118.514 484.476C118.442 484.756 118.454 484.983 118.349 485.097C117.085 486.482 115.971 487.999 115.027 489.622C114.871 489.821 114.695 490.003 114.502 490.166Z" fill="#B75743"/>
<path d="M48.1519 460.168C47.9826 460.575 47.8334 461.005 47.6399 461.387C44.7503 467.39 44.6817 473.423 47.4342 479.488C47.6237 479.895 47.7971 480.301 47.9785 480.707L47.4544 481.113C46.8133 481.133 46.1722 481.174 45.5311 481.174H-3.6592C-4.30029 481.174 -4.94136 481.133 -5.58244 481.113L-5.96145 480.772C-5.96145 476.682 -5.99371 472.592 -5.99371 468.502C-5.99371 465.712 -5.96146 462.922 -5.94533 460.132L48.1519 460.168Z" fill="#F9E0B2"/>
<path d="M47.4543 481.141L47.9785 480.735L48.164 481.202L47.4543 481.141Z" fill="#F9DFB1"/>
<path d="M-5.92117 454.052C-5.9494 451.526 -5.98569 449 -6.00585 446.473C-6.02601 443.651 -7.51382 441.921 -10.316 441.839C-13.6586 441.742 -17.0051 441.839 -20.3476 441.88C-21.6339 441.851 -22.9201 441.758 -24.2022 441.819C-24.8339 441.896 -25.4484 442.079 -26.0206 442.359C-26.319 442.481 -26.5085 442.765 -26.2061 443.289C-24.1901 443.322 -22.0733 443.362 -19.9646 443.253C-19.7037 443.372 -19.4861 443.571 -19.3417 443.82C-19.1973 444.07 -19.1332 444.358 -19.1582 444.646C-19.1905 447.787 -19.2214 450.926 -19.2509 454.064L-45.3702 454.036C-46.0153 454.036 -46.6604 454.036 -47.3055 454.036C-52.9181 453.967 -58.4782 449.255 -58.6596 442.493C-58.7432 441 -58.6074 439.503 -58.2564 438.05C-56.8009 432.673 -51.9343 429.375 -47.3781 429.302C-46.733 429.302 -46.0879 429.281 -45.4428 429.281H39.8782C40.5838 429.281 41.2934 429.314 42.0031 429.33C41.3459 431.292 40.5556 433.221 40.0597 435.223C38.6807 440.739 39.1565 446.161 41.1886 451.469C41.5112 452.314 41.8324 453.16 42.1523 454.007C41.3822 454.028 40.612 454.068 39.8379 454.068L-5.92117 454.052Z" fill="#F9E0B2"/>
<path d="M114.462 518.181C114.715 518.371 114.947 518.589 115.152 518.831C116.199 520.495 117.354 522.086 118.611 523.595C118.672 523.707 118.713 523.83 118.732 523.957C117.962 523.993 117.192 524.066 116.426 524.066C103.486 524.066 90.5483 524.066 77.6137 524.066C76.8436 524.066 76.0735 524.107 75.3034 524.127C74.497 523.234 73.6905 522.369 72.9245 521.439C72.0898 520.411 71.3117 519.323 70.5375 518.258C71.3681 518.23 72.2028 518.177 73.0374 518.177L114.462 518.181Z" fill="#B75743"/>
<path d="M47.0553 508.795H35.4391L35.0359 508.491C34.9432 506.485 35.8423 505.181 37.7333 504.535L38.5115 504.295H40.8661C41.8378 504.75 42.8015 505.234 43.7853 505.66C44.9707 506.176 45.894 507.069 46.9303 507.8C47.3214 508.068 47.2811 508.426 47.0553 508.795Z" fill="#1C4655"/>
<path d="M125.227 523.993C125.49 523.684 125.752 523.648 126.034 523.993H125.227Z" fill="#B75743"/>
<path d="M-5.95744 460.168V457.094C-5.18733 457.094 -4.41319 457.094 -3.63905 457.094C11.11 457.094 25.859 457.094 40.6081 457.094C41.4427 457.094 42.2773 457.021 43.1119 456.98H50.0469C50.3695 457.484 50.0469 457.679 49.8816 457.918L48.1519 460.168H-5.95744Z" fill="#86B0F1"/>
<path d="M43.1079 456.952C42.2733 456.992 41.4387 457.065 40.6041 457.065C25.855 457.065 11.106 457.065 -3.64301 457.065C-4.41716 457.065 -5.1913 457.065 -5.96141 457.065C-5.96141 456.053 -5.94798 455.042 -5.9211 454.032H39.838C40.6121 454.032 41.3822 453.991 42.1523 453.971C42.4305 454.405 42.7087 454.836 42.9829 455.274C43.1398 455.522 43.2334 455.804 43.2552 456.097C43.277 456.39 43.2264 456.684 43.1079 456.952Z" fill="#38558A"/>
<path d="M35.0358 508.499L35.439 508.804C35.189 508.852 35.0358 508.775 35.0358 508.499Z" fill="#375985"/>
<path d="M523.377 108.479L518.584 109.153L518.043 109.334C516.147 109.282 514.278 109.798 512.673 110.816C512.888 111.5 513.494 111.449 513.92 111.662C514.347 111.874 514.741 111.962 515.149 112.124C516.114 112.457 517.057 112.849 517.974 113.297C519.731 114.277 520.084 115.528 519.181 117.358C518.813 118.074 518.396 118.764 517.933 119.423C516.192 121.881 514.135 124.096 511.815 126.01C509.522 127.955 506.771 128.893 503.945 129.743C503.106 129.997 502.258 130.205 501.414 130.445L500.919 130.639C499.414 130.879 497.906 131.101 496.401 131.364C495.382 131.555 494.338 131.567 493.315 131.401C492.806 130.357 493.076 129.249 493.04 128.168C492.965 127.11 493.004 126.048 493.154 124.999L498.378 124.661L498.896 124.523C500.284 124.537 501.664 124.299 502.969 123.821C505.12 123.137 507.238 122.338 509.389 121.589L509.848 121.363C511.514 120.91 513.118 120.253 514.627 119.409L513.448 118.758C511.898 117.88 510.183 117.344 508.729 116.24C507.958 115.653 506.894 115.473 505.94 115.113L505.45 114.914L502.409 114.803L500.024 114.715C499.689 113.473 500.52 112.738 501.024 112.078C501.808 111.057 502.666 110.008 503.918 109.449C504.184 109.327 504.421 109.147 504.61 108.922C506.124 107.098 508.165 106.183 510.343 105.495L510.536 105.536L510.682 105.384L512.1 105.065L512.485 104.959L514.296 104.635L514.709 104.525L519.603 103.702L519.951 103.619L523.492 102.912L523.895 102.764C524.955 102.732 525.363 101.896 525.766 101.129C526.413 99.8957 526.968 98.6115 527.601 97.2302C529.435 95.7843 531.728 95.8998 533.985 96.1585C534.966 96.274 535.319 96.7821 535.402 97.8123C535.521 99.2217 535.114 100.625 534.26 101.748C532.815 103.71 530.917 105.286 528.729 106.34C527.165 107.116 525.482 107.652 523.854 108.299L523.377 108.479Z" fill="#56C1A8"/>
<path d="M509.793 146.646C509.394 146.535 508.839 146.526 508.495 146.253C507.703 145.607 506.802 145.11 505.835 144.784C505.216 144.581 504.872 143.86 505.202 143.398C506.491 141.661 507.284 139.564 509.013 137.957C510.605 138.419 511.976 139.375 513.37 140.211C513.104 141.8 512.343 143.172 509.793 146.646Z" fill="#56C1A8"/>
<path d="M459 92.1886C459.252 91.5112 459.297 90.9485 459.612 90.6207C461.327 88.8179 461.734 86.873 460.544 84.6605C460.379 84.2027 460.271 83.7277 460.224 83.2456C460.796 83.2073 461.27 83.0216 461.591 83.1746C464.158 84.3928 466.48 84.3273 468.567 82.2349C468.79 82.0055 469.368 82.0929 470.008 82C470.008 83.0926 470.134 84.0705 470.06 85.0047C470.006 85.5277 470.107 86.0546 470.35 86.5258C470.594 86.997 470.971 87.3936 471.438 87.6706C471.884 87.9766 472.37 88.217 472.782 88.5666C473.194 88.9162 473.502 89.2986 474 89.8067C473.661 90.1155 473.302 90.4037 472.925 90.6698C472.685 90.8014 472.417 90.8798 472.141 90.8993C469.854 91.1342 468.607 92.3525 468.281 94.5432C468.196 95.0895 467.995 95.7997 467.258 95.969C466.429 96.1602 466.24 95.4227 465.851 94.9638C465.723 94.8405 465.613 94.7008 465.525 94.5486C464.684 92.8223 463.283 92.1667 461.322 92.3634C460.544 92.3757 459.766 92.3171 459 92.1886Z" fill="#9EC3F9"/>
<path d="M42 139V137.457L45.2549 137.276L46.9931 133.693L51.1867 134.406C52.1688 133.343 52.0297 131.839 52.6772 130.564C54.2199 130.504 55.6758 131.476 57.3402 131.186C57.9094 130.357 58.4874 129.523 59.1306 128.594L62.581 128.887C62.7852 128.533 63.0504 128.071 63.3198 127.591C63.6587 127.025 64.0411 126.873 64.5018 127.103C64.9624 127.332 65.1232 127.734 64.9015 128.339C64.6191 129.108 64.2628 129.851 63.9499 130.581C62.694 131.014 61.5207 130.504 60.3256 130.651C59.513 130.975 59.2044 131.804 58.7133 132.448C58.4983 132.762 58.1925 133.004 57.8363 133.142C57.4801 133.279 57.0904 133.305 56.7187 133.218C55.8496 133.079 55.0152 132.561 53.9114 132.881L52.5469 136.511L48.2403 135.737C47.2104 136.601 47.2278 138.049 46.2892 138.978L42 139Z" fill="#F48F82"/>
<path d="M95.701 107.759C95.2013 109.34 94.7801 110.709 94.3365 112.071C94.1713 112.581 93.9724 113.079 93.7413 113.563C93.5762 113.777 93.3394 113.924 93.0743 113.978C92.8091 114.031 92.5336 113.988 92.2982 113.854C92.0997 113.693 91.9257 113.505 91.7816 113.294C90.7596 111.853 89.7432 110.406 88.6426 108.841C86.5987 108.359 84.3189 109.049 82.1794 108.449C82.0089 108.062 81.9584 107.633 82.0345 107.217C82.1105 106.801 82.3097 106.418 82.6062 106.116C83.5945 104.866 84.5154 103.559 85.5205 102.191C85.0376 100.638 84.5547 99.107 84.0943 97.5706C83.9202 97.0099 83.4597 96.3762 84.0943 95.8491C84.7288 95.3221 85.2847 95.6922 85.8743 95.8996C86.8064 96.2249 87.7442 96.5388 88.6819 96.8529C89.1087 96.9986 89.5298 97.1557 89.9622 97.2734C90.2201 97.3493 90.4932 97.3571 90.7549 97.2962C91.0167 97.2353 91.2582 97.1076 91.4559 96.9258C92.2476 96.2304 93.0675 95.5632 93.848 94.8566C94.2291 94.5086 94.6872 94.2556 95.1849 94.1182C95.6826 93.9808 96.2058 93.9629 96.7118 94.066C96.8525 94.5578 96.952 95.0605 97.0094 95.5688C97.0609 96.7333 97.0421 97.8999 96.9532 99.0622C96.8612 99.6837 96.9707 100.318 97.2657 100.873C97.5608 101.428 98.0258 101.874 98.5929 102.146C99.2892 102.544 99.9237 103.049 100.581 103.509C100.877 103.712 101.162 103.931 101.434 104.165C102.26 104.871 102.181 105.612 101.204 105.987C100.227 106.363 99.3341 106.61 98.3964 106.901C97.5597 107.204 96.7062 107.451 95.701 107.759Z" fill="#F47559"/>
<path d="M95.21 326.571H91.38C89.2067 323.213 87.08 319.906 85 316.649C86.42 314.987 86.42 314.987 89.13 314L93.82 320.739C97.56 321.847 101.2 319.369 105.27 319.953C107.55 323.076 108.12 327.266 110.69 330.701L116.97 329.14C118.72 330.358 118.47 332.02 118.45 333.612L117.32 334.337L107.45 337.006C106.58 334.891 105.71 332.746 104.81 330.61C104.408 329.575 103.944 328.566 103.42 327.588C103.104 326.846 102.54 326.239 101.826 325.871C101.112 325.503 100.293 325.398 99.51 325.574C98.43 325.795 97.35 325.987 96.26 326.178L95.21 326.571Z" fill="#56C1A8"/>
<path d="M548.59 306.105C545.34 305.328 542.591 304.988 540.094 303.454C539.428 300.19 541.135 297.742 542.987 295.527C544.379 294.095 545.9 292.794 547.529 291.642C548.792 290.762 549.988 289.788 551.107 288.727C554 285.473 553.122 282.316 548.956 280.956C547.654 280.539 546.256 280.461 544.915 280.169C544.078 280.023 543.31 279.609 542.724 278.991C542.137 278.372 541.763 277.58 541.656 276.731C541.463 275.886 541.589 274.999 542.01 274.243C542.431 273.487 543.116 272.916 543.932 272.641C545.06 272.165 546.279 271.95 547.5 272.01C551.496 272.229 555.387 273.386 558.86 275.39C563.759 278.411 564.897 282.734 563.421 288.242C562.817 290.68 561.332 292.803 559.255 294.196C558.224 294.876 557.327 295.789 556.304 296.421C552.688 298.694 549.795 301.55 548.59 306.105Z" fill="#F7CD82"/>
<path d="M541.241 320.482C537.827 320.822 534.915 317.801 535.002 314.11C535.089 312.489 535.735 310.95 536.828 309.758C537.921 308.567 539.394 307.797 540.99 307.582C544.337 307.31 547.162 310.399 547.374 314.022C547.596 317.801 544.481 320.9 541.241 320.482Z" fill="#F7CD82"/>
</g>
<defs>
<linearGradient id="paint0_linear_446_4562" x1="486.432" y1="399.895" x2="611.512" y2="498.805" gradientUnits="userSpaceOnUse">
<stop offset="0.01" stop-color="#F39008"/>
<stop offset="1" stop-color="#EE6C10"/>
</linearGradient>
<linearGradient id="paint1_linear_446_4562" x1="55.478" y1="475.074" x2="135.695" y2="373.256" gradientUnits="userSpaceOnUse">
<stop stop-color="#F0780F"/>
<stop offset="0.52" stop-color="#F4910A"/>
</linearGradient>
<linearGradient id="paint2_linear_446_4562" x1="111.16" y1="512.503" x2="155.129" y2="512.503" gradientUnits="userSpaceOnUse">
<stop offset="0.01" stop-color="#F39008"/>
<stop offset="1" stop-color="#EE6C10"/>
</linearGradient>
<linearGradient id="paint3_linear_446_4562" x1="8.07391" y1="400.092" x2="10.3894" y2="316.632" gradientUnits="userSpaceOnUse">
<stop stop-color="#EF7210"/>
<stop offset="1" stop-color="#ED6811"/>
</linearGradient>
<clipPath id="clip0_446_4562">
<rect width="600" height="545" fill="white"/>
</clipPath>
</defs>
</svg>
