<svg width="425" height="760" viewBox="0 0 425 760" fill="none" xmlns="http://www.w3.org/2000/svg">
<g clipPath="url(#clip0_441_4379)">
<path d="M46 105.877V104.314L49.8426 104.13L51.8947 100.499L56.8454 101.221C58.0049 100.144 57.8407 98.6197 58.6051 97.3276C60.4263 97.2663 62.145 98.2518 64.1099 97.9583C64.782 97.1174 65.4643 96.272 66.2236 95.3303L70.297 95.6282C70.5381 95.269 70.8511 94.8004 71.1692 94.3142C71.5693 93.7404 72.0208 93.5871 72.5646 93.8193C73.1084 94.0514 73.2982 94.4587 73.0366 95.0719C72.7031 95.8516 72.2824 96.6049 71.9131 97.3451C70.4304 97.7831 69.0452 97.2663 67.6344 97.4152C66.6751 97.7437 66.3108 98.5847 65.731 99.2373C65.4772 99.5556 65.1161 99.8005 64.6957 99.9397C64.2752 100.079 63.8151 100.106 63.3763 100.017C62.3502 99.8768 61.3652 99.3512 60.0621 99.6753L58.4512 103.354L53.3671 102.57C52.1512 103.446 52.1717 104.914 51.0636 105.855L46 105.877Z" fill="#F48F82"/>
<path d="M300.667 54.3261C300.964 53.6395 301.018 53.0693 301.389 52.7371C303.414 50.9099 303.894 48.9388 302.49 46.6964C302.294 46.2324 302.167 45.751 302.111 45.2624C302.787 45.2236 303.347 45.0354 303.725 45.1904C306.756 46.4251 309.497 46.3587 311.961 44.2381C312.225 44.0055 312.907 44.0941 313.663 44C313.663 45.1074 313.811 46.0984 313.724 47.0452C313.66 47.5753 313.779 48.1093 314.066 48.5869C314.354 49.0644 314.799 49.4664 315.351 49.7472C315.877 50.0572 316.451 50.3009 316.937 50.6552C317.423 51.0096 317.788 51.3972 318.375 51.9121C317.975 52.225 317.551 52.5172 317.106 52.7869C316.823 52.9202 316.507 52.9997 316.181 53.0194C313.48 53.2575 312.009 54.4922 311.624 56.7125C311.523 57.2661 311.286 57.9859 310.415 58.1576C309.437 58.3513 309.214 57.6039 308.755 57.1388C308.603 57.0139 308.474 56.8722 308.37 56.718C307.377 54.9684 305.723 54.304 303.408 54.5033C302.489 54.5157 301.571 54.4564 300.667 54.3261Z" fill="#9EC3F9"/>
<path d="M86.4285 683.158H81.907C79.3412 679.755 76.8306 676.403 74.375 673.102C76.0514 671.418 76.0514 671.418 79.2507 670.417L84.7875 677.247C89.2028 678.37 93.5 675.858 98.3049 676.45C100.997 679.615 101.669 683.862 104.703 687.343L112.117 685.761C114.183 686.996 113.888 688.681 113.865 690.294L112.531 691.029L100.878 693.734C99.8514 691.59 98.8243 689.416 97.7618 687.251C97.2871 686.203 96.7391 685.18 96.1208 684.189C95.7472 683.437 95.0815 682.821 94.2387 682.448C93.3958 682.075 92.4289 681.969 91.5049 682.147C90.2299 682.372 88.9549 682.566 87.6681 682.76L86.4285 683.158Z" fill="#56C1A8"/>
<path d="M156.529 635.57C152.693 634.782 149.448 634.438 146.499 632.882C145.714 629.574 147.729 627.093 149.915 624.849C151.559 623.397 153.354 622.079 155.277 620.911C156.768 620.019 158.18 619.032 159.501 617.957C162.916 614.659 161.88 611.46 156.962 610.081C155.425 609.658 153.774 609.579 152.192 609.284C151.204 609.135 150.297 608.716 149.604 608.089C148.912 607.462 148.47 606.659 148.344 605.799C148.116 604.943 148.265 604.044 148.762 603.278C149.258 602.511 150.067 601.933 151.031 601.654C152.362 601.172 153.801 600.953 155.243 601.014C159.961 601.236 164.554 602.409 168.654 604.44C174.438 607.502 175.781 611.883 174.039 617.465C173.326 619.936 171.572 622.088 169.121 623.5C167.903 624.189 166.844 625.115 165.637 625.754C161.368 628.058 157.952 630.953 156.529 635.57Z" fill="#F7CD82"/>
<path d="M147.854 650.14C143.824 650.485 140.386 647.423 140.488 643.682C140.591 642.04 141.353 640.48 142.644 639.272C143.935 638.064 145.673 637.284 147.558 637.066C151.509 636.791 154.844 639.921 155.095 643.594C155.357 647.423 151.679 650.564 147.854 650.14Z" fill="#F7CD82"/>
<path d="M109.591 53.9449C109.001 55.5475 108.504 56.9342 107.98 58.3152C107.785 58.8318 107.551 59.3368 107.278 59.8269C107.083 60.0438 106.803 60.1931 106.49 60.2474C106.177 60.3017 105.852 60.2573 105.574 60.1224C105.34 59.9593 105.134 59.7679 104.964 59.5541C103.758 58.0935 102.558 56.6273 101.258 55.0417C98.8455 54.553 96.1541 55.252 93.6284 54.6439C93.427 54.2518 93.3674 53.817 93.4572 53.3956C93.547 52.9742 93.7821 52.5855 94.1322 52.2798C95.2989 51.0125 96.3861 49.6883 97.5727 48.3016C97.0026 46.7274 96.4325 45.176 95.8889 43.6188C95.6834 43.0505 95.1398 42.4083 95.8889 41.8741C96.638 41.3399 97.2943 41.715 97.9903 41.9253C99.0908 42.2549 100.198 42.5731 101.305 42.8914C101.809 43.0391 102.306 43.1982 102.816 43.3176C103.121 43.3945 103.443 43.4024 103.752 43.3407C104.061 43.2789 104.346 43.1496 104.58 42.9652C105.514 42.2605 106.482 41.5843 107.404 40.8682C107.854 40.5155 108.394 40.2591 108.982 40.1198C109.57 39.9805 110.187 39.9624 110.785 40.0669C110.951 40.5654 111.068 41.0748 111.136 41.59C111.197 42.7702 111.175 43.9525 111.07 45.1305C110.961 45.7604 111.09 46.4035 111.439 46.9659C111.787 47.5283 112.336 47.9804 113.005 48.2562C113.827 48.6597 114.576 49.1711 115.352 49.6371C115.702 49.8428 116.038 50.0648 116.36 50.3021C117.334 51.0182 117.241 51.7683 116.088 52.1491C114.934 52.5299 113.88 52.7799 112.773 53.0754C111.786 53.3823 110.778 53.6323 109.591 53.9449Z" fill="#F47559"/>
<path d="M425 629.686V757.262L424.099 757.672L415.887 758.033C415.682 757.925 415.445 757.872 415.205 757.878C414.965 757.885 414.732 757.951 414.535 758.07C410.375 758.222 406.21 758.353 402.05 758.534C398.042 758.702 394.033 758.944 390.025 759.112C385.485 759.309 380.941 759.416 376.406 759.654C368.156 760.093 359.897 760.064 351.639 760.134C344.366 760.187 337.094 760.105 329.817 760.076C329.343 760.076 328.911 760.015 328.461 759.986L322.526 760.064L319.813 760.019L308.869 759.658L307.973 759.633L300.24 759.272L299.344 759.239C296.023 758.993 292.703 758.78 289.382 758.485C283.962 758.003 278.543 757.492 273.125 756.95C267.864 756.405 262.645 755.592 257.495 754.514C254.016 753.862 250.612 752.941 247.324 751.761C245.521 751.088 243.777 750.303 242.106 749.411C240.965 748.769 239.933 747.991 239.042 747.101C237.215 745.337 236.864 743.249 237.775 741.046C238.142 740.188 238.633 739.374 239.236 738.622C240.365 737.199 242.557 735.751 244.35 734.93C248.842 732.879 253.69 731.903 258.667 731.32C260.839 731.066 263.036 730.984 265.222 730.808C265.972 730.746 266.717 730.635 267.466 730.545H276.119C276.554 730.647 276.998 730.717 277.447 730.754C284.648 730.935 291.759 731.829 298.865 732.736L303.224 733.482C301.588 732.813 300.34 732.219 298.907 732.03C297.053 731.296 295.193 730.57 293.348 729.823C292.736 729.577 292.162 729.273 291.569 729.003C291.066 728.883 290.574 728.735 290.094 728.56C285.497 726.566 280.91 724.552 276.337 722.554C274.482 721.734 272.613 720.987 270.749 720.204L270.175 719.957C269.349 719.137 268.107 718.92 267.091 718.37C266.47 718.038 265.73 717.857 265.161 717.279L269.316 714.793C269.524 714.758 269.724 714.694 269.909 714.604C270.085 714.473 270.483 714.436 270.279 713.997L269.288 714.087L263.387 714.37L261.584 714.419C260.317 714.37 258.97 714.534 257.789 714.206C256.717 713.907 255.849 713.07 254.886 712.479C254.066 711.928 253.148 711.496 252.168 711.199C252.163 711.142 252.139 711.088 252.1 711.042C252.06 710.996 252.006 710.961 251.945 710.941C251.783 710.728 251.679 710.453 251.47 710.321C249.983 709.363 248.659 708.228 247.538 706.95C246.941 706.298 246.461 705.572 246.115 704.796C245.009 702.302 245.688 700.156 247.789 698.327C248.909 697.288 250.309 696.504 251.864 696.046C255.067 695.139 258.429 694.722 261.797 694.815C263.04 695.882 263.496 697.482 264.644 698.676C264.67 698.954 264.779 699.221 264.96 699.452C265.141 699.682 265.389 699.869 265.678 699.992C265.611 699.459 265.559 699.037 265.507 698.61C265.564 697.453 264.952 696.317 265.36 695.021C265.72 695.021 266.076 694.959 266.432 694.963C269.99 695.008 273.548 695.135 277.105 695.094C285.816 694.943 294.489 696.127 302.721 698.593C303.196 698.741 303.737 698.844 304.249 698.967C304.723 699.43 305.378 699.451 306.014 699.529C307.622 700.297 309.361 700.843 311.165 701.145C309.714 700.325 308.319 699.434 306.611 699.049L303.936 697.74C301.602 696.415 299.263 695.103 296.948 693.753C296.438 693.471 296.001 693.099 295.667 692.662C295.127 691.886 294.719 691.021 294.216 690.139C294.559 689.873 294.927 689.631 295.316 689.417C296.185 689.007 297.081 688.675 297.968 688.305C300.544 687.526 300.544 687.526 301.488 686.619L297.973 686.783C296.64 686.751 295.312 686.701 293.984 686.693C293.325 686.706 292.672 686.576 292.086 686.316C291.855 686.216 291.662 686.063 291.527 685.873C291.392 685.683 291.321 685.464 291.322 685.241C289.529 683.665 287.868 681.98 286.351 680.2C285.08 678.768 283.775 677.361 282.651 675.835C280.702 673.285 279.01 670.595 277.594 667.795C276.804 666.164 276.242 664.458 275.919 662.712C275.694 661.478 275.793 660.216 276.209 659.02C276.438 658.186 276.937 657.425 277.647 656.827C278.358 656.229 279.251 655.819 280.222 655.644C281.779 655.342 283.387 655.291 284.966 655.492C288.194 655.852 291.365 656.524 294.42 657.494C300.236 659.348 306.009 661.305 311.806 663.204C312.204 663.308 312.57 663.487 312.877 663.729C313.184 663.971 313.424 664.27 313.58 664.603C314.011 665.575 314.472 666.535 314.917 667.503L317.047 671.101L317.588 672.656C317.588 672.779 317.588 672.947 317.664 673.021C317.74 673.095 318.053 673.304 318.138 673.259C318.504 673.107 318.418 672.877 318.138 672.68L317.868 671.039C317.683 669.226 317.498 667.417 317.299 665.44C317.766 665.481 318.228 665.558 318.679 665.67C321.412 666.634 324.101 667.688 326.853 668.59C331.596 670.149 336.34 671.745 341.368 672.434C342.259 672.605 343.184 672.584 344.063 672.373C345.05 672.09 345.448 671.519 345.054 670.732C344.697 670.085 344.29 669.46 343.835 668.861C343.354 668.277 342.914 667.669 342.516 667.04C340.344 662.938 338.209 658.815 336.07 654.701C335.992 654.519 335.929 654.332 335.88 654.143C334.566 651.497 333.204 648.867 331.952 646.201C328.084 638.155 324.742 629.926 321.943 621.555C320.694 617.844 319.743 614.062 319.097 610.238C318.703 607.766 318.632 605.265 318.883 602.78C319.049 601.172 319.799 599.748 320.6 598.341C320.897 597.972 321.306 597.679 321.782 597.496C323.727 596.545 325.828 596.528 327.948 596.811C332.747 597.49 337.365 598.91 341.582 601.004C346.392 603.376 350.894 606.187 355.011 609.388C355.361 609.637 355.641 609.951 355.83 610.306C356.02 610.661 356.115 611.048 356.107 611.44C356.14 612.67 356.226 613.93 356.287 615.172V616.912C356.567 616.791 356.807 616.611 356.984 616.389C357.162 616.167 357.271 615.909 357.303 615.64L359.2 613.068C359.514 613.24 359.813 613.431 360.097 613.638C361.558 614.869 363.012 616.109 364.461 617.359C364.684 617.535 364.874 617.74 365.025 617.966C366.135 619.865 368.227 621.063 369.598 622.778C369.983 623.166 370.415 623.517 370.889 623.824C370.863 623.943 370.869 624.066 370.905 624.183C370.941 624.301 371.007 624.41 371.098 624.502C371.189 624.595 371.302 624.669 371.43 624.719C371.558 624.769 371.697 624.794 371.837 624.792C371.942 625.473 372.544 625.822 373.09 626.203C373.116 626.331 373.116 626.461 373.09 626.589L374.1 627.261C374.897 628.381 375.637 629.542 377.027 630.223C377.243 630.91 377.639 631.544 378.184 632.077C378.488 632.726 378.868 633.279 380.082 633.247L379.366 632.106L378.042 630.096C377.824 629.546 377.644 628.984 377.378 628.455C376.23 626.101 375.054 623.758 373.901 621.404C373.744 621.038 373.611 620.666 373.502 620.288C373.359 620.14 373.234 619.979 373.132 619.808C369.85 612.76 366.923 605.606 365.096 598.157C364.47 595.601 364.1 593 363.673 590.412C363.625 589.806 363.625 589.197 363.673 588.591C365.571 588.049 367.573 588.18 369.461 587.77C369.755 587.877 370.077 587.877 370.101 587.561C370.101 587.434 369.731 587.29 369.532 587.151C367.695 585.891 365.779 584.72 363.792 583.644C363.715 583.483 363.679 583.309 363.688 583.135C363.937 580.784 364.618 578.483 365.704 576.317C366.965 573.905 369.152 572.215 371.349 570.5C374.982 568.982 378.682 568.068 382.734 569.311C384.808 569.949 386.761 570.849 388.53 571.981C391.443 573.879 394.059 576.095 396.315 578.573C397.738 580.103 399.061 581.703 400.432 583.274C400.474 583.588 400.459 583.904 400.39 584.214C399.858 585.444 399.996 586.7 399.977 587.955C399.911 587.984 399.806 588 399.782 588.049C398.943 589.715 398.772 591.487 398.672 593.32C399.707 592.588 400.594 591.713 401.301 590.732C401.429 590.543 401.301 590.232 401.301 589.973C401.955 589.973 402.363 589.612 402.837 589.288C403.981 588.505 404.412 588.652 404.986 589.961C405.294 590.141 405.567 590.361 405.798 590.613C406.903 592.328 407.965 594.063 409.047 595.786C409.996 597.275 410.944 598.756 411.893 600.245C412.036 600.467 412.164 600.696 412.277 600.93C412.562 601.533 412.752 602.161 413.108 602.743C415.389 606.661 417.458 610.656 419.35 614.725C420.081 616.301 420.887 617.851 421.604 619.435C422.287 620.948 422.974 622.47 423.501 624.029C423.975 625.342 423.786 626.646 422.59 627.684C422.1 628.176 421.516 628.592 420.864 628.915C421.518 628.652 422.851 630.145 423.596 630.059C424.088 630.018 424.566 629.891 425 629.686Z" fill="url(#paint0_linear_441_4379)"/>
<path d="M425 562.37V587.565C424.307 587.028 424.132 586.244 423.8 585.555C422.078 582.003 420.356 578.454 418.748 574.865C417.574 572.317 416.695 569.674 416.124 566.976C415.939 565.752 415.826 564.519 415.788 563.285C415.781 563.023 415.809 562.762 415.868 562.505C416.158 561.057 417.206 560.286 418.885 560.499C420.148 560.679 421.389 560.962 422.59 561.344C423.42 561.638 424.225 561.981 425 562.37Z" fill="#EE6D10"/>
<path d="M422.628 589.284C423.407 589.439 424.201 589.528 425 589.551V629.686C424.56 629.892 424.075 630.017 423.577 630.055C422.832 630.129 421.499 628.648 420.844 628.911C421.497 628.588 422.081 628.172 422.571 627.68C423.767 626.642 423.933 625.338 423.482 624.025C422.946 622.466 422.258 620.944 421.584 619.43C420.868 617.847 420.062 616.296 419.331 614.721C417.434 610.652 415.37 606.656 413.088 602.739C412.752 602.16 412.543 601.508 412.258 600.926C412.145 600.692 412.016 600.463 411.874 600.241C410.925 598.752 409.977 597.271 409.028 595.782C407.946 594.059 406.884 592.324 405.778 590.609C405.548 590.357 405.274 590.137 404.967 589.957C404.393 588.648 403.962 588.5 402.818 589.284C402.344 589.608 401.936 589.981 401.281 589.969L399.958 587.951C399.958 586.695 399.839 585.432 400.371 584.21C400.44 583.9 400.454 583.583 400.413 583.27C402.07 583.046 403.765 583.187 405.342 583.68C407.837 584.443 410.318 585.241 412.785 586.072C413.185 586.238 413.527 586.493 413.776 586.81C414.066 587.192 414.321 587.593 414.54 588.008C414.536 588.283 414.618 588.553 414.779 588.79C414.939 589.028 415.172 589.222 415.451 589.354C415.346 588.796 415.271 588.39 415.199 587.979C415.261 587.741 415.327 587.504 415.427 587.126C415.901 587.241 416.215 587.311 416.542 587.413C418.577 588.016 420.584 588.705 422.628 589.284Z" fill="#EE6D10"/>
<path d="M365.028 95.9444L359.371 96.6279L358.732 96.8105C356.493 96.7582 354.287 97.2812 352.392 98.3134C352.646 99.0064 353.361 98.9549 353.864 99.1702C354.368 99.3856 354.834 99.4746 355.315 99.6384C356.454 99.9766 357.567 100.374 358.651 100.828C360.724 101.82 361.141 103.089 360.074 104.943C359.64 105.669 359.148 106.369 358.602 107.036C356.546 109.528 354.117 111.773 351.379 113.712C348.672 115.683 345.424 116.634 342.088 117.495C341.098 117.753 340.096 117.964 339.1 118.207L338.515 118.404C336.739 118.647 334.958 118.872 333.182 119.139C331.979 119.332 330.746 119.344 329.538 119.176C328.937 118.118 329.257 116.994 329.213 115.899C329.126 114.827 329.171 113.75 329.349 112.687L335.516 112.345L336.127 112.205C337.766 112.219 339.395 111.978 340.935 111.493C343.475 110.8 345.976 109.99 348.515 109.232L349.057 109.002C351.023 108.543 352.918 107.878 354.698 107.022L353.307 106.362C351.477 105.472 349.452 104.929 347.736 103.81C346.826 103.215 345.57 103.033 344.444 102.668L343.864 102.466L340.275 102.354L337.459 102.265C337.064 101.006 338.044 100.261 338.64 99.5916C339.565 98.5569 340.578 97.4941 342.056 96.9276C342.371 96.8038 342.65 96.6216 342.874 96.3938C344.66 94.5445 347.07 93.6174 349.641 92.9198L349.869 92.962L350.042 92.8074L351.715 92.4844L352.17 92.3767L354.308 92.049L354.796 91.9366L360.573 91.1032L360.984 91.019L365.164 90.3026L365.64 90.1528C366.891 90.12 367.373 89.2726 367.849 88.4954C368.613 87.2453 369.268 85.9437 370.015 84.5438C372.181 83.0784 374.888 83.1954 377.552 83.4576C378.71 83.5747 379.127 84.0897 379.225 85.1338C379.366 86.5622 378.885 87.9847 377.876 89.1228C376.171 91.1111 373.93 92.7088 371.347 93.7766C369.501 94.5632 367.514 95.1063 365.592 95.7618L365.028 95.9444Z" fill="#56C1A8"/>
<path d="M348.992 134.627C348.52 134.514 347.865 134.505 347.459 134.229C346.524 133.574 345.46 133.07 344.319 132.74C343.588 132.534 343.182 131.803 343.572 131.335C345.093 129.575 346.03 127.449 348.071 125.82C349.95 126.288 351.569 127.257 353.215 128.105C352.901 129.715 352.002 131.106 348.992 134.627Z" fill="#56C1A8"/>
</g>
<defs>
<linearGradient id="paint0_linear_441_4379" x1="269.677" y1="629.276" x2="399.515" y2="748.872" gradientUnits="userSpaceOnUse">
<stop offset="0.01" stop-color="#F39008"/>
<stop offset="1" stop-color="#EE6C10"/>
</linearGradient>
<clipPath id="clip0_441_4379">
<rect width="425" height="760" fill="white" transform="matrix(1 0 0 -1 0 760)"/>
</clipPath>
</defs>
</svg>
