<svg width="1440" height="786" viewBox="0 0 1440 786" fill="none" xmlns="http://www.w3.org/2000/svg">
<g clipPath="url(#clip0_447_4622)">
<path d="M1460 532.762V759.975L1458.62 760.705L1446.07 761.348C1445.75 761.156 1445.39 761.06 1445.02 761.072C1444.66 761.083 1444.3 761.202 1444 761.414C1437.64 761.684 1431.27 761.918 1424.91 762.239C1418.78 762.539 1412.65 762.97 1406.52 763.27C1399.58 763.62 1392.63 763.81 1385.7 764.234C1373.09 765.016 1360.46 764.965 1347.83 765.089C1336.71 765.184 1325.59 765.038 1314.47 764.986C1313.74 764.986 1313.08 764.877 1312.39 764.826L1303.32 764.965L1299.17 764.884L1282.44 764.241L1281.07 764.197L1269.25 763.554L1267.88 763.496C1262.8 763.058 1257.72 762.678 1252.64 762.152C1244.36 761.295 1236.07 760.384 1227.79 759.419C1219.74 758.449 1211.76 757 1203.89 755.08C1198.57 753.919 1193.37 752.278 1188.34 750.177C1185.58 748.979 1182.92 747.58 1180.36 745.991C1178.62 744.848 1177.04 743.463 1175.68 741.878C1172.88 738.736 1172.35 735.018 1173.74 731.095C1174.3 729.566 1175.05 728.115 1175.97 726.777C1177.7 724.242 1181.05 721.663 1183.79 720.201C1190.66 716.549 1198.07 714.81 1205.68 713.772C1209 713.319 1212.36 713.173 1215.71 712.859C1216.85 712.749 1217.99 712.552 1219.14 712.391H1232.37C1233.03 712.573 1233.71 712.697 1234.4 712.764C1245.41 713.086 1256.28 714.678 1267.14 716.293L1273.81 717.623C1271.31 716.432 1269.4 715.372 1267.21 715.036C1264.37 713.728 1261.53 712.435 1258.71 711.106C1257.77 710.667 1256.89 710.127 1255.99 709.645C1255.22 709.432 1254.47 709.168 1253.73 708.855C1246.7 705.305 1239.69 701.718 1232.7 698.16C1229.86 696.698 1227.01 695.369 1224.15 693.973L1223.28 693.535C1222.02 692.074 1220.11 691.687 1218.56 690.708C1217.61 690.116 1216.48 689.794 1215.61 688.764L1221.96 684.337C1222.28 684.274 1222.59 684.161 1222.87 684.001C1223.14 683.767 1223.75 683.701 1223.44 682.92L1221.92 683.08L1212.9 683.584L1210.14 683.672C1208.21 683.584 1206.15 683.877 1204.34 683.292C1202.7 682.759 1201.37 681.269 1199.9 680.216C1198.65 679.235 1197.24 678.465 1195.74 677.937C1195.74 677.836 1195.7 677.738 1195.64 677.657C1195.58 677.575 1195.5 677.513 1195.4 677.477C1195.16 677.097 1195 676.607 1194.68 676.374C1192.4 674.666 1190.38 672.644 1188.67 670.368C1187.75 669.207 1187.02 667.914 1186.49 666.533C1184.8 662.091 1185.84 658.27 1189.05 655.011C1190.76 653.16 1192.9 651.765 1195.28 650.949C1200.18 649.333 1205.32 648.591 1210.47 648.757C1212.37 650.657 1213.06 653.506 1214.82 655.632C1214.86 656.127 1215.03 656.604 1215.3 657.014C1215.58 657.425 1215.96 657.757 1216.4 657.977C1216.3 657.028 1216.22 656.275 1216.14 655.515C1216.23 653.455 1215.29 651.431 1215.92 649.123C1216.47 649.123 1217.01 649.013 1217.55 649.02C1222.99 649.101 1228.43 649.327 1233.87 649.254C1247.19 648.984 1260.45 651.094 1273.04 655.486C1273.77 655.749 1274.59 655.932 1275.38 656.151C1276.1 656.977 1277.1 657.013 1278.07 657.152C1280.53 658.521 1283.19 659.492 1285.95 660.03C1283.73 658.569 1281.6 656.984 1278.99 656.297L1274.9 653.966C1271.33 651.607 1267.75 649.269 1264.21 646.865C1263.43 646.363 1262.77 645.7 1262.25 644.922C1261.43 643.541 1260.8 641.999 1260.04 640.429C1260.56 639.954 1261.12 639.524 1261.72 639.143C1263.05 638.412 1264.42 637.821 1265.77 637.163C1269.71 635.775 1269.71 635.775 1271.15 634.16L1265.78 634.453C1263.74 634.394 1261.71 634.306 1259.68 634.292C1258.67 634.314 1257.68 634.083 1256.78 633.62C1256.43 633.442 1256.13 633.169 1255.92 632.831C1255.72 632.492 1255.61 632.103 1255.61 631.706C1252.87 628.898 1250.33 625.897 1248.01 622.727C1246.07 620.177 1244.07 617.671 1242.35 614.953C1239.37 610.412 1236.79 605.621 1234.62 600.634C1233.41 597.73 1232.55 594.691 1232.06 591.582C1231.72 589.384 1231.87 587.137 1232.5 585.006C1232.85 583.52 1233.62 582.166 1234.7 581.101C1235.79 580.036 1237.15 579.305 1238.64 578.994C1241.02 578.456 1243.48 578.365 1245.89 578.723C1250.83 579.364 1255.68 580.56 1260.35 582.289C1269.24 585.591 1278.07 589.076 1286.93 592.458C1287.54 592.643 1288.1 592.962 1288.57 593.393C1289.04 593.824 1289.4 594.356 1289.64 594.95C1290.3 596.681 1291.01 598.391 1291.69 600.115L1294.94 606.522L1295.77 609.291C1295.77 609.51 1295.77 609.81 1295.89 609.941C1296 610.073 1296.48 610.445 1296.61 610.365C1297.17 610.095 1297.04 609.686 1296.61 609.335L1296.2 606.413C1295.92 603.183 1295.63 599.962 1295.33 596.44C1296.04 596.513 1296.75 596.65 1297.44 596.849C1301.62 598.566 1305.73 600.444 1309.94 602.051C1317.19 604.827 1324.44 607.669 1332.13 608.897C1333.49 609.2 1334.91 609.163 1336.25 608.787C1337.76 608.283 1338.37 607.267 1337.77 605.865C1337.22 604.713 1336.6 603.6 1335.9 602.533C1335.17 601.493 1334.49 600.41 1333.89 599.289C1330.56 591.984 1327.3 584.641 1324.03 577.313C1323.91 576.989 1323.81 576.657 1323.74 576.32C1321.73 571.607 1319.65 566.924 1317.73 562.176C1311.82 547.845 1306.71 533.191 1302.43 518.282C1300.52 511.672 1299.07 504.937 1298.08 498.125C1297.48 493.724 1297.37 489.269 1297.75 484.843C1298 481.979 1299.15 479.444 1300.38 476.938C1300.83 476.279 1301.46 475.759 1302.18 475.433C1305.16 473.738 1308.37 473.709 1311.61 474.213C1318.95 475.422 1326.01 477.951 1332.46 481.68C1339.81 485.904 1346.69 490.91 1352.99 496.613C1353.52 497.056 1353.95 497.614 1354.24 498.246C1354.53 498.879 1354.68 499.569 1354.66 500.266C1354.72 502.457 1354.85 504.7 1354.94 506.914V510.012C1355.37 509.797 1355.73 509.477 1356.01 509.081C1356.28 508.685 1356.44 508.226 1356.49 507.747L1359.39 503.166C1359.87 503.473 1360.33 503.812 1360.76 504.182C1363 506.373 1365.22 508.582 1367.44 510.808C1367.78 511.122 1368.07 511.487 1368.3 511.889C1370 515.272 1373.2 517.405 1375.29 520.459C1375.88 521.151 1376.54 521.776 1377.27 522.322C1377.23 522.535 1377.24 522.753 1377.29 522.962C1377.35 523.171 1377.45 523.365 1377.59 523.53C1377.72 523.695 1377.9 523.827 1378.09 523.916C1378.29 524.005 1378.5 524.05 1378.72 524.046C1378.88 525.259 1379.8 525.88 1380.63 526.559C1380.67 526.787 1380.67 527.019 1380.63 527.246L1382.18 528.444C1383.39 530.439 1384.53 532.506 1386.65 533.719C1386.98 534.942 1387.59 536.072 1388.42 537.021C1388.88 538.176 1389.46 539.162 1391.32 539.104L1390.23 537.073L1388.2 533.493C1387.87 532.514 1387.59 531.513 1387.19 530.57C1385.43 526.377 1383.63 522.205 1381.87 518.012C1381.63 517.361 1381.43 516.698 1381.26 516.024C1381.04 515.762 1380.85 515.475 1380.7 515.17C1375.68 502.618 1371.2 489.877 1368.41 476.609C1367.45 472.058 1366.89 467.426 1366.23 462.816C1366.16 461.736 1366.16 460.652 1366.23 459.572C1369.13 458.608 1372.2 458.841 1375.08 458.111C1375.53 458.301 1376.02 458.301 1376.06 457.738C1376.06 457.512 1375.5 457.256 1375.19 457.008C1372.38 454.763 1369.45 452.678 1366.41 450.761C1366.3 450.474 1366.24 450.165 1366.26 449.855C1366.64 445.669 1367.68 441.57 1369.34 437.713C1371.27 433.417 1374.61 430.407 1377.97 427.353C1383.52 424.65 1389.18 423.021 1395.38 425.234C1398.55 426.371 1401.53 427.974 1404.24 429.991C1408.69 433.371 1412.69 437.317 1416.14 441.731C1418.32 444.456 1420.34 447.305 1422.44 450.104C1422.5 450.661 1422.48 451.226 1422.37 451.777C1421.56 453.968 1421.77 456.204 1421.74 458.44C1421.64 458.491 1421.48 458.52 1421.44 458.608C1420.16 461.574 1419.9 464.73 1419.75 467.996C1421.33 466.691 1422.68 465.134 1423.76 463.386C1423.96 463.05 1423.76 462.494 1423.76 462.034C1424.77 462.034 1425.39 461.391 1426.11 460.814C1427.86 459.419 1428.52 459.682 1429.4 462.012C1429.87 462.334 1430.29 462.725 1430.64 463.174C1432.33 466.228 1433.95 469.318 1435.61 472.387C1437.06 475.039 1438.51 477.676 1439.96 480.328C1440.18 480.724 1440.37 481.131 1440.55 481.548C1440.98 482.622 1441.27 483.74 1441.82 484.777C1445.31 491.754 1448.47 498.87 1451.36 506.118C1452.48 508.923 1453.71 511.685 1454.81 514.505C1455.85 517.201 1456.9 519.911 1457.71 522.687C1458.43 525.025 1458.14 527.348 1456.32 529.197C1455.57 530.074 1454.67 530.815 1453.68 531.389C1454.68 530.921 1456.71 533.58 1457.85 533.427C1458.61 533.354 1459.34 533.127 1460 532.762Z" fill="url(#paint0_linear_447_4622)"/>
<path d="M1456.37 460.807C1457.56 461.083 1458.78 461.242 1460 461.282V532.762C1459.33 533.129 1458.59 533.352 1457.82 533.42C1456.69 533.551 1454.65 530.914 1453.65 531.381C1454.64 530.808 1455.54 530.066 1456.29 529.19C1458.11 527.341 1458.37 525.018 1457.68 522.68C1456.86 519.904 1455.81 517.193 1454.78 514.497C1453.68 511.677 1452.45 508.916 1451.33 506.11C1448.43 498.863 1445.28 491.747 1441.79 484.77C1441.27 483.74 1440.95 482.578 1440.52 481.541C1440.34 481.124 1440.15 480.716 1439.93 480.321C1438.48 477.669 1437.03 475.031 1435.58 472.379C1433.93 469.311 1432.3 466.22 1430.61 463.166C1430.26 462.718 1429.84 462.326 1429.37 462.005C1428.49 459.674 1427.83 459.411 1426.09 460.807C1425.36 461.384 1424.74 462.049 1423.74 462.027L1421.71 458.432C1421.71 456.197 1421.53 453.946 1422.34 451.769C1422.45 451.218 1422.47 450.654 1422.41 450.096C1424.94 449.697 1427.53 449.948 1429.94 450.827C1433.76 452.186 1437.55 453.606 1441.32 455.086C1441.94 455.382 1442.46 455.836 1442.84 456.401C1443.28 457.081 1443.67 457.794 1444.01 458.535C1444 459.024 1444.13 459.506 1444.37 459.928C1444.62 460.35 1444.97 460.697 1445.4 460.931C1445.24 459.937 1445.12 459.214 1445.02 458.483C1445.11 458.06 1445.21 457.636 1445.36 456.964C1446.09 457.168 1446.57 457.293 1447.07 457.475C1450.18 458.549 1453.25 459.777 1456.37 460.807Z" fill="#EE6D10"/>
<path d="M-133.548 575.472C-132.433 573.755 -131.303 572.037 -130.21 570.305C-128.771 568.08 -127.425 565.855 -126.814 563.225C-126.404 561.449 -125.728 559.731 -125.274 557.963C-123.972 552.97 -124.411 547.861 -124.756 542.838C-125.089 539.518 -125.956 536.275 -127.325 533.236C-128.562 530.25 -130.347 527.641 -132.009 524.923C-132.37 524.224 -132.675 523.497 -132.922 522.749C-131.541 522.691 -130.167 522.597 -128.792 522.597H13.4114C14.6777 522.597 15.9439 522.597 17.2102 522.597C22.8999 522.715 28.3624 524.868 32.6213 528.67C41.1039 536.055 44.3487 549.136 39.3124 560.427C35.9093 568.066 30.2471 573.175 22.0451 575.081C19.7881 575.51 17.4909 575.685 15.1957 575.603C-33.2489 575.632 -81.6934 575.632 -130.138 575.603C-131.253 575.596 -132.397 575.516 -133.548 575.472Z" fill="#F9E0B2"/>
<path d="M-147.103 673.382C-149.916 670.208 -149.823 665.613 -149.592 661.344C-149.405 658.003 -149.722 654.633 -149.484 651.292C-149.161 646.69 -147.585 642.502 -144.117 639.313C-142.44 637.769 -140.487 636.562 -138.361 635.754C-134.71 634.371 -130.83 633.702 -126.929 633.783C-116.95 633.877 -106.971 633.783 -96.9845 633.783H-96.2651C-94.6894 633.725 -93.0562 634.269 -91.5741 633.298C-87.7177 634.088 -83.8182 633.906 -79.933 633.906H43.0969V639.378C33.3193 639.378 23.5416 639.24 13.764 639.458C4.41083 639.668 -3.20118 646.292 -4.29478 656.242C-4.57669 658.841 -4.31415 661.47 -3.52415 663.96C-2.73415 666.449 -1.43428 668.745 0.291464 670.697C2.01721 672.649 4.1304 674.215 6.49446 675.292C8.85853 676.37 11.4209 676.937 14.0158 676.955C23.1028 676.955 32.1897 676.955 41.2766 676.955C41.9601 676.955 42.6509 676.875 43.3344 676.831H43.5934H43.8524H67.4007C68.5447 676.868 69.6886 676.94 70.8326 676.94H158.608C159.752 676.94 160.896 676.868 162.04 676.831L163.307 676.947L167.364 682.376C166.098 682.376 164.832 682.376 163.566 682.376C65.909 682.376 -31.7475 682.376 -129.404 682.376C-130.663 682.376 -131.929 682.281 -133.188 682.231C-135.52 682.905 -137.678 686.528 -139.836 680.419H-139.8C-140.385 680.275 -140.933 680.01 -141.411 679.642C-141.889 679.275 -142.286 678.811 -142.578 678.281H-142.542L-143.405 677.556C-143.822 677.252 -144.369 677.063 -144.664 676.629C-145.402 675.491 -146.217 674.406 -147.103 673.382Z" fill="#86B0F1"/>
<path d="M54.9754 519.597C56.2345 519.655 57.4936 519.749 58.7527 519.756C73.4299 519.756 88.1143 519.857 102.792 519.705C108.389 519.647 113.756 520.242 118.879 522.561C119.901 523.372 120.908 524.199 122.268 524.351C122.745 524.984 123.264 525.585 123.822 526.148C129.629 531.203 133.244 538.345 133.894 546.049C134.801 555.47 132.017 563.659 125.527 570.465C122.238 574.073 117.916 576.561 113.159 577.581C110.699 578.306 108.173 578.197 105.655 578.197H-83.4008C-85.919 578.197 -88.4372 578.118 -90.9049 578.784C-91.9985 577.849 -93.3152 578.248 -94.5023 578.248C-107.319 578.209 -120.135 578.209 -132.951 578.248C-134.088 578.248 -135.232 578.371 -136.368 578.429C-137.088 578.168 -137.656 577.705 -137.361 576.907C-137.261 576.654 -137.109 576.423 -136.916 576.231C-136.723 576.039 -136.492 575.889 -136.239 575.791C-135.345 575.612 -134.438 575.505 -133.527 575.472C-132.375 575.516 -131.231 575.596 -130.08 575.596C-81.6357 575.596 -33.1912 575.596 15.2533 575.596C17.5486 575.677 19.8458 575.502 22.1027 575.074C30.2975 573.168 35.9598 568.059 39.3701 560.42C44.4064 549.151 41.1544 536.069 32.6718 528.656C28.4129 524.853 22.9503 522.701 17.2606 522.582C15.9944 522.582 14.7281 522.582 13.4618 522.582H-128.792C-130.167 522.582 -131.541 522.677 -132.922 522.735C-133.8 522.669 -134.685 522.626 -135.563 522.546C-136.958 522.416 -137.095 522.198 -137.074 520.307L-136.397 519.821C-134.901 519.821 -133.404 519.77 -131.915 519.77C-72.2562 519.77 -12.5999 519.77 47.054 519.77C49.6945 519.741 52.335 519.647 54.9754 519.597Z" fill="#4970B6"/>
<path d="M-90.9122 578.777C-88.4444 578.11 -85.9262 578.19 -83.4081 578.19H105.655C108.173 578.19 110.691 578.262 113.159 577.574C114.231 578.581 115.555 578.147 116.757 578.154C127.736 578.19 138.722 578.154 149.708 578.154C150.622 578.154 151.543 578.118 152.45 578.197C154.205 578.349 154.917 579.509 154.184 581.053C153.637 582.183 152.932 583.227 152.299 584.336C151.032 584.336 149.766 584.249 148.507 584.249H-3.73362C-4.88478 584.249 -6.03593 584.249 -7.18708 584.285C-15.3171 584.444 -23.994 590.329 -26.5769 599.91C-27.2031 602.502 -27.4456 605.174 -27.2963 607.838C-26.9726 619.905 -17.051 628.312 -7.03598 628.435C-5.88482 628.435 -4.73367 628.435 -3.58251 628.435L43.0178 628.485C43.0178 630.276 43.0178 632.073 43.0537 633.863H-79.9762C-83.8613 633.863 -87.7609 634.044 -91.6173 633.254L-95.6391 632.406L-97.0781 631.884L-97.74 631.71L-99.1142 631.123C-99.1828 631.049 -99.2689 630.994 -99.3645 630.962C-99.4601 630.93 -99.5621 630.924 -99.661 630.942L-100.496 630.493C-100.57 630.41 -100.663 630.347 -100.767 630.309C-100.871 630.271 -100.983 630.26 -101.093 630.276L-101.877 629.812C-101.945 629.726 -102.033 629.659 -102.134 629.617C-102.235 629.575 -102.344 629.56 -102.453 629.573L-103.258 629.058L-104.834 628.232L-105.338 627.739L-107.618 626.145L-108.1 625.652C-108.978 624.927 -110.043 624.384 -110.69 623.478C-112.228 621.52 -113.591 619.43 -114.763 617.231C-118.295 610.041 -118.454 602.888 -115.115 595.583C-113.45 591.939 -111.023 588.701 -108 586.089C-107.368 585.62 -106.702 585.201 -106.007 584.836C-105.856 584.691 -104.194 583.604 -104.194 583.604L-103.985 583.495L-103.438 583.002C-102.388 582.031 -101.006 581.821 -99.7329 581.371L-98.6465 580.871L-97.6105 580.342L-97.1356 580.19L-95.5312 579.639L-95.0348 579.502L-94.2361 579.422L-90.9122 578.777Z" fill="#38558A"/>
<path d="M-168.104 753.202H-159.147L-156.478 753.253C-153.492 753.318 -150.499 753.434 -147.513 753.434C-38.2587 753.434 70.9981 753.434 180.257 753.434C181.516 753.434 182.783 753.434 184.049 753.376C185.445 754.35 186.441 755.803 186.848 757.464C185.589 757.5 184.322 757.573 183.063 757.573C20.3616 757.573 -142.338 757.573 -305.035 757.573C-306.603 757.573 -308.258 758.065 -309.74 757.08C-309.743 757.046 -309.755 757.013 -309.774 756.984C-309.792 756.956 -309.818 756.932 -309.847 756.916C-309.877 756.9 -309.91 756.891 -309.944 756.89C-309.978 756.89 -310.012 756.898 -310.042 756.913C-310.43 756.652 -310.699 756.247 -310.79 755.786C-310.882 755.326 -310.789 754.848 -310.531 754.456C-310.331 754.104 -310.036 753.816 -309.682 753.624C-309.327 753.432 -308.926 753.344 -308.524 753.369H-305.761H-267.104C-265.615 753.369 -264.118 753.326 -262.629 753.304C-262.068 753.304 -261.492 753.384 -260.924 753.384H-228.173C-227.49 753.384 -226.799 753.282 -226.116 753.224C-225.087 753.275 -224.065 753.376 -223.036 753.376C-205.769 753.376 -188.485 753.376 -171.184 753.376C-170.155 753.376 -169.133 753.275 -168.104 753.202Z" fill="#1C4655"/>
<path d="M186.848 757.478C186.442 755.819 185.446 754.367 184.049 753.398C181.577 749.654 178.787 746.133 175.71 742.875C171.609 737.652 167.511 732.427 163.414 727.2C162.863 726.616 162.118 726.257 161.321 726.192C161.724 725.533 161.796 724.895 161.098 724.395C159.249 723.09 157.601 721.496 155.486 720.576C153.73 719.815 152.011 718.952 150.277 718.141C150.614 718.069 150.955 718.023 151.299 718.003C158.177 718.003 165.055 717.938 171.933 718.061C173.763 718.138 175.57 718.495 177.293 719.119C183.069 721.143 188.178 724.734 192.057 729.497C193.157 730.823 194.215 732.215 195.287 733.548C197.92 736.737 200.558 739.918 203.201 743.093C204.64 744.991 205.971 746.934 207.461 748.767C208.799 750.427 210.281 751.97 211.705 753.565C212.441 755.214 213.642 756.607 215.159 757.573C215.096 757.856 215.129 758.153 215.253 758.416C215.377 758.678 215.584 758.892 215.842 759.022C217.936 761.74 220.015 764.472 222.145 767.168C226.203 772.313 230.28 777.452 234.376 782.583C234.426 782.648 234.376 782.785 234.376 782.887C234.218 783.032 234.074 783.3 233.923 783.3C225.289 783.3 216.655 783.3 208.022 783.3C206.36 781.662 205.216 779.676 203.748 777.952C202.28 776.227 200.935 774.451 199.532 772.697C197.884 770.654 196.237 768.603 194.683 766.487C193.611 765.037 191.934 764.044 191.402 762.182C189.79 761.334 189.287 759.544 188.143 758.297L187.517 757.79L186.848 757.478Z" fill="#375985"/>
<path d="M215.181 757.551C213.663 756.586 212.462 755.192 211.727 753.543C213.101 753.507 214.475 753.434 215.85 753.434C238.94 753.434 262.025 753.434 285.106 753.434C286.473 753.434 287.847 753.304 289.221 753.239L300.812 753.304H302.251L303.762 753.268C305.482 753.304 307.208 753.362 308.935 753.362H412.834C413.985 753.362 415.136 753.362 416.28 753.456C416.733 753.541 417.146 753.772 417.456 754.115C417.767 754.458 417.958 754.893 418 755.355C417.976 755.818 417.818 756.264 417.544 756.636C417.27 757.009 416.893 757.292 416.46 757.449C416.012 757.55 415.553 757.596 415.093 757.587C414.172 757.587 413.251 757.587 412.331 757.587H332.253C330.987 757.587 329.728 757.681 328.469 757.732C327.44 757.681 326.411 757.587 325.382 757.587H219.641C218.612 757.587 217.584 757.681 216.555 757.732L215.181 757.551Z" fill="#1C4655"/>
<path d="M215.181 757.551L216.555 757.724Z" fill="#F9FBFE"/>
<path d="M281.674 692.949C281.019 694.544 280.408 696.153 279.71 697.732C277.964 701.88 276.739 706.23 276.062 710.683C276.015 711.257 276.015 711.834 276.062 712.408C276.062 712.705 275.998 713.002 275.962 713.299C275.962 713.937 275.962 714.575 275.962 715.213C275.962 715.85 275.767 716.35 275.746 716.923C275.422 724.567 276.94 732.175 280.17 739.099C280.739 740.339 281.127 741.658 281.609 742.94H207.669C206.18 742.94 204.691 743.035 203.208 743.085C200.561 739.906 197.923 736.725 195.294 733.541C194.193 732.207 193.136 730.816 192.064 729.49C188.179 724.737 183.068 721.156 177.293 719.141C175.57 718.517 173.763 718.16 171.933 718.083C165.055 717.959 158.177 718.025 151.298 718.025C150.955 718.045 150.613 718.091 150.277 718.162H146.075L144.687 718.59C141.341 719.742 139.708 722.069 139.873 725.649C139.873 726.156 140.147 726.294 140.593 726.192H161.321C162.118 726.257 162.863 726.616 163.414 727.2C167.496 732.456 171.595 737.681 175.71 742.875C168.695 742.875 161.68 742.94 154.666 742.94C119.009 742.94 83.349 742.94 47.6871 742.94C44.8135 742.989 41.9477 742.625 39.1758 741.861C33.1557 740.073 28.0317 736.054 24.8357 730.613C21.6397 725.173 20.6091 718.714 21.9516 712.538C22.669 709 24.1612 705.668 26.3195 702.784C28.4777 699.901 31.2476 697.538 34.4272 695.87C38.419 693.771 42.8766 692.733 47.3778 692.855C124.563 692.899 201.745 692.911 278.926 692.891L281.674 692.949Z" fill="#F9DFB1"/>
<path d="M288.855 682.781C288.725 683.282 288.747 683.687 288.56 683.89C286.303 686.361 284.316 689.067 282.631 691.964C282.348 692.325 282.027 692.656 281.674 692.949C281.019 694.544 280.408 696.153 279.71 697.732C277.964 701.88 276.739 706.23 276.062 710.683C276.015 711.257 276.015 711.834 276.062 712.408L277.66 712.509C278.724 712.111 279.818 711.785 280.847 711.306C290.157 706.639 299.455 701.95 308.741 697.24C309.125 697.005 309.491 696.741 309.834 696.45C311.18 695.826 312.568 695.268 313.863 694.551C315.158 693.833 316.842 693.486 317.892 692L311.993 688.065C311.903 688.006 311.839 687.915 311.813 687.811C311.816 687.64 311.84 687.469 311.885 687.304C312.525 687.304 313.194 687.304 313.863 687.304C317.312 687.458 320.756 687.623 324.195 687.797C325.334 687.979 326.501 687.792 327.526 687.26C331.75 684.644 335.851 681.876 339.29 678.23C340.744 676.74 341.915 674.994 342.743 673.077C343.333 671.748 343.56 670.283 343.399 668.836C343.239 667.388 342.697 666.01 341.829 664.845C340.353 662.755 338.302 661.145 335.93 660.214C331.49 658.413 326.688 657.703 321.921 658.141C320.864 660.047 319.828 661.968 318.734 663.852C318.397 664.298 318.014 664.706 317.59 665.069C317.058 662.634 318.31 660.511 317.842 658.46C317.549 658.332 317.243 658.239 316.928 658.185C307.849 658.424 298.762 658.496 289.696 659.003C284.756 659.267 279.878 660.243 275.213 661.902C271.205 662.84 267.276 664.096 263.464 665.656C262.631 666.117 261.67 666.288 260.73 666.142C263.097 664.75 261.658 665.475 263.608 664.424C266.939 662.381 270.321 660.424 273.573 658.257C275.16 657.117 276.641 655.833 277.998 654.423C279.094 653.386 279.813 652.008 280.041 650.51C279.07 650.017 278.271 649.582 277.444 649.205C275.659 648.408 273.846 647.654 272.076 646.843C271.623 646.632 270.94 646.502 271.184 645.524H282.163C289.617 637.284 296.344 628.674 301.021 618.6C301.942 616.611 302.698 614.548 303.28 612.433C303.999 609.752 304.445 607.019 303.712 604.215C302.776 600.591 300.69 598.576 296.963 598.352C294.672 598.194 292.371 598.306 290.106 598.685C287.046 599.278 284.024 600.055 281.055 601.011C273.019 603.461 265.342 606.874 257.521 609.911C256.831 610.163 256.203 610.564 255.682 611.086C255.161 611.608 254.76 612.238 254.507 612.933C253.161 616.122 251.744 619.289 250.298 622.441C250.039 622.999 250.003 623.811 249.104 623.992C248.881 620.535 250.233 617.151 249.665 613.716C248.291 613.39 247.334 614.18 246.305 614.607C238.873 617.709 231.462 620.861 223.677 622.956C221.681 623.484 219.649 623.864 217.598 624.094C216.274 624.253 214.655 624.492 213.914 622.956C213.281 621.666 214.051 620.412 214.864 619.456C216.619 617.39 217.627 614.933 218.72 612.52C220.725 608.099 222.709 603.669 224.67 599.229C225.08 598.286 225.39 597.279 225.692 596.33C226.106 595.649 226.485 594.948 226.829 594.228C231.491 583.147 235.908 571.972 239.736 560.565C242.859 551.245 245.679 541.831 247.269 532.098C247.927 528.569 248.238 524.984 248.197 521.394C248.194 518.841 247.705 516.312 246.758 513.944C245.427 510.914 243.161 509.218 239.786 509.197C239.067 509.197 238.405 509.197 237.714 509.247C233.356 509.61 229.087 510.687 225.073 512.436C217.763 515.429 211.267 519.77 205.165 524.756C203.208 526.351 201.331 528.047 199.482 529.641C199.395 532.888 199.309 535.888 199.223 538.896C199.225 538.949 199.216 539.002 199.198 539.052C199.179 539.101 199.151 539.147 199.115 539.186C199.035 539.251 198.899 539.251 198.64 539.316L195.33 533.968C194.56 534.627 193.891 535.098 193.38 535.642C187.633 541.479 182.193 547.616 177.084 554.028C176.811 554.402 176.57 554.8 176.365 555.216L171.595 560.761C171.009 562.36 170.016 563.777 168.717 564.87C168.58 564.536 168.379 564.29 168.436 564.145C169.156 562.522 169.976 560.92 170.746 559.304C172.098 556.144 173.449 552.982 174.796 549.817C175.926 547.165 177.12 544.541 178.171 541.845C182.603 530.525 186.466 519.024 188.553 507.001C189.121 503.718 189.841 500.42 189.531 496.978C188.236 496.217 186.833 496.253 185.488 496.13C184.142 496.007 182.79 496.007 181.272 495.137C183.998 492.847 186.984 491.311 189.596 488.934C189.056 482.868 187.438 477.186 183.027 472.656C177.149 466.591 169.242 464.916 161.594 468.96C159.664 469.988 157.825 471.181 156.097 472.526C150.212 477.113 145.73 482.969 141.492 489.086C142.37 493.92 143.233 498.674 144.204 504.044C143.607 503.583 143.038 503.087 142.499 502.558C141.139 500.993 139.83 499.37 138.463 497.811C137.93 497.298 137.357 496.828 136.751 496.405C134.153 501.036 131.319 505.247 129.448 509.994C129.043 510.535 128.673 511.101 128.34 511.69C126.29 515.908 124.275 520.14 122.246 524.365C122.723 524.999 123.242 525.599 123.8 526.162C129.608 531.218 133.222 538.36 133.873 546.063C134.779 555.485 131.995 563.674 125.505 570.479C122.217 574.088 117.894 576.575 113.138 577.596C114.21 578.603 115.533 578.168 116.735 578.176C127.714 578.212 138.7 578.176 149.687 578.176C150.601 578.176 151.521 578.139 152.428 578.219C154.184 578.371 154.896 579.531 154.162 581.074C153.615 582.205 152.91 583.249 152.277 584.357C151.104 587.858 149.694 591.3 148.809 594.873C146.348 604.715 147.197 614.39 150.824 623.862C151.399 625.369 151.972 626.879 152.543 628.391C153.04 629.167 153.536 629.935 154.025 630.718C154.304 631.158 154.47 631.661 154.509 632.182C154.548 632.703 154.458 633.226 154.248 633.703H166.659C167.235 634.602 166.659 634.95 166.364 635.378L163.278 639.422C162.975 640.146 162.709 640.914 162.364 641.596C157.208 652.307 157.085 663.074 161.997 673.896C162.335 674.621 162.645 675.346 162.968 676.071L163.299 676.904L167.357 682.332C168.969 682.332 170.58 682.412 172.185 682.412H284.739C286.092 682.492 287.444 682.296 288.855 682.781Z" fill="url(#paint1_linear_447_4622)"/>
<path d="M350.629 738.817C348.756 740.527 346.648 741.955 344.369 743.056C339.493 745.39 334.379 747.178 329.116 748.39C322.641 749.999 316.101 751.18 309.511 752.137C307.582 752.413 305.69 752.905 303.755 753.297L302.237 753.333C301.755 752.731 301.287 752.797 300.798 753.333L289.207 753.268C289.174 753.042 289.101 752.823 288.991 752.623C286.749 749.93 284.687 747.09 282.818 744.122C282.453 743.69 282.04 743.301 281.588 742.962C281.113 741.679 280.725 740.36 280.149 739.121C276.919 732.197 275.401 724.588 275.724 716.945C275.724 716.372 275.868 715.807 275.94 715.234C280.257 714.684 284.574 714.104 288.891 713.597C300.98 712.044 313.209 711.932 325.325 713.263C330.233 713.797 335.063 714.908 339.714 716.575C342.323 717.485 344.808 718.722 347.11 720.257C349.445 721.76 351.371 723.824 352.715 726.265C355.161 730.91 354.442 735.237 350.629 738.817Z" fill="url(#paint2_linear_447_4622)"/>
<path d="M118.879 522.561C113.756 520.242 108.389 519.662 102.792 519.705C88.1143 519.857 73.4299 519.763 58.7526 519.756C57.4936 519.756 56.2345 519.654 54.9754 519.597C54.9754 518.256 56.5582 475.99 57.0403 470.105C57.8491 459.014 60.2933 448.106 64.2925 437.739C65.9544 433.605 68.076 429.674 70.6167 426.021C71.7424 424.305 73.0846 422.743 74.6098 421.375C76.4975 419.647 78.5731 418.14 80.7973 416.882C84.3157 414.958 88.1327 413.65 92.0858 413.012C100.719 411.831 109.051 412.469 116.634 417.36C117.23 417.696 117.851 417.984 118.49 418.223C120.03 419.6 121.642 420.904 123.117 422.354C127.105 426.29 129.78 431.378 130.772 436.913C128.678 439.667 125.736 441.617 123.491 444.487C125.059 444.74 126.059 443.805 127.196 443.385C128.333 442.965 129.513 442.428 130.93 441.827C131.126 442.483 131.254 443.159 131.311 443.842C131.124 448.117 131.052 452.415 130.635 456.669C128.757 475.693 124.973 494.391 120.994 513.052C120.318 516.219 119.591 519.401 118.879 522.561Z" fill="url(#paint3_linear_447_4622)"/>
<path d="M275.947 713.299C275.983 713.002 276.012 712.705 276.048 712.408L277.645 712.509L275.947 713.299Z" fill="#F2870F"/>
<path d="M281.674 692.949H278.911C201.736 692.949 124.553 692.937 47.3634 692.913C42.8622 692.791 38.4046 693.829 34.4129 695.928C31.2333 697.596 28.4634 699.958 26.3051 702.842C24.1468 705.726 22.6546 709.058 21.9372 712.596C20.5947 718.772 21.6253 725.231 24.8213 730.671C28.0173 736.112 33.1413 740.131 39.1614 741.919C41.9333 742.683 44.7991 743.047 47.6727 742.998C83.3298 742.969 118.989 742.969 154.651 742.998C161.666 742.998 168.681 742.955 175.696 742.933C178.772 746.191 181.562 749.712 184.035 753.456C182.768 753.456 181.502 753.507 180.243 753.507C70.9837 753.507 -38.2731 753.507 -147.528 753.507C-150.513 753.507 -153.506 753.391 -156.492 753.333C-157.284 752.731 -158.082 752.13 -159.161 752.21C-165.119 750.275 -169.579 746.412 -172.831 741.121C-174.462 738.301 -175.477 735.164 -175.81 731.917C-176.882 723.837 -176.292 715.734 -176.285 707.654C-176.21 703.239 -175.09 698.906 -173.018 695.015C-171.545 692.301 -169.503 689.944 -167.032 688.108C-165.218 686.715 -163.254 685.534 -161.176 684.586C-158.3 683.154 -155.131 682.422 -151.923 682.448C-147.355 682.542 -142.786 682.39 -138.253 682.339L-133.217 682.281C-131.958 682.332 -130.692 682.426 -129.433 682.426C-31.7763 682.426 65.8802 682.426 163.537 682.426C164.803 682.426 166.069 682.426 167.336 682.426C168.947 682.426 170.559 682.506 172.163 682.506H284.718C286.049 682.506 287.423 682.31 288.833 682.796C288.703 683.296 288.725 683.702 288.538 683.905C286.282 686.375 284.294 689.082 282.61 691.978C282.332 692.334 282.019 692.659 281.674 692.949Z" fill="#B75743"/>
<path d="M163.278 639.422C162.976 640.146 162.709 640.914 162.364 641.596C157.208 652.307 157.085 663.074 161.997 673.896C162.335 674.621 162.645 675.346 162.968 676.071L162.033 676.795C160.889 676.832 159.745 676.904 158.601 676.904H70.8254C69.6814 676.904 68.5375 676.832 67.3935 676.795L66.7172 676.187C66.7172 668.889 66.6597 661.591 66.6597 654.293C66.6597 649.314 66.7172 644.335 66.746 639.356L163.278 639.422Z" fill="#F9E0B2"/>
<path d="M43.3055 676.832C42.622 676.875 41.9313 676.955 41.2478 676.955C32.1609 676.955 23.0739 676.955 13.987 676.955C11.392 676.937 8.82972 676.371 6.46565 675.293C4.10158 674.215 1.9884 672.649 0.262652 670.697C-1.4631 668.745 -2.76301 666.45 -3.55301 663.96C-4.343 661.47 -4.60555 658.841 -4.32364 656.242C-3.23004 646.292 4.37482 639.668 13.7352 639.458C23.5128 639.24 33.2904 639.393 43.0681 639.378C43.1112 640.53 43.1976 641.69 43.1976 642.842C43.1976 652.901 43.1976 662.96 43.1976 673.02C43.1904 674.295 43.2695 675.563 43.3055 676.832Z" fill="#F9E0B2"/>
<path d="M43.3055 676.832C43.3055 675.563 43.1904 674.295 43.1904 673.019C43.1904 662.96 43.1904 652.901 43.1904 642.842C43.1904 641.69 43.1041 640.53 43.0609 639.378V633.906C43.0609 632.116 43.0609 630.319 43.0609 628.529C43.1185 622.925 43.1737 617.322 43.2264 611.723C43.271 611.209 43.1566 610.695 42.8989 610.25C42.6412 609.804 42.2529 609.451 41.7875 609.237L41.068 606.787C47.0324 606.744 53.0041 606.541 58.9685 606.715C64.0048 606.86 66.6237 609.947 66.6597 614.984C66.6597 619.492 66.7604 624 66.8107 628.507C66.7819 630.314 66.758 632.119 66.7388 633.921V639.422C66.7388 644.4 66.6525 649.379 66.6525 654.358C66.6525 661.656 66.6525 668.954 66.71 676.252C65.5517 676.462 64.7459 675.73 63.9113 675.15C61.7528 673.643 59.5944 672.063 57.436 670.563C54.7092 668.671 54.5581 668.693 52.0256 670.563C51.5651 670.903 51.0758 671.208 50.6226 671.556C48.3562 673.309 46.0971 675.078 43.8379 676.839H43.5789L43.3055 676.832Z" fill="#F47559"/>
<path d="M43.8236 676.824C46.0828 675.063 48.3419 673.295 50.6082 671.541C51.0615 671.193 51.5508 670.889 52.0112 670.548C54.551 668.678 54.6948 668.657 57.4216 670.548C59.58 672.048 61.7385 673.628 63.8969 675.136C64.7315 675.715 65.5373 676.447 66.6956 676.237L67.372 676.846L43.8236 676.824Z" fill="#F9DFB1"/>
<path d="M162.033 676.846L162.968 676.121L163.299 676.955L162.033 676.846Z" fill="#F9DFB1"/>
<path d="M66.7891 628.507C66.7387 624 66.6739 619.492 66.638 614.984C66.602 609.947 63.9471 606.86 58.9468 606.715C52.9824 606.541 47.0107 606.715 41.0463 606.787C38.7512 606.737 36.4561 606.57 34.1681 606.679C33.0409 606.817 31.9444 607.142 30.9233 607.643C30.3909 607.86 30.0528 608.367 30.5924 609.302C34.1897 609.36 37.967 609.433 41.7298 609.237C42.1953 609.451 42.5836 609.804 42.8412 610.25C43.0989 610.695 43.2133 611.209 43.1687 611.723C43.1112 617.327 43.056 622.929 43.0033 628.529L-3.60421 628.478C-4.75537 628.478 -5.90652 628.478 -7.05767 628.478C-17.0727 628.355 -26.9943 619.948 -27.318 607.882C-27.4673 605.218 -27.2248 602.546 -26.5985 599.953C-24.0012 590.358 -15.3172 584.473 -7.18717 584.343C-6.03602 584.343 -4.88487 584.307 -3.73371 584.307H148.514C149.773 584.307 151.039 584.365 152.306 584.394C151.133 587.894 149.723 591.336 148.838 594.909C146.377 604.751 147.226 614.426 150.852 623.898C151.428 625.405 152.001 626.915 152.572 628.428C151.198 628.464 149.823 628.536 148.442 628.536L66.7891 628.507Z" fill="#F9E0B2"/>
<path d="M281.602 742.94C282.054 743.279 282.467 743.668 282.833 744.1C284.701 747.068 286.763 749.908 289.006 752.601C289.115 752.801 289.188 753.02 289.221 753.246C287.847 753.311 286.473 753.442 285.106 753.442C262.016 753.442 238.93 753.442 215.85 753.442C214.475 753.442 213.101 753.514 211.727 753.55C210.288 751.956 208.849 750.412 207.482 748.753C205.993 746.919 204.604 744.977 203.223 743.078C204.705 743.027 206.194 742.933 207.684 742.933L281.602 742.94Z" fill="#B75743"/>
<path d="M161.321 726.192H140.593L139.873 725.649C139.708 722.068 141.312 719.742 144.687 718.59L146.075 718.162H150.277C152.011 718.974 153.73 719.836 155.486 720.597C157.601 721.518 159.249 723.112 161.098 724.417C161.796 724.895 161.724 725.533 161.321 726.192Z" fill="#1C4655"/>
<path d="M300.812 753.311C301.28 752.76 301.748 752.695 302.251 753.311H300.812Z" fill="#B75743"/>
<path d="M66.7244 639.422V633.935C68.0986 633.935 69.4799 633.935 70.8613 633.935C97.1797 633.935 123.498 633.935 149.816 633.935C151.306 633.935 152.795 633.805 154.284 633.732H166.659C167.235 634.631 166.659 634.979 166.364 635.407L163.278 639.422H66.7244Z" fill="#86B0F1"/>
<path d="M154.277 633.682C152.788 633.754 151.299 633.885 149.809 633.885C123.491 633.885 97.1726 633.885 70.8543 633.885C69.4729 633.885 68.0915 633.885 66.7173 633.885C66.7173 632.078 66.7413 630.273 66.7892 628.471H148.442C149.824 628.471 151.198 628.399 152.572 628.362C153.068 629.138 153.565 629.906 154.054 630.689C154.334 631.13 154.501 631.635 154.54 632.157C154.579 632.679 154.489 633.203 154.277 633.682Z" fill="#38558A"/>
<path d="M139.873 725.663L140.593 726.207C140.147 726.294 139.873 726.156 139.873 725.663Z" fill="#375985"/>
<path d="M41.7299 609.237C37.9671 609.433 34.2043 609.36 30.5925 609.302C30.0529 608.396 30.3911 607.853 30.9235 607.643C31.9445 607.142 33.0411 606.817 34.1683 606.679C36.4562 606.57 38.7513 606.737 41.0464 606.787C41.2766 607.606 41.5069 608.418 41.7299 609.237Z" fill="#EE6F11"/>
<path d="M1332.31 220.763L1325.48 221.724L1324.71 221.981C1322.01 221.907 1319.35 222.642 1317.06 224.093C1317.37 225.067 1318.23 224.995 1318.84 225.298C1319.44 225.601 1320.01 225.726 1320.59 225.956C1321.96 226.431 1323.3 226.989 1324.61 227.628C1327.11 229.023 1327.62 230.807 1326.33 233.413C1325.81 234.434 1325.21 235.417 1324.55 236.355C1322.07 239.857 1319.14 243.013 1315.84 245.74C1312.57 248.511 1308.65 249.847 1304.62 251.058C1303.43 251.42 1302.22 251.716 1301.02 252.058L1300.31 252.335C1298.17 252.677 1296.02 252.993 1293.88 253.368C1292.42 253.639 1290.94 253.657 1289.48 253.421C1288.75 251.933 1289.14 250.354 1289.09 248.814C1288.98 247.307 1289.04 245.793 1289.25 244.299L1296.69 243.818L1297.43 243.621C1299.41 243.641 1301.37 243.302 1303.23 242.62C1306.3 241.646 1309.32 240.508 1312.38 239.441L1313.03 239.119C1315.41 238.473 1317.69 237.538 1319.84 236.335L1318.16 235.407C1315.95 234.156 1313.51 233.393 1311.44 231.82C1310.34 230.984 1308.83 230.728 1307.47 230.214L1306.77 229.931L1302.44 229.773L1299.04 229.648C1298.56 227.878 1299.74 226.831 1300.46 225.89C1301.58 224.436 1302.8 222.942 1304.59 222.145C1304.97 221.971 1305.3 221.715 1305.57 221.395C1307.73 218.795 1310.64 217.492 1313.74 216.511L1314.01 216.571L1314.22 216.353L1316.24 215.899L1316.79 215.748L1319.37 215.287L1319.96 215.129L1326.93 213.958L1327.43 213.839L1332.47 212.832L1333.05 212.622C1334.56 212.576 1335.14 211.384 1335.71 210.292C1336.63 208.535 1337.42 206.705 1338.33 204.737C1340.94 202.677 1344.21 202.842 1347.42 203.21C1348.82 203.375 1349.32 204.099 1349.44 205.566C1349.61 207.574 1349.03 209.574 1347.81 211.174C1345.76 213.969 1343.05 216.215 1339.93 217.716C1337.71 218.822 1335.31 219.585 1332.99 220.506L1332.31 220.763Z" fill="#56C1A8"/>
<path d="M1312.96 275.14C1312.39 274.982 1311.6 274.969 1311.11 274.58C1309.98 273.66 1308.69 272.951 1307.32 272.487C1306.43 272.198 1305.94 271.171 1306.42 270.513C1308.25 268.038 1309.38 265.05 1311.84 262.76C1314.11 263.418 1316.07 264.78 1318.05 265.972C1317.67 268.236 1316.59 270.19 1312.96 275.14Z" fill="#56C1A8"/>
<path d="M1207 214.065V211.733L1211.67 211.459L1214.16 206.046L1220.18 207.124C1221.59 205.517 1221.39 203.245 1222.32 201.319C1224.53 201.227 1226.62 202.696 1229.01 202.259C1229.83 201.005 1230.66 199.745 1231.58 198.341L1236.53 198.785C1236.82 198.25 1237.2 197.551 1237.59 196.826C1238.08 195.971 1238.62 195.742 1239.29 196.088C1239.95 196.434 1240.18 197.042 1239.86 197.956C1239.45 199.118 1238.94 200.241 1238.49 201.345C1236.69 201.998 1235.01 201.227 1233.29 201.449C1232.13 201.939 1231.68 203.193 1230.98 204.166C1230.67 204.64 1230.23 205.005 1229.72 205.213C1229.21 205.42 1228.65 205.46 1228.12 205.328C1226.87 205.119 1225.67 204.335 1224.09 204.819L1222.13 210.303L1215.95 209.135C1214.48 210.441 1214.5 212.628 1213.15 214.032L1207 214.065Z" fill="#F48F82"/>
<path d="M418 603.886V601.426L422.953 601.136L425.598 595.422L431.98 596.56C433.474 594.864 433.263 592.465 434.248 590.432C436.596 590.336 438.811 591.886 441.344 591.425C442.21 590.101 443.09 588.771 444.068 587.289L449.319 587.758C449.63 587.193 450.033 586.455 450.443 585.69C450.959 584.787 451.541 584.546 452.242 584.911C452.943 585.277 453.187 585.918 452.85 586.882C452.42 588.109 451.878 589.295 451.402 590.46C449.491 591.149 447.705 590.336 445.887 590.57C444.65 591.087 444.181 592.41 443.433 593.437C443.106 593.938 442.641 594.324 442.099 594.543C441.557 594.762 440.964 594.804 440.398 594.664C439.075 594.444 437.806 593.616 436.126 594.126L434.05 599.916L427.496 598.682C425.929 600.061 425.955 602.37 424.527 603.852L418 603.886Z" fill="#F48F82"/>
<path d="M374.299 341.856L366.579 344.684C366.029 343.644 365.536 342.886 365.199 342.06C361.982 334.478 358.82 326.889 355.712 319.294C355.209 318.166 354.831 316.986 354.583 315.775C354.373 314.859 354.487 313.898 354.904 313.057C355.321 312.216 356.017 311.548 356.87 311.167C358.097 310.545 359.393 310.072 360.73 309.758C361.647 309.569 362.6 309.69 363.442 310.103C364.283 310.517 364.965 311.198 365.382 312.042C365.73 312.733 366.011 313.455 366.222 314.2C368.834 322.813 371.439 331.429 374.038 340.048C374.164 340.644 374.251 341.248 374.299 341.856Z" fill="#4970B6"/>
<path d="M380.996 353.531C381.122 356.913 377.889 360.335 374.309 360.53C373.385 360.549 372.467 360.385 371.607 360.046C370.746 359.708 369.961 359.202 369.295 358.557C368.629 357.912 368.095 357.142 367.725 356.289C367.355 355.437 367.156 354.519 367.138 353.589C367.107 351.709 367.807 349.891 369.089 348.525C370.372 347.158 372.135 346.352 374 346.279C377.686 346.221 380.89 349.535 380.996 353.531Z" fill="#4970B6"/>
<path d="M190.254 133.944C189.611 134.712 188.724 134.635 187.882 134.635C184.821 134.635 181.761 134.743 178.7 134.589C176.994 134.461 175.306 134.149 173.665 133.659C172.344 133.307 171.209 132.457 170.498 131.284C169.916 130.354 169.426 129.332 168.202 128.979C165.853 129.378 164.438 131.169 163.045 132.822C160.221 136.203 157.375 139.593 154.904 143.228C150.756 149.315 147.099 155.679 145.056 162.873C144.601 164.205 144.473 165.627 144.684 167.019C144.894 168.41 145.437 169.731 146.265 170.866C150.167 176.515 155.516 178.982 162.287 179.736C167.506 180.32 172.089 179.928 176.963 179.613C181.095 179.312 185.202 178.721 189.252 177.845C195.855 176.469 202.359 174.809 208.863 173.318C209.901 173.157 210.949 173.067 212 173.049C211.385 174.263 210.419 175.262 209.23 175.916C206.866 177.453 204.547 179.044 202.106 180.435C195.824 184.017 189.458 187.46 182.625 189.835C176.994 191.925 171.03 192.967 165.027 192.909C163.435 192.863 156.778 192.594 152.226 190.811C149.447 189.82 146.862 188.348 144.589 186.461C142.462 184.562 141.735 181.672 140.817 178.936C140.203 175.643 139.934 172.294 140.014 168.945C139.988 166.284 140.528 163.648 141.597 161.213C142.845 158.292 143.893 155.256 145.423 152.482C147.527 148.639 149.915 144.911 152.31 141.245C155.018 137.172 157.918 133.229 160.727 129.217C161.844 127.611 162.907 125.966 163.978 124.329C164.261 123.921 164.395 123.428 164.359 122.933C164.322 122.438 164.118 121.97 163.78 121.608C163.421 121.117 162.978 120.696 162.471 120.363C160.872 119.356 160.658 117.842 160.88 116.182C161.071 114.729 161.346 113.284 161.584 111.847C162.678 109.972 163.213 107.72 165.126 106.39C165.677 105.931 166.294 105.558 166.955 105.283C171.485 103.854 176.137 104.284 180.774 104.515C181.52 104.555 182.222 104.884 182.731 105.433C183.241 105.982 183.518 106.708 183.505 107.458C183.535 108.434 183.416 109.409 183.153 110.348C182.566 112.482 181.568 114.48 180.215 116.228C179.312 117.365 178.532 118.595 177.537 120.009C178.302 120.509 178.777 121.116 179.381 121.231C181.531 121.631 183.666 122.215 185.908 122.061C187.109 121.977 188.326 122.061 189.734 122.115C189.931 122.976 190.072 123.849 190.155 124.728C190.208 127.803 190.223 130.877 190.254 133.944Z" fill="#9EC3F9"/>
<path d="M1180.5 430.204C1179.82 432.354 1179.25 434.215 1178.65 436.068C1178.43 436.761 1178.16 437.439 1177.85 438.096C1177.63 438.387 1177.31 438.587 1176.95 438.66C1176.59 438.733 1176.22 438.674 1175.9 438.493C1175.63 438.274 1175.4 438.017 1175.21 437.73C1173.83 435.77 1172.45 433.803 1170.97 431.676C1168.21 431.02 1165.13 431.958 1162.24 431.142C1162.01 430.616 1161.94 430.032 1162.05 429.467C1162.15 428.902 1162.42 428.38 1162.82 427.97C1164.15 426.269 1165.4 424.493 1166.75 422.632C1166.1 420.52 1165.45 418.438 1164.83 416.349C1164.59 415.587 1163.97 414.725 1164.83 414.008C1165.68 413.291 1166.43 413.795 1167.23 414.077C1168.49 414.519 1169.75 414.946 1171.02 415.373C1171.6 415.571 1172.17 415.785 1172.75 415.945C1173.1 416.048 1173.47 416.059 1173.82 415.976C1174.17 415.893 1174.5 415.72 1174.77 415.472C1175.83 414.527 1176.94 413.619 1177.99 412.659C1178.51 412.185 1179.13 411.841 1179.8 411.654C1180.47 411.468 1181.18 411.443 1181.86 411.583C1182.05 412.252 1182.19 412.936 1182.26 413.627C1182.33 415.211 1182.31 416.797 1182.19 418.377C1182.06 419.223 1182.21 420.085 1182.61 420.84C1183.01 421.595 1183.63 422.201 1184.4 422.571C1185.34 423.113 1186.2 423.799 1187.08 424.424C1187.48 424.7 1187.87 424.998 1188.24 425.316C1189.35 426.277 1189.24 427.284 1187.93 427.794C1186.61 428.305 1185.4 428.641 1184.14 429.037C1183.01 429.449 1181.85 429.785 1180.5 430.204Z" fill="#F47559"/>
<path d="M127.21 229.657H123.38C121.207 226.3 119.08 222.993 117 219.736C118.42 218.074 118.42 218.074 121.13 217.086L125.82 223.825C129.56 224.933 133.2 222.455 137.27 223.039C139.55 226.162 140.12 230.352 142.69 233.787L148.97 232.226C150.72 233.445 150.47 235.107 150.45 236.698L149.32 237.424L139.45 240.093C138.58 237.978 137.71 235.832 136.81 233.697C136.408 232.662 135.944 231.653 135.42 230.675C135.104 229.933 134.54 229.325 133.826 228.957C133.112 228.589 132.293 228.484 131.51 228.66C130.43 228.882 129.35 229.073 128.26 229.265L127.21 229.657Z" fill="#56C1A8"/>
<path d="M1013.21 674.88H1009.38C1007.21 671.522 1005.08 668.215 1003 664.958C1004.42 663.296 1004.42 663.296 1007.13 662.309L1011.82 669.048C1015.56 670.156 1019.2 667.678 1023.27 668.262C1025.55 671.385 1026.12 675.575 1028.69 679.01L1034.97 677.449C1036.72 678.667 1036.47 680.329 1036.45 681.921L1035.32 682.646L1025.45 685.316C1024.58 683.2 1023.71 681.055 1022.81 678.919C1022.41 677.884 1021.94 676.875 1021.42 675.897C1021.1 675.155 1020.54 674.548 1019.83 674.18C1019.11 673.812 1018.29 673.707 1017.51 673.883C1016.43 674.104 1015.35 674.296 1014.26 674.487L1013.21 674.88Z" fill="#56C1A8"/>
<path d="M536.609 619.647C536.492 621.33 534.923 622.142 534.315 623.537C533.817 624.455 533.379 625.404 533.003 626.379C532.925 626.636 532.904 626.907 532.942 627.173C532.98 627.438 533.076 627.692 533.223 627.916C533.371 628.14 533.565 628.328 533.793 628.467C534.021 628.606 534.277 628.692 534.542 628.719C535.822 628.861 537.109 628.932 538.397 628.934C540.273 628.985 542.142 628.993 544.018 629.044C544.223 629.044 544.421 629.229 544.626 629.332C545.216 632.618 545.248 635.98 544.722 639.276C544.091 639.414 543.452 639.508 542.809 639.556C540.112 639.556 537.415 639.601 534.747 639.556C533.813 639.535 532.883 639.423 531.97 639.224C529.852 638.767 528.555 637.681 528.115 635.29C527.514 632.027 526.371 631.599 523.439 633.127C519.65 635.135 515.51 635.947 511.42 636.943C503.24 639.027 494.801 639.895 486.371 639.519C480.061 639.18 476.844 639.202 471.399 635.888C471.032 635.637 468.548 633.776 467.507 633.001C464.4 630.683 463.843 626.173 464.033 622.061C464.06 619.936 464.524 617.839 465.397 615.904C466.862 612.819 468.277 609.725 469.794 606.684C470.398 605.697 471.082 604.761 471.838 603.886L473.245 604.189C473.154 605.494 472.758 606.759 472.088 607.88C471.199 609.669 470.418 611.51 469.75 613.394C467.954 618.613 470.233 622.386 474.411 625.08C475.109 625.496 475.845 625.845 476.609 626.121C479.772 627.377 483.127 628.066 486.525 628.158C490.973 628.254 495.437 628.402 499.87 628.099C503.709 627.766 507.522 627.189 511.288 626.372C518.385 624.869 525.38 622.919 532.234 620.533C533.633 620.068 535.026 619.204 536.631 619.728L536.609 619.647Z" fill="#F48F82"/>
<path d="M487.851 663.083C488.186 661.999 488.593 660.938 489.068 659.909C490.68 657.842 491.64 655.258 493.927 653.516C496.555 654.228 498.986 655.536 501.036 657.34C500.75 659.148 499.636 660.293 498.837 661.533C498.038 662.773 497.261 664.124 496.404 665.364C495.671 666.427 494.85 666.582 493.7 666.014C493.429 665.859 489.984 663.629 487.851 663.083Z" fill="#F48F82"/>
<path d="M1328 147.135C1328.35 146.16 1328.42 145.351 1328.86 144.879C1331.26 142.285 1331.83 139.486 1330.16 136.302C1329.93 135.644 1329.78 134.96 1329.71 134.266C1330.51 134.211 1331.18 133.944 1331.63 134.164C1335.22 135.917 1338.47 135.823 1341.39 132.812C1341.71 132.482 1342.52 132.608 1343.41 132.474C1343.41 134.046 1343.59 135.453 1343.48 136.798C1343.41 137.55 1343.55 138.308 1343.89 138.986C1344.23 139.664 1344.76 140.235 1345.41 140.634C1346.04 141.074 1346.72 141.42 1347.29 141.923C1347.87 142.426 1348.3 142.977 1349 143.708C1348.53 144.152 1348.02 144.567 1347.49 144.95C1347.16 145.139 1346.78 145.252 1346.4 145.28C1343.2 145.618 1341.45 147.371 1340.99 150.523C1340.87 151.309 1340.59 152.331 1339.56 152.575C1338.4 152.85 1338.14 151.789 1337.59 151.129C1337.41 150.951 1337.26 150.75 1337.13 150.531C1335.96 148.047 1334 147.104 1331.25 147.387C1330.16 147.404 1329.07 147.32 1328 147.135Z" fill="#9EC3F9"/>
<path d="M719 82.3943C719.352 81.3708 719.416 80.5206 719.857 80.0253C722.258 77.3014 722.827 74.3628 721.162 71.0198C720.93 70.3282 720.78 69.6105 720.713 68.882C721.514 68.8242 722.178 68.5436 722.627 68.7747C726.221 70.6154 729.472 70.5163 732.394 67.3549C732.706 67.0082 733.515 67.1403 734.412 67C734.412 68.6509 734.588 70.1284 734.484 71.5399C734.408 72.3301 734.549 73.1262 734.89 73.8382C735.231 74.5501 735.759 75.1493 736.413 75.568C737.038 76.0302 737.718 76.3934 738.295 76.9217C738.871 77.45 739.303 78.0278 740 78.7954C739.525 79.262 739.022 79.6975 738.495 80.0996C738.159 80.2984 737.784 80.4169 737.398 80.4463C734.196 80.8012 732.45 82.6419 731.994 85.9519C731.874 86.7774 731.594 87.8504 730.561 88.1063C729.4 88.3952 729.136 87.2809 728.591 86.5875C728.412 86.4012 728.258 86.1901 728.135 85.9602C726.958 83.3518 724.997 82.3613 722.25 82.6585C721.161 82.677 720.073 82.5885 719 82.3943Z" fill="#9EC3F9"/>
<path d="M1059.59 628.926C1056.34 628.149 1053.59 627.809 1051.09 626.274C1050.43 623.01 1052.14 620.562 1053.99 618.348C1055.38 616.915 1056.9 615.614 1058.53 614.462C1059.79 613.582 1060.99 612.608 1062.11 611.548C1065 608.294 1064.12 605.137 1059.96 603.777C1058.65 603.359 1057.26 603.281 1055.92 602.99C1055.08 602.843 1054.31 602.43 1053.72 601.811C1053.14 601.192 1052.76 600.4 1052.66 599.551C1052.46 598.707 1052.59 597.82 1053.01 597.064C1053.43 596.308 1054.12 595.737 1054.93 595.462C1056.06 594.986 1057.28 594.77 1058.5 594.83C1062.5 595.049 1066.39 596.207 1069.86 598.211C1074.76 601.232 1075.9 605.554 1074.42 611.062C1073.82 613.5 1072.33 615.624 1070.26 617.017C1069.22 617.697 1068.33 618.61 1067.3 619.241C1063.69 621.514 1060.8 624.37 1059.59 628.926Z" fill="#F7CD82"/>
<path d="M1052.24 643.302C1048.83 643.642 1045.92 640.621 1046 636.93C1046.09 635.31 1046.73 633.771 1047.83 632.579C1048.92 631.387 1050.39 630.617 1051.99 630.403C1055.34 630.131 1058.16 633.22 1058.37 636.843C1058.6 640.621 1055.48 643.72 1052.24 643.302Z" fill="#F7CD82"/>
<path d="M813.079 107.516L811.292 112.328C809.063 111.805 809.121 109.42 807.275 108.301L802 107.945C802.136 107.211 802.357 106.496 802.659 105.815C803.098 105.289 803.583 104.802 804.106 104.361C804.433 104.029 804.656 103.609 804.747 103.151C804.838 102.694 804.794 102.22 804.62 101.787C804.329 101.031 804.088 100.256 803.896 99.4682C803.839 98.8249 803.839 98.1778 803.896 97.5345L808.911 99.1193L813.521 96.2114C814.715 98.1306 813.6 100.093 814.288 101.816C815.257 103.176 817.182 103.605 818 105.4C816.596 106.73 814.657 106.512 813.079 107.516Z" fill="#F2870F"/>
</g>
<defs>
<linearGradient id="paint0_linear_447_4622" x1="1222.52" y1="532.032" x2="1448.29" y2="710.566" gradientUnits="userSpaceOnUse">
<stop offset="0.01" stop-color="#F39008"/>
<stop offset="1" stop-color="#EE6C10"/>
</linearGradient>
<linearGradient id="paint1_linear_447_4622" x1="176.35" y1="666.019" x2="319.49" y2="484.334" gradientUnits="userSpaceOnUse">
<stop stop-color="#F0780F"/>
<stop offset="0.52" stop-color="#F4910A"/>
</linearGradient>
<linearGradient id="paint2_linear_447_4622" x1="275.71" y1="732.809" x2="354.168" y2="732.809" gradientUnits="userSpaceOnUse">
<stop offset="0.01" stop-color="#F39008"/>
<stop offset="1" stop-color="#EE6C10"/>
</linearGradient>
<linearGradient id="paint3_linear_447_4622" x1="91.7621" y1="532.221" x2="95.8938" y2="383.293" gradientUnits="userSpaceOnUse">
<stop stop-color="#EF7210"/>
<stop offset="1" stop-color="#ED6811"/>
</linearGradient>
<clipPath id="clip0_447_4622">
<rect width="1440" height="786" fill="white"/>
</clipPath>
</defs>
</svg>
