<svg width="1440" height="1015" viewBox="0 0 1440 1015" fill="none" xmlns="http://www.w3.org/2000/svg">
<path d="M1387.75 909.1C1387.39 909.971 1386.96 910.811 1386.47 911.61C1385.18 913.448 1384.53 915.658 1384.63 917.9C1384.53 918.848 1384.66 919.805 1384.99 920.697C1385.32 921.589 1385.86 922.394 1386.55 923.05C1387.58 924.035 1388.4 925.223 1388.96 926.54C1390.09 929.16 1388.72 933.04 1386.28 934.54C1385.73 934.864 1385.11 935.053 1384.48 935.09C1383.04 935.185 1381.61 935.185 1380.18 935.09C1378.09 934.91 1377.28 934.2 1377.18 932.09C1376.81 928.283 1377.02 924.442 1377.82 920.7C1378.82 916.64 1381.13 913.57 1383.82 910.61C1384.31 910.094 1384.91 909.684 1385.57 909.407C1386.24 909.13 1386.95 908.992 1387.67 909L1387.75 909.1Z" fill="#9EC3F9"/>
<path d="M208.092 897.11C204.722 896.31 201.872 895.96 199.282 894.38C198.592 891.02 200.362 888.5 202.282 886.22C203.726 884.745 205.303 883.406 206.992 882.22C208.302 881.314 209.542 880.312 210.702 879.22C213.702 875.87 212.792 872.62 208.472 871.22C207.122 870.79 205.672 870.71 204.282 870.41C203.414 870.259 202.618 869.834 202.009 869.196C201.401 868.559 201.013 867.744 200.902 866.87C200.702 866.001 200.833 865.088 201.269 864.309C201.705 863.531 202.416 862.943 203.262 862.66C204.431 862.17 205.696 861.948 206.962 862.01C211.106 862.236 215.14 863.427 218.742 865.49C223.822 868.6 225.002 873.05 223.472 878.72C222.845 881.23 221.305 883.416 219.152 884.85C218.082 885.55 217.152 886.49 216.092 887.14C212.342 889.48 209.342 892.42 208.092 897.11Z" fill="#F7CD82"/>
<path d="M200.472 911.91C196.932 912.26 193.912 909.15 194.002 905.35C194.092 903.682 194.762 902.098 195.896 900.871C197.029 899.644 198.556 898.851 200.212 898.63C203.682 898.35 206.612 901.53 206.832 905.26C207.062 909.15 203.832 912.34 200.472 911.91Z" fill="#F7CD82"/>
<path d="M135 929.65C135.44 928.41 135.52 927.38 136.07 926.78C139.07 923.48 139.78 919.92 137.7 915.87C137.411 915.032 137.223 914.163 137.14 913.28C138.14 913.21 138.97 912.87 139.53 913.15C144.02 915.38 148.08 915.26 151.73 911.43C152.12 911.01 153.13 911.17 154.25 911C154.25 913 154.47 914.79 154.34 916.5C154.246 917.457 154.422 918.422 154.848 919.284C155.274 920.147 155.933 920.873 156.75 921.38C157.53 921.94 158.38 922.38 159.1 923.02C159.82 923.66 160.36 924.36 161.23 925.29C160.637 925.855 160.009 926.383 159.35 926.87C158.931 927.111 158.462 927.254 157.98 927.29C153.98 927.72 151.8 929.95 151.23 933.96C151.08 934.96 150.73 936.26 149.44 936.57C147.99 936.92 147.66 935.57 146.98 934.73C146.756 934.504 146.564 934.249 146.41 933.97C144.94 930.81 142.49 929.61 139.06 929.97C137.7 929.992 136.34 929.885 135 929.65Z" fill="#9EC3F9"/>
<path d="M1372.4 129.538C1371.51 132.358 1370.76 134.798 1369.97 137.228C1369.68 138.137 1369.32 139.025 1368.91 139.888C1368.62 140.269 1368.19 140.532 1367.72 140.628C1367.25 140.723 1366.76 140.645 1366.34 140.408C1365.99 140.121 1365.68 139.784 1365.42 139.408C1363.6 136.838 1361.79 134.258 1359.83 131.468C1356.19 130.608 1352.13 131.838 1348.32 130.768C1348.02 130.078 1347.93 129.313 1348.06 128.571C1348.2 127.83 1348.55 127.146 1349.08 126.608C1350.84 124.378 1352.48 122.048 1354.27 119.608C1353.41 116.838 1352.55 114.108 1351.73 111.368C1351.42 110.368 1350.6 109.238 1351.73 108.298C1352.86 107.358 1353.85 108.018 1354.9 108.388C1356.56 108.968 1358.23 109.528 1359.9 110.088C1360.66 110.348 1361.41 110.628 1362.18 110.838C1362.64 110.973 1363.13 110.987 1363.59 110.878C1364.06 110.77 1364.49 110.542 1364.84 110.218C1366.25 108.978 1367.71 107.788 1369.1 106.528C1369.78 105.907 1370.59 105.456 1371.48 105.211C1372.37 104.966 1373.3 104.934 1374.2 105.118C1374.45 105.995 1374.63 106.891 1374.73 107.798C1374.82 109.875 1374.79 111.955 1374.63 114.028C1374.47 115.136 1374.66 116.268 1375.19 117.257C1375.71 118.247 1376.54 119.042 1377.55 119.528C1378.79 120.238 1379.92 121.138 1381.09 121.958C1381.62 122.32 1382.12 122.71 1382.61 123.128C1384.08 124.388 1383.94 125.708 1382.2 126.378C1380.46 127.048 1378.87 127.488 1377.2 128.008C1375.71 128.548 1374.19 128.988 1372.4 129.538Z" fill="#F47559"/>
<path d="M51 242.767V239.197L58.6315 238.777L62.7071 230.487L72.5394 232.137C74.8421 229.677 74.516 226.197 76.0342 223.247C79.6512 223.107 83.0646 225.357 86.967 224.687C88.3018 222.767 89.6569 220.837 91.1648 218.687L99.2548 219.367C99.7337 218.547 100.355 217.477 100.987 216.367C101.782 215.057 102.678 214.707 103.758 215.237C104.838 215.767 105.215 216.697 104.696 218.097C104.033 219.877 103.198 221.597 102.464 223.287C99.5197 224.287 96.7688 223.107 93.9668 223.447C92.0615 224.197 91.338 226.117 90.1866 227.607C89.6825 228.334 88.9654 228.893 88.1303 229.211C87.2952 229.529 86.3814 229.59 85.5099 229.387C83.4721 229.067 81.5159 227.867 78.9279 228.607L75.7286 237.007L65.6313 235.217C63.2165 237.217 63.2573 240.567 61.0565 242.717L51 242.767Z" fill="#F48F82"/>
<path d="M1356.31 872.55L1353.84 879.17C1350.76 878.45 1350.84 875.17 1348.29 873.63L1341 873.14C1341.19 872.131 1341.49 871.148 1341.91 870.21C1342.52 869.487 1343.19 868.818 1343.91 868.21C1344.36 867.754 1344.67 867.176 1344.8 866.546C1344.92 865.917 1344.86 865.265 1344.62 864.67C1344.22 863.629 1343.88 862.564 1343.62 861.48C1343.54 860.595 1343.54 859.705 1343.62 858.82L1350.55 861L1356.92 857C1358.57 859.64 1357.03 862.34 1357.98 864.71C1359.32 866.58 1361.98 867.17 1363.11 869.64C1361.17 871.47 1358.49 871.17 1356.31 872.55Z" fill="#F2870F"/>
<path d="M1266.21 552.48H1262.38C1260.21 549.147 1258.08 545.863 1256 542.63C1257.42 540.98 1257.42 540.98 1260.13 540L1264.82 546.69C1268.56 547.79 1272.2 545.33 1276.27 545.91C1278.55 549.01 1279.12 553.17 1281.69 556.58L1287.97 555.03C1289.72 556.24 1289.47 557.89 1289.45 559.47L1288.32 560.19L1278.45 562.84C1277.58 560.74 1276.71 558.61 1275.81 556.49C1275.41 555.463 1274.94 554.461 1274.42 553.49C1274.1 552.753 1273.54 552.15 1272.83 551.785C1272.11 551.42 1271.29 551.315 1270.51 551.49C1269.43 551.71 1268.35 551.9 1267.26 552.09L1266.21 552.48Z" fill="#56C1A8"/>
</svg>
