<svg width="212" height="118" viewBox="0 0 212 118" fill="none" xmlns="http://www.w3.org/2000/svg">
<path d="M190.958 107.462C189.635 106.928 188.516 106.694 187.499 105.638C187.228 103.393 187.923 101.709 188.677 100.185C189.244 99.1997 189.863 98.305 190.526 97.5122C191.041 96.9069 191.528 96.2368 191.983 95.5074C193.161 93.2688 192.804 91.0969 191.107 90.1614C190.577 89.874 190.008 89.8206 189.462 89.6201C189.122 89.5191 188.809 89.2348 188.57 88.8091C188.331 88.3833 188.179 87.8385 188.135 87.2545C188.057 86.6734 188.108 86.0634 188.279 85.5433C188.451 85.0232 188.73 84.6302 189.062 84.4411C189.521 84.1138 190.017 83.9654 190.515 84.0068C192.142 84.1574 193.726 84.9538 195.14 86.3323C197.134 88.4106 197.597 91.3843 196.997 95.1733C196.751 96.8505 196.146 98.3112 195.301 99.2697C194.88 99.7375 194.515 100.366 194.099 100.8C192.627 102.364 191.449 104.328 190.958 107.462Z" fill="#F7CD82"/>
<path d="M187.967 117.353C186.577 117.587 185.391 115.508 185.427 112.969C185.462 111.854 185.725 110.795 186.17 109.976C186.615 109.156 187.215 108.626 187.865 108.478C189.227 108.291 190.377 110.416 190.464 112.909C190.554 115.508 189.286 117.64 187.967 117.353Z" fill="#F7CD82"/>
<path d="M209.276 73.521L208.287 78C207.053 77.5129 207.085 75.2937 206.063 74.2517L203.143 73.9201C203.218 73.2375 203.34 72.5721 203.507 71.9377C203.751 71.4485 204.019 70.9957 204.308 70.5846C204.489 70.2761 204.613 69.8848 204.663 69.459C204.714 69.0333 204.689 68.5919 204.593 68.1894C204.432 67.4852 204.298 66.7643 204.192 66.0311C204.161 65.4324 204.161 64.8301 204.192 64.2314L206.969 65.7064L209.521 63C210.182 64.7862 209.565 66.613 209.945 68.2165C210.482 69.4817 211.548 69.8809 212.001 71.5521C211.223 72.7902 210.15 72.5873 209.276 73.521Z" fill="#F2870F"/>
<path d="M0 62.3719C0.168401 61.5493 0.199022 60.866 0.409524 60.468C1.55771 58.2789 1.82945 55.9173 1.03338 53.2306C0.922748 52.6747 0.850774 52.098 0.819024 51.5125C1.20175 51.4661 1.51943 51.2405 1.73375 51.4263C3.45221 52.9056 5.0061 52.8259 6.40306 50.2852C6.55233 50.0066 6.93889 50.1128 7.36755 50C7.36755 51.3267 7.45174 52.5142 7.40198 53.6485C7.36596 54.2836 7.43327 54.9234 7.59629 55.4956C7.75931 56.0677 8.01154 56.5493 8.32438 56.8858C8.6229 57.2573 8.94822 57.5492 9.22378 57.9737C9.49935 58.3983 9.70602 58.8626 10.039 59.4796C9.81194 59.8545 9.57163 60.2045 9.31946 60.5277C9.15892 60.6874 8.97974 60.7827 8.79513 60.8063C7.26421 61.0916 6.42985 62.5709 6.2117 65.231C6.15429 65.8943 6.02034 66.7567 5.52662 66.9624C4.97166 67.1945 4.84535 66.299 4.5851 65.7418C4.49924 65.5921 4.42581 65.4224 4.36694 65.2376C3.80432 63.1414 2.86665 62.3453 1.55388 62.5841C1.03321 62.599 0.512899 62.528 0 62.3719Z" fill="#9EC3F9"/>
<path d="M12.9922 17V14.8143L15.75 14.5572L17.2228 9.48178L20.7759 10.492C21.608 8.98589 21.4902 6.85532 22.0388 5.04924C23.3459 4.96352 24.5794 6.34105 25.9896 5.93085C26.472 4.75537 26.9617 3.57376 27.5066 2.25746L30.4301 2.67378C30.6031 2.17175 30.8278 1.51666 31.056 0.837083C31.3432 0.0350602 31.6672 -0.179224 32.0575 0.145259C32.4478 0.469741 32.584 1.03914 32.3962 1.89627C32.1569 2.98604 31.855 4.03908 31.5899 5.07375C30.5258 5.68598 29.5317 4.96353 28.5191 5.17169C27.8306 5.63086 27.5692 6.80637 27.1531 7.71859C26.9709 8.16348 26.7118 8.50586 26.41 8.70046C26.1082 8.89506 25.778 8.93268 25.4631 8.80834C24.7267 8.61243 24.0197 7.87777 23.0845 8.33082L21.9284 13.4735L18.2795 12.3777C17.4069 13.6021 17.4216 15.6531 16.6263 16.9694L12.9922 17Z" fill="#F48F82"/>
</svg>
