<svg width="704" height="85" viewBox="0 0 704 85" fill="none" xmlns="http://www.w3.org/2000/svg">
<path d="M80 68.5551C80.3355 67.5874 80.3965 66.7835 80.8159 66.3153C83.1033 63.7398 83.6447 60.9615 82.0587 57.8007C81.8383 57.1467 81.6949 56.4682 81.6317 55.7794C82.3942 55.7248 83.027 55.4594 83.454 55.678C86.8776 57.4183 89.9733 57.3246 92.7564 54.3356C93.0538 54.0078 93.8239 54.1327 94.6779 54C94.6779 55.5609 94.8456 56.9578 94.7465 58.2924C94.6747 59.0395 94.8088 59.7923 95.1336 60.4654C95.4583 61.1385 95.9608 61.7051 96.5841 62.1009C97.1788 62.538 97.8269 62.8814 98.3759 63.3808C98.9249 63.8803 99.3366 64.4266 100 65.1524C99.5477 65.5935 99.0689 66.0053 98.5665 66.3855C98.2467 66.5734 97.8897 66.6855 97.5219 66.7133C94.472 67.0489 92.8098 68.7893 92.3751 71.9188C92.2608 72.6992 91.9939 73.7138 91.0103 73.9557C89.9047 74.2289 89.6531 73.1753 89.1346 72.5197C88.9635 72.3436 88.8172 72.144 88.6999 71.9266C87.5791 69.4604 85.711 68.5239 83.0957 68.8049C82.0584 68.8224 81.0218 68.7388 80 68.5551Z" fill="#9EC3F9"/>
<path d="M627.32 74.34C625.091 73.8081 623.206 73.5755 621.493 72.5252C621.037 70.2916 622.208 68.6163 623.477 67.1007C624.433 66.1203 625.475 65.2303 626.593 64.4416C627.459 63.8395 628.279 63.1728 629.046 62.4473C631.03 60.2204 630.429 58.0599 627.571 57.1292C626.679 56.8434 625.72 56.7902 624.8 56.5908C624.226 56.4902 623.699 56.2075 623.297 55.7839C622.895 55.3604 622.638 54.8184 622.565 54.2375C622.432 53.6595 622.519 53.0526 622.807 52.5352C623.096 52.0178 623.566 51.6269 624.126 51.4388C624.899 51.1132 625.735 50.9655 626.573 51.0068C629.314 51.1566 631.982 51.9488 634.364 53.3201C637.724 55.3875 638.504 58.3457 637.492 62.1149C637.078 63.7834 636.059 65.2365 634.635 66.1899C633.927 66.6553 633.312 67.2802 632.611 67.7123C630.131 69.2678 628.147 71.2222 627.32 74.34Z" fill="#F7CD82"/>
<path d="M622.28 84.1784C619.939 84.4111 617.942 82.3437 618.001 79.8176C618.061 78.7087 618.504 77.6555 619.254 76.8399C620.004 76.0243 621.013 75.4975 622.108 75.3504C624.403 75.1643 626.341 77.2782 626.487 79.7578C626.639 82.3437 624.503 84.4643 622.28 84.1784Z" fill="#F7CD82"/>
<path d="M698.772 23.9238L696.872 29C694.504 28.4479 694.566 25.9328 692.605 24.7519L687 24.3762C687.144 23.6025 687.379 22.8484 687.7 22.1294C688.167 21.5749 688.681 21.0618 689.237 20.5958C689.585 20.2462 689.822 19.8027 689.919 19.3202C690.016 18.8377 689.969 18.3375 689.783 17.8814C689.475 17.0833 689.218 16.2662 689.015 15.4353C688.954 14.7567 688.954 14.0742 689.015 13.3956L694.343 15.0672L699.241 12C700.509 14.0244 699.325 16.0947 700.056 17.912C701.086 19.3459 703.131 19.7983 704 21.6923C702.508 23.0956 700.448 22.8656 698.772 23.9238Z" fill="#F2870F"/>
<path d="M0 20V17.4286L5.37764 17.1261L8.24955 11.155L15.178 12.3435C16.8007 10.5716 16.5709 8.06508 17.6407 5.94028C20.1895 5.83944 22.5948 7.46005 25.3446 6.97747C26.2852 5.59455 27.2401 4.20442 28.3027 2.65584L34.0034 3.14562C34.3408 2.555 34.7788 1.78431 35.224 0.984804C35.784 0.0412473 36.4158 -0.210851 37.1769 0.170893C37.9379 0.552637 38.2035 1.22252 37.8373 2.2309C37.3707 3.51299 36.782 4.75186 36.265 5.96912C34.1901 6.68939 32.2516 5.83945 30.2771 6.08434C28.9345 6.62455 28.4247 8.00749 27.6134 9.0807C27.2581 9.60409 26.7528 10.0069 26.1644 10.2358C25.5759 10.4648 24.932 10.509 24.3179 10.3628C22.8819 10.1323 21.5034 9.26797 19.6798 9.80097L17.4253 15.8512L10.3101 14.562C8.60853 16.0025 8.63726 18.4154 7.08643 19.964L0 20Z" fill="#F48F82"/>
</svg>
