<svg width="1324" height="614" viewBox="0 0 1324 614" fill="none" xmlns="http://www.w3.org/2000/svg">
<path d="M1254.09 77.6108C1250.72 76.7862 1247.87 76.4254 1245.28 74.7968C1244.59 71.3334 1246.36 68.7357 1248.28 66.3855C1249.73 64.8655 1251.3 63.4853 1252.99 62.2624C1254.3 61.3287 1255.54 60.295 1256.7 59.17C1259.7 55.7169 1258.79 52.3668 1254.47 50.9237C1253.12 50.4805 1251.67 50.398 1250.28 50.0888C1249.41 49.9329 1248.62 49.4945 1248.01 48.8377C1247.4 48.181 1247.01 47.3406 1246.9 46.4398C1246.7 45.5435 1246.83 44.6025 1247.27 43.8003C1247.7 42.998 1248.42 42.3919 1249.26 42.1002C1250.43 41.5952 1251.69 41.3663 1252.96 41.4302C1257.11 41.6626 1261.14 42.891 1264.74 45.0173C1269.82 48.2231 1271 52.8101 1269.47 58.6546C1268.84 61.2418 1267.3 63.4949 1265.15 64.9734C1264.08 65.6949 1263.15 66.6639 1262.09 67.3339C1258.34 69.746 1255.34 72.7764 1254.09 77.6108Z" fill="#F7CD82"/>
<path d="M1246.47 92.8664C1242.93 93.2272 1239.91 90.0214 1240 86.1044C1240.09 84.385 1240.76 82.7519 1241.9 81.4872C1243.03 80.2225 1244.56 79.4056 1246.21 79.1776C1249.68 78.889 1252.61 82.1669 1252.83 86.0117C1253.06 90.0215 1249.83 93.3096 1246.47 92.8664Z" fill="#F7CD82"/>
<path d="M1316.31 30.648L1313.84 37.4718C1310.76 36.7297 1310.84 33.3487 1308.29 31.7613L1301 31.2562C1301.19 30.2161 1301.49 29.2024 1301.91 28.236C1302.52 27.4905 1303.19 26.8008 1303.91 26.1744C1304.36 25.7044 1304.67 25.1083 1304.8 24.4597C1304.92 23.811 1304.86 23.1385 1304.62 22.5254C1304.22 21.4525 1303.88 20.3542 1303.62 19.2372C1303.54 18.325 1303.54 17.4075 1303.62 16.4953L1310.55 18.7424L1316.92 14.6193C1318.57 17.3406 1317.03 20.1237 1317.98 22.5666C1319.32 24.4942 1321.98 25.1024 1323.11 27.6484C1321.17 29.5347 1318.49 29.2255 1316.31 30.648Z" fill="#F2870F"/>
<path d="M67 89.5054C67.4697 88.1587 67.5551 87.0401 68.1422 86.3885C71.3447 82.8046 72.1026 78.9383 69.8822 74.5399C69.5737 73.6299 69.3729 72.6856 69.2844 71.7272C70.3518 71.6512 71.2379 71.2819 71.8357 71.586C76.6286 74.0078 80.9626 73.8775 84.8589 69.718C85.2753 69.2619 86.3534 69.4356 87.549 69.251C87.549 71.4231 87.7838 73.367 87.645 75.2241C87.5446 76.2638 87.7323 77.3113 88.187 78.248C88.6417 79.1847 89.3452 79.9731 90.2177 80.5239C91.0503 81.1321 91.9577 81.61 92.7263 82.305C93.4948 83.0001 94.0713 83.7603 95 84.7703C94.3667 85.3841 93.6965 85.9572 92.9931 86.4862C92.5454 86.7477 92.0456 86.9037 91.5307 86.9424C87.2608 87.4094 84.9337 89.8312 84.3252 94.1861C84.1651 95.2722 83.7915 96.684 82.4144 97.0206C80.8666 97.4008 80.5143 95.9347 79.7884 95.0224C79.5489 94.7773 79.3441 94.4995 79.1799 94.197C77.6107 90.7652 74.9954 89.4619 71.334 89.8529C69.8817 89.8773 68.4305 89.7609 67 89.5054Z" fill="#9EC3F9"/>
<path d="M0 28.8104V25.1305L7.48999 24.6976L11.49 16.1523L21.14 17.8532C23.4 15.3174 23.0799 11.7303 24.5699 8.68945C28.1199 8.54513 31.47 10.8644 35.3 10.1738C36.6101 8.19467 37.94 6.20525 39.42 3.98906L47.36 4.68999C47.83 3.84474 48.4401 2.7418 49.0601 1.59762C49.8401 0.247292 50.72 -0.113488 51.78 0.432829C52.84 0.979146 53.2099 1.93783 52.7 3.38093C52.0499 5.21573 51.23 6.98869 50.51 8.73072C47.62 9.7615 44.92 8.54515 42.17 8.89562C40.3 9.66871 39.59 11.6479 38.46 13.1837C37.9652 13.9328 37.2614 14.5092 36.4418 14.8369C35.6221 15.1645 34.7253 15.2278 33.87 15.0185C31.87 14.6886 29.95 13.4517 27.41 14.2145L24.27 22.8731L14.36 21.028C11.99 23.0896 12.03 26.5427 9.87 28.7589L0 28.8104Z" fill="#F48F82"/>
<path d="M1300.21 602.864H1296.38C1294.21 599.428 1292.08 596.044 1290 592.711C1291.42 591.01 1291.42 591.01 1294.13 590L1298.82 596.896C1302.56 598.03 1306.2 595.494 1310.27 596.092C1312.55 599.287 1313.12 603.575 1315.69 607.09L1321.97 605.493C1323.72 606.74 1323.47 608.441 1323.45 610.069L1322.32 610.812L1312.45 613.543C1311.58 611.379 1310.71 609.183 1309.81 606.998C1309.41 605.939 1308.94 604.906 1308.42 603.905C1308.1 603.146 1307.54 602.524 1306.83 602.148C1306.11 601.771 1305.29 601.664 1304.51 601.844C1303.43 602.071 1302.35 602.266 1301.26 602.462L1300.21 602.864Z" fill="#56C1A8"/>
</svg>
