<svg width="1440" height="694" viewBox="0 0 1440 694" fill="none" xmlns="http://www.w3.org/2000/svg">
<path d="M1442.07 407.393V666.14L1440.51 666.972L1426.21 667.704C1425.85 667.486 1425.44 667.376 1425.02 667.389C1424.6 667.403 1424.2 667.538 1423.85 667.779C1416.61 668.087 1409.36 668.353 1402.11 668.72C1395.14 669.061 1388.16 669.551 1381.18 669.893C1373.27 670.292 1365.36 670.508 1357.46 670.991C1343.1 671.881 1328.72 671.823 1314.34 671.964C1301.68 672.072 1289.02 671.906 1276.35 671.848C1275.52 671.848 1274.77 671.723 1273.98 671.665L1263.65 671.823L1258.93 671.731L1239.87 670.999L1238.31 670.949L1224.85 670.217L1223.29 670.151C1217.5 669.651 1211.72 669.219 1205.94 668.62C1196.5 667.643 1187.07 666.606 1177.63 665.508C1168.47 664.403 1159.39 662.752 1150.42 660.566C1144.36 659.244 1138.44 657.375 1132.71 654.983C1129.57 653.619 1126.53 652.025 1123.62 650.216C1121.64 648.914 1119.84 647.337 1118.29 645.532C1115.11 641.955 1114.5 637.72 1116.08 633.252C1116.72 631.511 1117.58 629.859 1118.63 628.335C1120.59 625.448 1124.41 622.511 1127.53 620.847C1135.35 616.687 1143.79 614.707 1152.46 613.526C1156.24 613.01 1160.07 612.843 1163.87 612.486C1165.18 612.361 1166.48 612.136 1167.78 611.953H1182.85C1183.6 612.16 1184.38 612.301 1185.16 612.378C1197.7 612.744 1210.08 614.557 1222.45 616.396L1230.04 617.91C1227.19 616.554 1225.02 615.348 1222.53 614.965C1219.3 613.476 1216.06 612.003 1212.85 610.489C1211.78 609.99 1210.78 609.374 1209.75 608.825C1208.87 608.583 1208.01 608.283 1207.18 607.926C1199.18 603.883 1191.19 599.798 1183.23 595.746C1180 594.082 1176.74 592.568 1173.5 590.979L1172.5 590.48C1171.06 588.816 1168.9 588.375 1167.13 587.26C1166.05 586.586 1164.76 586.22 1163.77 585.047L1171 580.005C1171.36 579.934 1171.71 579.804 1172.03 579.622C1172.34 579.356 1173.03 579.281 1172.68 578.391L1170.95 578.574L1160.68 579.148L1157.54 579.248C1155.33 579.148 1152.99 579.481 1150.93 578.815C1149.06 578.208 1147.55 576.511 1145.88 575.313C1144.45 574.195 1142.85 573.318 1141.14 572.717C1141.14 572.601 1141.09 572.491 1141.03 572.398C1140.96 572.305 1140.86 572.234 1140.76 572.193C1140.47 571.76 1140.29 571.203 1139.93 570.936C1137.34 568.992 1135.03 566.69 1133.08 564.098C1132.04 562.776 1131.21 561.303 1130.6 559.73C1128.68 554.671 1129.86 550.32 1133.52 546.609C1135.47 544.502 1137.91 542.913 1140.62 541.983C1146.19 540.143 1152.05 539.299 1157.91 539.487C1160.07 541.651 1160.87 544.895 1162.87 547.316C1162.91 547.88 1163.1 548.423 1163.42 548.891C1163.73 549.359 1164.16 549.736 1164.67 549.987C1164.55 548.906 1164.46 548.049 1164.37 547.183C1164.47 544.837 1163.4 542.533 1164.11 539.903C1164.74 539.903 1165.36 539.779 1165.98 539.787C1172.18 539.879 1178.37 540.136 1184.56 540.053C1199.73 539.745 1214.83 542.148 1229.17 547.15C1229.99 547.45 1230.93 547.658 1231.83 547.907C1232.65 548.847 1233.79 548.889 1234.9 549.047C1237.7 550.606 1240.73 551.712 1243.87 552.325C1241.34 550.661 1238.91 548.856 1235.94 548.074L1231.28 545.42C1227.22 542.732 1223.15 540.07 1219.11 537.333C1218.23 536.76 1217.47 536.006 1216.88 535.12C1215.94 533.547 1215.23 531.792 1214.36 530.003C1214.95 529.463 1215.6 528.973 1216.27 528.539C1217.78 527.707 1219.35 527.033 1220.89 526.284C1225.38 524.703 1225.38 524.703 1227.02 522.864L1220.9 523.197C1218.58 523.131 1216.26 523.031 1213.95 523.014C1212.8 523.04 1211.67 522.777 1210.65 522.249C1210.25 522.047 1209.91 521.736 1209.67 521.35C1209.44 520.965 1209.32 520.521 1209.32 520.069C1206.2 516.872 1203.3 513.455 1200.66 509.844C1198.45 506.94 1196.18 504.087 1194.22 500.992C1190.83 495.82 1187.88 490.365 1185.42 484.685C1184.04 481.378 1183.06 477.917 1182.5 474.376C1182.11 471.874 1182.28 469.315 1183 466.889C1183.4 465.196 1184.27 463.654 1185.51 462.441C1186.75 461.228 1188.3 460.396 1189.99 460.041C1192.7 459.429 1195.5 459.325 1198.25 459.734C1203.87 460.463 1209.39 461.825 1214.71 463.794C1224.84 467.554 1234.89 471.523 1244.98 475.375C1245.68 475.585 1246.31 475.948 1246.85 476.439C1247.38 476.93 1247.8 477.536 1248.07 478.212C1248.82 480.184 1249.63 482.131 1250.4 484.094L1254.11 491.391L1255.05 494.544C1255.05 494.793 1255.05 495.134 1255.18 495.284C1255.32 495.434 1255.86 495.858 1256.01 495.767C1256.65 495.459 1256.5 494.993 1256.01 494.594L1255.54 491.266C1255.22 487.588 1254.9 483.919 1254.55 479.909C1255.36 479.992 1256.17 480.148 1256.95 480.375C1261.71 482.33 1266.39 484.468 1271.18 486.299C1279.44 489.46 1287.7 492.697 1296.46 494.094C1298.01 494.44 1299.62 494.398 1301.15 493.97C1302.87 493.396 1303.56 492.239 1302.88 490.642C1302.25 489.33 1301.54 488.063 1300.75 486.848C1299.91 485.664 1299.15 484.43 1298.46 483.154C1294.67 474.834 1290.96 466.473 1287.23 458.128C1287.1 457.759 1286.99 457.38 1286.9 456.996C1284.61 451.63 1282.24 446.297 1280.06 440.889C1273.33 424.57 1267.51 407.881 1262.63 390.904C1260.46 383.376 1258.8 375.706 1257.68 367.949C1256.99 362.937 1256.87 357.864 1257.31 352.824C1257.6 349.562 1258.9 346.675 1260.3 343.822C1260.81 343.072 1261.53 342.479 1262.35 342.108C1265.74 340.178 1269.4 340.144 1273.09 340.718C1281.45 342.095 1289.49 344.976 1296.83 349.221C1305.2 354.032 1313.04 359.733 1320.21 366.227C1320.82 366.731 1321.31 367.367 1321.64 368.087C1321.97 368.808 1322.13 369.594 1322.12 370.387C1322.18 372.883 1322.33 375.437 1322.43 377.958V381.486C1322.92 381.241 1323.34 380.876 1323.65 380.425C1323.96 379.974 1324.15 379.452 1324.2 378.906L1327.51 373.69C1328.05 374.039 1328.57 374.425 1329.07 374.846C1331.61 377.342 1334.14 379.858 1336.67 382.392C1337.05 382.75 1337.38 383.165 1337.65 383.624C1339.58 387.476 1343.22 389.905 1345.61 393.383C1346.28 394.171 1347.03 394.882 1347.86 395.504C1347.81 395.747 1347.82 395.996 1347.89 396.233C1347.95 396.471 1348.06 396.692 1348.22 396.88C1348.38 397.068 1348.58 397.218 1348.8 397.32C1349.02 397.421 1349.26 397.472 1349.51 397.468C1349.69 398.849 1350.74 399.556 1351.69 400.33C1351.73 400.589 1351.73 400.853 1351.69 401.112L1353.45 402.476C1354.84 404.748 1356.12 407.102 1358.54 408.483C1358.92 409.876 1359.61 411.163 1360.56 412.244C1361.09 413.558 1361.75 414.682 1363.86 414.615L1362.62 412.302L1360.31 408.225C1359.93 407.111 1359.62 405.971 1359.16 404.897C1357.16 400.122 1355.11 395.371 1353.1 390.596C1352.83 389.855 1352.6 389.1 1352.41 388.333C1352.16 388.034 1351.94 387.707 1351.76 387.359C1346.05 373.066 1340.95 358.556 1337.77 343.447C1336.68 338.264 1336.04 332.989 1335.29 327.739C1335.21 326.509 1335.21 325.275 1335.29 324.045C1338.6 322.947 1342.08 323.213 1345.37 322.381C1345.88 322.598 1346.44 322.598 1346.49 321.957C1346.49 321.699 1345.84 321.408 1345.49 321.125C1342.3 318.569 1338.96 316.194 1335.5 314.012C1335.37 313.685 1335.3 313.333 1335.32 312.98C1335.75 308.212 1336.94 303.545 1338.83 299.152C1341.03 294.26 1344.83 290.833 1348.66 287.355C1354.99 284.277 1361.43 282.421 1368.48 284.942C1372.09 286.236 1375.49 288.062 1378.57 290.358C1383.65 294.208 1388.2 298.702 1392.13 303.728C1394.61 306.832 1396.91 310.076 1399.3 313.263C1399.37 313.898 1399.34 314.541 1399.22 315.168C1398.3 317.664 1398.54 320.21 1398.5 322.756C1398.39 322.814 1398.21 322.847 1398.17 322.947C1396.7 326.325 1396.41 329.919 1396.23 333.638C1398.03 332.152 1399.58 330.379 1400.81 328.388C1401.03 328.006 1400.81 327.373 1400.81 326.849C1401.95 326.849 1402.66 326.117 1403.49 325.46C1405.48 323.871 1406.23 324.17 1407.23 326.824C1407.76 327.19 1408.24 327.636 1408.64 328.147C1410.56 331.625 1412.41 335.144 1414.3 338.638C1415.95 341.658 1417.6 344.662 1419.25 347.682C1419.5 348.133 1419.72 348.596 1419.92 349.071C1420.42 350.294 1420.75 351.567 1421.37 352.749C1425.34 360.694 1428.94 368.798 1432.24 377.051C1433.51 380.246 1434.91 383.391 1436.16 386.602C1437.35 389.672 1438.55 392.759 1439.46 395.92C1440.29 398.583 1439.96 401.228 1437.88 403.333C1437.02 404.332 1436.01 405.176 1434.87 405.829C1436.01 405.297 1438.33 408.325 1439.63 408.151C1440.49 408.067 1441.32 407.809 1442.07 407.393Z" fill="url(#paint0_linear_534_11514)"/>
<path d="M1442.07 270.865V321.965C1440.87 320.875 1440.56 319.286 1439.98 317.889C1436.99 310.684 1433.99 303.487 1431.19 296.207C1429.14 291.039 1427.61 285.68 1426.62 280.208C1426.3 277.724 1426.1 275.225 1426.03 272.72C1426.02 272.19 1426.07 271.66 1426.17 271.14C1426.68 268.203 1428.5 266.638 1431.43 267.071C1433.63 267.435 1435.79 268.009 1437.88 268.785C1439.32 269.381 1440.72 270.076 1442.07 270.865Z" fill="#EE6D10"/>
<path d="M1437.95 325.451C1439.3 325.766 1440.68 325.947 1442.08 325.992V407.393C1441.31 407.811 1440.47 408.066 1439.6 408.142C1438.3 408.292 1435.98 405.289 1434.84 405.821C1435.98 405.168 1436.99 404.324 1437.85 403.325C1439.93 401.22 1440.22 398.574 1439.43 395.912C1438.5 392.751 1437.3 389.664 1436.13 386.594C1434.88 383.382 1433.48 380.238 1432.21 377.043C1428.9 368.789 1425.31 360.686 1421.34 352.74C1420.75 351.567 1420.39 350.244 1419.89 349.063C1419.69 348.588 1419.47 348.124 1419.22 347.674C1417.57 344.654 1415.92 341.65 1414.27 338.63C1412.38 335.136 1410.53 331.616 1408.61 328.139C1408.21 327.628 1407.73 327.182 1407.19 326.816C1406.2 324.162 1405.44 323.862 1403.45 325.451C1402.63 326.109 1401.92 326.866 1400.78 326.841L1398.47 322.747C1398.47 320.202 1398.27 317.639 1399.19 315.16C1399.31 314.532 1399.34 313.89 1399.27 313.255C1402.15 312.8 1405.1 313.086 1407.85 314.086C1412.19 315.634 1416.51 317.251 1420.81 318.937C1421.5 319.274 1422.1 319.791 1422.53 320.435C1423.04 321.209 1423.48 322.021 1423.86 322.864C1423.86 323.421 1424 323.97 1424.28 324.451C1424.56 324.931 1424.96 325.326 1425.45 325.593C1425.27 324.461 1425.13 323.638 1425.01 322.806C1425.12 322.323 1425.23 321.841 1425.41 321.075C1426.23 321.308 1426.78 321.45 1427.35 321.658C1430.89 322.881 1434.39 324.278 1437.95 325.451Z" fill="#EE6D10"/>
<path d="M-161.84 454.583C-160.556 452.607 -159.256 450.63 -157.997 448.636C-156.341 446.075 -154.792 443.514 -154.089 440.486C-153.617 438.442 -152.838 436.465 -152.316 434.43C-150.817 428.683 -151.323 422.802 -151.72 417.021C-152.103 413.199 -153.101 409.466 -154.677 405.968C-156.101 402.532 -158.155 399.529 -160.068 396.4C-160.484 395.596 -160.835 394.759 -161.119 393.898C-159.529 393.831 -157.948 393.723 -156.366 393.723H7.31366C8.77116 393.723 10.2287 393.723 11.6862 393.723C18.2352 393.859 24.5226 396.337 29.4247 400.713C39.1883 409.213 42.9232 424.27 37.1263 437.266C33.2092 446.058 26.6919 451.939 17.2512 454.133C14.6534 454.626 12.0093 454.828 9.3674 454.734C-46.3932 454.767 -102.154 454.767 -157.914 454.734C-159.198 454.725 -160.515 454.634 -161.84 454.583Z" fill="#F9E0B2"/>
<path d="M-177.445 567.279C-180.683 563.626 -180.575 558.337 -180.31 553.424C-180.095 549.578 -180.459 545.699 -180.186 541.854C-179.813 536.557 -178 531.736 -174.008 528.065C-172.078 526.289 -169.83 524.899 -167.383 523.969C-163.18 522.377 -158.714 521.607 -154.224 521.701C-142.738 521.809 -131.252 521.701 -119.757 521.701H-118.929C-117.116 521.634 -115.236 522.259 -113.53 521.142C-109.091 522.051 -104.603 521.842 -100.131 521.842H41.4792V528.14C30.225 528.14 18.9707 527.982 7.71642 528.232C-3.04925 528.474 -11.8108 536.098 -13.0696 547.551C-13.3941 550.542 -13.0919 553.568 -12.1826 556.434C-11.2733 559.3 -9.77709 561.942 -7.79072 564.189C-5.80435 566.436 -3.37203 568.238 -0.650943 569.479C2.07015 570.719 5.01947 571.371 8.00629 571.392C18.4656 571.392 28.9248 571.392 39.384 571.392C40.1708 571.392 40.9658 571.3 41.7525 571.25H42.0506H42.3488H69.4534C70.7701 571.292 72.0868 571.375 73.4036 571.375H174.435C175.752 571.375 177.069 571.292 178.385 571.25L179.843 571.383L184.514 577.631C183.056 577.631 181.599 577.631 180.141 577.631C67.7364 577.631 -44.6682 577.631 -157.073 577.631C-158.522 577.631 -159.98 577.523 -161.429 577.465C-164.112 578.24 -166.596 582.411 -169.081 575.379H-169.039C-169.712 575.213 -170.343 574.909 -170.893 574.486C-171.443 574.062 -171.9 573.528 -172.236 572.918H-172.194L-173.188 572.084C-173.669 571.734 -174.298 571.517 -174.637 571.016C-175.487 569.707 -176.425 568.458 -177.445 567.279Z" fill="#86B0F1"/>
<path d="M55.1509 390.269C56.6002 390.336 58.0494 390.444 59.4986 390.453C76.3924 390.453 93.2945 390.57 110.188 390.394C116.631 390.328 122.809 391.012 128.705 393.681C129.881 394.615 131.041 395.566 132.606 395.741C133.155 396.471 133.753 397.162 134.395 397.81C141.079 403.629 145.24 411.849 145.988 420.716C147.032 431.561 143.827 440.987 136.357 448.819C132.572 452.973 127.596 455.836 122.122 457.011C119.289 457.845 116.383 457.72 113.484 457.72H-104.123C-107.021 457.72 -109.92 457.628 -112.76 458.396C-114.019 457.32 -115.535 457.778 -116.901 457.778C-131.653 457.734 -146.404 457.734 -161.156 457.778C-162.465 457.778 -163.781 457.92 -165.09 457.987C-165.918 457.687 -166.572 457.153 -166.233 456.235C-166.117 455.943 -165.942 455.678 -165.72 455.457C-165.497 455.236 -165.232 455.064 -164.941 454.951C-163.912 454.744 -162.868 454.621 -161.819 454.584C-160.494 454.634 -159.177 454.725 -157.852 454.725C-102.091 454.725 -46.3307 454.725 9.42997 454.725C12.0719 454.819 14.716 454.618 17.3138 454.125C26.7462 451.931 33.2635 446.05 37.1889 437.258C42.9858 424.287 39.2426 409.23 29.479 400.696C24.5769 396.32 18.2894 393.842 11.7404 393.706C10.2829 393.706 8.82545 393.706 7.36794 393.706H-156.37C-157.951 393.706 -159.533 393.815 -161.123 393.881C-162.133 393.806 -163.152 393.756 -164.162 393.664C-165.769 393.514 -165.926 393.264 -165.901 391.087L-165.123 390.528C-163.4 390.528 -161.678 390.469 -159.964 390.469C-91.2953 390.469 -22.6296 390.469 46.0332 390.469C49.0725 390.436 52.1117 390.328 55.1509 390.269Z" fill="#4970B6"/>
<path d="M-112.769 458.387C-109.929 457.62 -107.03 457.712 -104.132 457.712H113.484C116.382 457.712 119.281 457.795 122.121 457.003C123.355 458.162 124.879 457.662 126.262 457.67C138.899 457.712 151.544 457.67 164.19 457.67C165.242 457.67 166.302 457.628 167.345 457.72C169.366 457.895 170.186 459.23 169.341 461.007C168.711 462.308 167.9 463.509 167.171 464.785C165.714 464.785 164.256 464.685 162.807 464.685H-12.425C-13.7501 464.685 -15.075 464.685 -16.4001 464.727C-25.7579 464.911 -35.7451 471.684 -38.7181 482.712C-39.4389 485.696 -39.718 488.771 -39.5462 491.837C-39.1736 505.726 -27.7537 515.403 -16.2261 515.544C-14.9011 515.544 -13.5761 515.544 -12.2511 515.544L41.3868 515.603C41.3868 517.663 41.3868 519.732 41.4282 521.792H-100.182C-104.654 521.792 -109.142 522.001 -113.581 521.092L-118.21 520.116L-119.866 519.515L-120.628 519.315L-122.21 518.639C-122.289 518.554 -122.388 518.49 -122.498 518.453C-122.608 518.417 -122.726 518.409 -122.839 518.431L-123.8 517.913C-123.886 517.818 -123.993 517.746 -124.113 517.702C-124.233 517.658 -124.361 517.645 -124.487 517.663L-125.39 517.129C-125.468 517.03 -125.57 516.953 -125.686 516.905C-125.802 516.857 -125.928 516.839 -126.053 516.854L-126.98 516.262L-128.794 515.311L-129.373 514.744L-131.998 512.908L-132.553 512.341C-133.564 511.507 -134.789 510.881 -135.535 509.839C-137.304 507.586 -138.873 505.179 -140.222 502.648C-144.288 494.373 -144.47 486.14 -140.628 477.732C-138.711 473.537 -135.917 469.81 -132.437 466.804C-131.711 466.264 -130.944 465.782 -130.143 465.361C-129.97 465.194 -128.057 463.943 -128.057 463.943L-127.816 463.818L-127.187 463.251C-125.978 462.133 -124.388 461.891 -122.922 461.374L-121.672 460.798L-120.479 460.189L-119.933 460.014L-118.086 459.38L-117.515 459.221L-116.595 459.13L-112.769 458.387Z" fill="#38558A"/>
<path d="M-201.617 659.154H-191.306L-188.234 659.213C-184.797 659.288 -181.352 659.421 -177.916 659.421C-52.1615 659.421 73.5954 659.421 199.355 659.421C200.804 659.421 202.262 659.421 203.719 659.355C205.326 660.475 206.472 662.148 206.941 664.059C205.491 664.101 204.034 664.185 202.585 664.185C15.3117 664.185 -171.959 664.185 -359.226 664.185C-361.031 664.185 -362.936 664.752 -364.642 663.617C-364.646 663.578 -364.659 663.54 -364.681 663.508C-364.702 663.475 -364.731 663.448 -364.766 663.429C-364.8 663.41 -364.838 663.4 -364.877 663.399C-364.916 663.399 -364.955 663.408 -364.99 663.425C-365.436 663.125 -365.745 662.659 -365.851 662.129C-365.957 661.599 -365.849 661.048 -365.553 660.598C-365.322 660.193 -364.983 659.861 -364.575 659.64C-364.167 659.419 -363.705 659.317 -363.242 659.346H-360.062H-315.567C-313.853 659.346 -312.13 659.296 -310.416 659.271C-309.77 659.271 -309.108 659.363 -308.453 659.363H-270.757C-269.97 659.363 -269.175 659.246 -268.389 659.18C-267.204 659.238 -266.028 659.355 -264.844 659.355C-244.969 659.355 -225.075 659.355 -205.161 659.355C-203.977 659.355 -202.801 659.238 -201.617 659.154Z" fill="#1C4655"/>
<path d="M206.941 664.076C206.475 662.166 205.328 660.495 203.72 659.38C200.874 655.07 197.663 651.018 194.122 647.268C189.402 641.256 184.684 635.242 179.969 629.225C179.335 628.553 178.477 628.14 177.559 628.065C178.023 627.306 178.106 626.572 177.303 625.996C175.174 624.495 173.278 622.66 170.843 621.6C168.823 620.724 166.843 619.732 164.848 618.797C165.235 618.715 165.628 618.662 166.024 618.639C173.941 618.639 181.857 618.564 189.774 618.706C191.88 618.795 193.96 619.205 195.944 619.924C202.592 622.253 208.473 626.387 212.937 631.869C214.204 633.395 215.421 634.997 216.655 636.532C219.686 640.202 222.723 643.864 225.765 647.518C227.421 649.703 228.953 651.939 230.667 654.049C232.208 655.96 233.914 657.736 235.553 659.572C236.399 661.469 237.782 663.074 239.528 664.184C239.456 664.511 239.494 664.853 239.637 665.155C239.779 665.457 240.018 665.703 240.315 665.853C242.725 668.981 245.118 672.126 247.569 675.229C252.24 681.151 256.933 687.066 261.648 692.972C261.706 693.047 261.648 693.205 261.648 693.322C261.465 693.489 261.3 693.797 261.126 693.797C251.188 693.797 241.251 693.797 231.313 693.797C229.4 691.912 228.084 689.627 226.394 687.641C224.705 685.656 223.156 683.612 221.541 681.593C219.645 679.241 217.749 676.88 215.96 674.445C214.726 672.776 212.796 671.634 212.184 669.49C210.328 668.514 209.749 666.453 208.432 665.019L207.712 664.435L206.941 664.076Z" fill="#375985"/>
<path d="M239.549 664.159C237.803 663.049 236.42 661.444 235.574 659.546C237.156 659.505 238.738 659.421 240.319 659.421C266.897 659.421 293.469 659.421 320.035 659.421C321.608 659.421 323.19 659.271 324.772 659.196L338.113 659.271H339.769L341.508 659.23C343.488 659.271 345.475 659.338 347.463 659.338H467.053C468.378 659.338 469.703 659.338 471.019 659.446C471.54 659.544 472.016 659.81 472.373 660.205C472.73 660.599 472.95 661.1 472.999 661.632C472.971 662.165 472.789 662.678 472.474 663.107C472.158 663.536 471.725 663.861 471.226 664.043C470.71 664.159 470.182 664.212 469.653 664.201C468.593 664.201 467.533 664.201 466.473 664.201H374.302C372.845 664.201 371.396 664.31 369.946 664.368C368.762 664.31 367.578 664.201 366.394 664.201H244.684C243.499 664.201 242.315 664.31 241.131 664.368L239.549 664.159Z" fill="#1C4655"/>
<path d="M239.551 664.159L241.132 664.359Z" fill="#F9FBFE"/>
<path d="M316.088 589.802C315.334 591.637 314.63 593.489 313.827 595.307C311.817 600.081 310.407 605.089 309.628 610.214C309.574 610.875 309.574 611.539 309.628 612.199C309.628 612.541 309.554 612.883 309.512 613.225C309.512 613.959 309.512 614.693 309.512 615.427C309.512 616.162 309.289 616.737 309.264 617.396C308.891 626.194 310.639 634.952 314.357 642.922C315.011 644.348 315.458 645.866 316.013 647.343H230.906C229.192 647.343 227.478 647.451 225.772 647.51C222.724 643.85 219.688 640.188 216.663 636.524C215.395 634.989 214.178 633.387 212.944 631.861C208.473 626.39 202.59 622.268 195.943 619.949C193.959 619.23 191.879 618.82 189.773 618.731C181.856 618.589 173.939 618.664 166.023 618.664C165.627 618.688 165.234 618.741 164.847 618.823H160.01L158.412 619.315C154.561 620.641 152.681 623.319 152.872 627.439C152.872 628.023 153.187 628.182 153.7 628.065H177.558C178.476 628.14 179.334 628.553 179.968 629.225C184.666 635.275 189.384 641.289 194.121 647.268C186.047 647.268 177.972 647.343 169.898 647.343C128.856 647.343 87.8113 647.343 46.7637 647.343C43.4562 647.399 40.1575 646.98 36.967 646.1C30.0378 644.042 24.1399 639.417 20.4613 633.154C16.7826 626.892 15.5964 619.458 17.1416 612.349C17.9673 608.277 19.6849 604.441 22.1691 601.122C24.6533 597.803 27.8416 595.084 31.5013 593.164C36.096 590.748 41.2267 589.553 46.4077 589.693C135.249 589.744 224.088 589.757 312.924 589.735L316.088 589.802Z" fill="#F9DFB1"/>
<path d="M324.351 578.099C324.202 578.674 324.227 579.141 324.012 579.375C321.415 582.219 319.128 585.334 317.188 588.667C316.862 589.084 316.493 589.464 316.087 589.802C315.333 591.637 314.629 593.489 313.826 595.307C311.816 600.081 310.406 605.089 309.627 610.214C309.573 610.875 309.573 611.539 309.627 612.199L311.466 612.316C312.691 611.857 313.95 611.482 315.134 610.931C325.85 605.559 336.553 600.162 347.241 594.74C347.683 594.47 348.104 594.166 348.5 593.831C350.048 593.114 351.647 592.471 353.137 591.645C354.628 590.82 356.566 590.419 357.775 588.709L350.984 584.18C350.881 584.112 350.807 584.008 350.777 583.888C350.78 583.69 350.808 583.494 350.86 583.304C351.597 583.304 352.367 583.304 353.137 583.304C357.107 583.482 361.071 583.671 365.029 583.871C366.34 584.081 367.683 583.865 368.863 583.254C373.724 580.242 378.445 577.056 382.403 572.86C384.078 571.145 385.425 569.135 386.378 566.929C387.058 565.399 387.319 563.713 387.134 562.047C386.949 560.381 386.325 558.794 385.327 557.453C383.627 555.048 381.267 553.195 378.536 552.123C373.425 550.05 367.899 549.232 362.412 549.737C361.195 551.931 360.002 554.141 358.744 556.31C358.355 556.823 357.914 557.293 357.427 557.712C356.814 554.909 358.255 552.465 357.717 550.104C357.38 549.957 357.027 549.85 356.665 549.787C346.214 550.062 335.755 550.146 325.32 550.73C319.634 551.033 314.02 552.156 308.65 554.066C304.037 555.146 299.515 556.591 295.127 558.387C294.168 558.917 293.061 559.114 291.98 558.946C294.704 557.344 293.048 558.179 295.292 556.969C299.127 554.617 303.019 552.365 306.762 549.87C308.589 548.558 310.293 547.081 311.855 545.458C313.117 544.263 313.945 542.677 314.207 540.953C313.089 540.386 312.17 539.885 311.217 539.452C309.164 538.534 307.077 537.666 305.04 536.732C304.518 536.49 303.731 536.34 304.013 535.214H316.65C325.229 525.73 332.972 515.82 338.355 504.225C339.416 501.935 340.286 499.561 340.955 497.126C341.784 494.04 342.297 490.895 341.452 487.667C340.376 483.496 337.974 481.177 333.684 480.918C331.048 480.737 328.399 480.865 325.792 481.302C322.27 481.984 318.791 482.878 315.375 483.98C306.124 486.799 297.288 490.728 288.286 494.223C287.491 494.513 286.769 494.974 286.169 495.575C285.57 496.176 285.108 496.902 284.817 497.702C283.268 501.372 281.637 505.017 279.972 508.646C279.674 509.288 279.633 510.222 278.597 510.431C278.341 506.452 279.898 502.556 279.243 498.602C277.662 498.227 276.56 499.136 275.376 499.629C266.821 503.199 258.292 506.827 249.331 509.238C247.033 509.845 244.695 510.283 242.334 510.548C240.81 510.731 238.947 511.007 238.094 509.238C237.365 507.753 238.251 506.31 239.187 505.209C241.207 502.832 242.367 500.004 243.625 497.226C245.933 492.138 248.216 487.038 250.474 481.928C250.946 480.843 251.302 479.684 251.65 478.591C252.127 477.807 252.563 477 252.959 476.172C258.325 463.417 263.409 450.554 267.815 437.425C271.409 426.697 274.655 415.862 276.486 404.659C277.243 400.597 277.601 396.47 277.554 392.338C277.55 389.399 276.988 386.489 275.898 383.763C274.366 380.276 271.757 378.324 267.873 378.299C267.045 378.299 266.283 378.299 265.488 378.357C260.472 378.775 255.557 380.015 250.938 382.028C242.524 385.473 235.046 390.469 228.024 396.209C225.771 398.044 223.61 399.996 221.481 401.831C221.382 405.568 221.283 409.021 221.183 412.483C221.186 412.544 221.176 412.605 221.155 412.663C221.133 412.72 221.101 412.772 221.059 412.817C220.968 412.892 220.811 412.892 220.512 412.967L216.703 406.811C215.817 407.57 215.047 408.112 214.459 408.738C207.843 415.457 201.582 422.521 195.702 429.901C195.387 430.332 195.11 430.789 194.874 431.269L189.383 437.65C188.709 439.491 187.566 441.122 186.071 442.38C185.913 441.996 185.681 441.712 185.748 441.546C186.576 439.677 187.52 437.833 188.406 435.973C189.963 432.336 191.517 428.697 193.068 425.054C194.368 422.001 195.743 418.981 196.952 415.878C202.053 402.849 206.501 389.61 208.902 375.771C209.556 371.993 210.384 368.197 210.028 364.235C208.538 363.359 206.923 363.401 205.374 363.259C203.826 363.117 202.269 363.117 200.521 362.116C203.66 359.48 207.097 357.712 210.103 354.976C209.482 347.994 207.618 341.454 202.542 336.24C195.776 329.258 186.675 327.331 177.872 331.986C175.65 333.169 173.533 334.542 171.545 336.09C164.771 341.37 159.612 348.111 154.734 355.151C155.745 360.715 156.738 366.187 157.856 372.368C157.169 371.838 156.513 371.267 155.894 370.658C154.328 368.856 152.821 366.988 151.248 365.194C150.634 364.604 149.975 364.062 149.277 363.576C146.287 368.906 143.024 373.753 140.871 379.217C140.405 379.839 139.979 380.491 139.596 381.169C137.236 386.023 134.917 390.895 132.582 395.758C133.131 396.488 133.729 397.179 134.371 397.827C141.055 403.645 145.216 411.866 145.964 420.733C147.008 431.577 143.803 441.003 136.333 448.836C132.548 452.99 127.572 455.853 122.098 457.028C123.332 458.187 124.855 457.687 126.238 457.695C138.876 457.737 151.521 457.695 164.167 457.695C165.218 457.695 166.278 457.653 167.322 457.745C169.342 457.92 170.162 459.255 169.318 461.032C168.688 462.333 167.877 463.534 167.148 464.81C165.798 468.839 164.175 472.802 163.156 476.914C160.324 488.242 161.301 499.378 165.475 510.281C166.138 512.016 166.797 513.754 167.454 515.494C168.026 516.387 168.597 517.271 169.16 518.172C169.481 518.679 169.672 519.258 169.717 519.858C169.762 520.458 169.659 521.059 169.417 521.609H183.702C184.365 522.643 183.702 523.044 183.363 523.536L179.81 528.19C179.462 529.025 179.156 529.909 178.758 530.693C172.823 543.022 172.683 555.415 178.336 567.872C178.725 568.706 179.081 569.54 179.454 570.374L179.835 571.333L184.505 577.581C186.36 577.581 188.215 577.673 190.062 577.673H319.615C321.171 577.765 322.728 577.54 324.351 578.099Z" fill="url(#paint1_linear_534_11514)"/>
<path d="M395.453 642.596C393.298 644.565 390.871 646.208 388.248 647.476C382.636 650.162 376.749 652.221 370.692 653.616C363.239 655.467 355.711 656.827 348.126 657.928C345.906 658.245 343.728 658.812 341.501 659.263L339.753 659.305C339.198 658.612 338.66 658.687 338.097 659.305L324.756 659.23C324.717 658.969 324.633 658.718 324.507 658.487C321.926 655.388 319.553 652.119 317.402 648.702C316.981 648.205 316.506 647.758 315.986 647.368C315.439 645.891 314.992 644.373 314.33 642.947C310.612 634.977 308.864 626.219 309.237 617.421C309.237 616.762 309.402 616.111 309.485 615.452C314.454 614.818 319.423 614.151 324.391 613.567C338.307 611.78 352.383 611.651 366.328 613.184C371.978 613.797 377.537 615.077 382.89 616.996C385.893 618.043 388.753 619.467 391.404 621.233C394.091 622.963 396.308 625.34 397.855 628.148C400.67 633.495 399.842 638.475 395.453 642.596Z" fill="url(#paint2_linear_534_11514)"/>
<path d="M128.707 393.681C122.81 391.012 116.633 390.344 110.19 390.394C93.2959 390.57 76.3938 390.461 59.5 390.453C58.0508 390.453 56.6016 390.336 55.1523 390.269C55.1523 388.726 56.9742 340.077 57.5291 333.304C58.46 320.538 61.2733 307.982 65.8766 296.05C67.7894 291.292 70.2314 286.766 73.1558 282.562C74.4515 280.586 75.9964 278.789 77.7519 277.215C79.9247 275.226 82.3138 273.491 84.8738 272.043C88.9236 269.828 93.3171 268.322 97.8672 267.588C107.805 266.229 117.394 266.963 126.123 272.593C126.809 272.979 127.523 273.311 128.259 273.586C130.032 275.171 131.887 276.673 133.584 278.341C138.175 282.872 141.254 288.728 142.396 295.099C139.986 298.269 136.599 300.513 134.015 303.816C135.82 304.108 136.971 303.032 138.28 302.548C139.588 302.065 140.946 301.447 142.578 300.755C142.803 301.511 142.95 302.288 143.017 303.074C142.801 307.995 142.719 312.942 142.238 317.839C140.077 339.735 135.721 361.257 131.141 382.737C130.363 386.382 129.527 390.044 128.707 393.681Z" fill="url(#paint3_linear_534_11514)"/>
<path d="M309.492 613.225C309.534 612.883 309.567 612.541 309.608 612.199L311.447 612.316L309.492 613.225Z" fill="#F2870F"/>
<path d="M316.087 589.802H312.908C224.077 589.802 135.238 589.788 46.391 589.76C41.21 589.62 36.0793 590.815 31.4846 593.23C27.8249 595.151 24.6366 597.87 22.1524 601.189C19.6682 604.508 17.9506 608.343 17.1249 612.416C15.5797 619.524 16.7659 626.958 20.4446 633.221C24.1232 639.483 30.0211 644.109 36.9503 646.166C40.1408 647.047 43.4395 647.465 46.747 647.409C87.7891 647.376 128.834 647.376 169.881 647.409C177.956 647.409 186.03 647.359 194.104 647.334C197.645 651.085 200.857 655.137 203.702 659.446C202.245 659.446 200.787 659.505 199.338 659.505C73.5784 659.505 -52.1784 659.505 -177.932 659.505C-181.369 659.505 -184.814 659.371 -188.251 659.305C-189.162 658.612 -190.081 657.92 -191.323 658.012C-198.18 655.784 -203.315 651.338 -207.058 645.249C-208.935 642.003 -210.103 638.392 -210.486 634.655C-211.72 625.354 -211.041 616.028 -211.033 606.727C-210.947 601.646 -209.658 596.658 -207.273 592.179C-205.578 589.056 -203.226 586.343 -200.383 584.23C-198.295 582.626 -196.034 581.266 -193.642 580.176C-190.332 578.527 -186.684 577.684 -182.992 577.715C-177.734 577.823 -172.475 577.648 -167.258 577.59L-161.461 577.523C-160.012 577.581 -158.554 577.69 -157.105 577.69C-44.7004 577.69 67.7042 577.69 180.109 577.69C181.566 577.69 183.024 577.69 184.481 577.69C186.336 577.69 188.191 577.782 190.038 577.782H319.591C321.123 577.782 322.704 577.556 324.327 578.115C324.178 578.691 324.203 579.158 323.988 579.391C321.391 582.235 319.103 585.35 317.164 588.684C316.845 589.093 316.484 589.468 316.087 589.802Z" fill="#B75743"/>
<path d="M179.811 528.19C179.463 529.025 179.157 529.909 178.759 530.693C172.824 543.022 172.684 555.415 178.337 567.872C178.726 568.706 179.082 569.54 179.455 570.374L178.378 571.208C177.062 571.25 175.745 571.333 174.428 571.333H73.3964C72.0797 571.333 70.763 571.25 69.4463 571.208L68.6678 570.508C68.6678 562.108 68.6016 553.707 68.6016 545.307C68.6016 539.577 68.6678 533.846 68.7009 528.115L179.811 528.19Z" fill="#F9E0B2"/>
<path d="M41.718 571.25C40.9313 571.3 40.1363 571.392 39.3496 571.392C28.8903 571.392 18.431 571.392 7.97176 571.392C4.98493 571.371 2.03566 570.719 -0.685428 569.479C-3.40652 568.238 -5.83883 566.436 -7.8252 564.189C-9.81158 561.942 -11.3078 559.3 -12.2171 556.434C-13.1264 553.568 -13.4286 550.542 -13.1041 547.551C-11.8454 536.098 -3.09202 528.474 7.68193 528.232C18.9362 527.982 30.1904 528.157 41.4447 528.14C41.4944 529.467 41.5938 530.801 41.5938 532.128C41.5938 543.706 41.5938 555.284 41.5938 566.862C41.5855 568.33 41.6766 569.79 41.718 571.25Z" fill="#F9E0B2"/>
<path d="M41.7161 571.25C41.7161 569.79 41.5836 568.33 41.5836 566.862C41.5836 555.284 41.5836 543.706 41.5836 532.128C41.5836 530.801 41.4842 529.467 41.4346 528.14V521.842C41.4346 519.782 41.4346 517.713 41.4346 515.653C41.5008 509.202 41.5643 502.754 41.625 496.308C41.6763 495.718 41.5446 495.125 41.248 494.613C40.9514 494.101 40.5045 493.693 39.9688 493.447L39.1406 490.628C46.0058 490.578 52.8793 490.344 59.7445 490.544C65.5414 490.711 68.5557 494.265 68.5972 500.062C68.5972 505.251 68.7131 510.439 68.771 515.628C68.7379 517.708 68.7103 519.785 68.6882 521.859V528.19C68.6882 533.921 68.5889 539.652 68.5889 545.382C68.5889 553.783 68.5889 562.183 68.6551 570.583C67.3218 570.825 66.3943 569.982 65.4337 569.315C62.9493 567.58 60.4649 565.761 57.9805 564.034C54.8419 561.857 54.668 561.882 51.753 564.034C51.223 564.427 50.6599 564.777 50.1381 565.177C47.5295 567.196 44.9292 569.231 42.3289 571.258H42.0308L41.7161 571.25Z" fill="#F47559"/>
<path d="M42.3164 571.242C44.9167 569.215 47.517 567.179 50.1257 565.161C50.6474 564.76 51.2105 564.41 51.7405 564.018C54.6638 561.866 54.8294 561.841 57.968 564.018C60.4524 565.744 62.9368 567.563 65.4212 569.298C66.3818 569.965 67.3093 570.808 68.6426 570.566L69.421 571.267L42.3164 571.242Z" fill="#F9DFB1"/>
<path d="M178.375 571.267L179.452 570.433L179.833 571.392L178.375 571.267Z" fill="#F9DFB1"/>
<path d="M68.7511 515.628C68.6932 510.439 68.6186 505.251 68.5772 500.062C68.5358 494.265 65.48 490.711 59.7245 490.544C52.8593 490.344 45.9859 490.544 39.1207 490.628C36.479 490.569 33.8372 490.378 31.2038 490.503C29.9064 490.661 28.6442 491.036 27.469 491.612C26.8561 491.862 26.4669 492.446 27.088 493.522C31.2286 493.589 35.5763 493.673 39.9074 493.447C40.4432 493.693 40.8901 494.101 41.1867 494.613C41.4833 495.125 41.615 495.718 41.5637 496.309C41.4974 502.759 41.4339 509.208 41.3732 515.653L-12.273 515.594C-13.598 515.594 -14.923 515.594 -16.248 515.594C-27.7755 515.453 -39.1954 505.776 -39.568 491.887C-39.7398 488.821 -39.4608 485.746 -38.7399 482.762C-35.7504 471.717 -25.7549 464.944 -16.397 464.794C-15.072 464.794 -13.747 464.752 -12.422 464.752H162.818C164.267 464.752 165.725 464.819 167.182 464.852C165.833 468.881 164.209 472.843 163.191 476.956C160.359 488.284 161.336 499.42 165.51 510.322C166.172 512.058 166.832 513.795 167.489 515.536C165.907 515.578 164.325 515.661 162.735 515.661L68.7511 515.628Z" fill="#F9E0B2"/>
<path d="M316.001 647.343C316.522 647.733 316.997 648.18 317.418 648.677C319.568 652.094 321.942 655.363 324.523 658.462C324.649 658.693 324.733 658.944 324.771 659.205C323.19 659.28 321.608 659.43 320.034 659.43C293.457 659.43 266.885 659.43 240.319 659.43C238.737 659.43 237.155 659.513 235.574 659.555C233.917 657.72 232.261 655.943 230.688 654.033C228.973 651.922 227.375 649.687 225.785 647.501C227.491 647.443 229.205 647.334 230.92 647.334L316.001 647.343Z" fill="#B75743"/>
<path d="M177.559 628.065H153.701L152.873 627.439C152.682 623.319 154.529 620.641 158.413 619.315L160.011 618.823H164.847C166.843 619.757 168.822 620.749 170.843 621.625C173.278 622.685 175.174 624.52 177.303 626.021C178.106 626.572 178.023 627.306 177.559 628.065Z" fill="#1C4655"/>
<path d="M338.113 659.28C338.652 658.646 339.19 658.571 339.77 659.28H338.113Z" fill="#B75743"/>
<path d="M68.6719 528.19V521.876C70.2536 521.876 71.8436 521.876 73.4336 521.876C103.727 521.876 134.02 521.876 164.312 521.876C166.027 521.876 167.741 521.726 169.455 521.642H183.699C184.361 522.677 183.699 523.077 183.359 523.569L179.807 528.19H68.6719Z" fill="#86B0F1"/>
<path d="M169.451 521.584C167.737 521.667 166.023 521.817 164.309 521.817C134.016 521.817 103.723 521.817 73.4297 521.817C71.8397 521.817 70.2497 521.817 68.668 521.817C68.668 519.737 68.6956 517.66 68.7508 515.586H162.735C164.325 515.586 165.907 515.503 167.488 515.461C168.06 516.354 168.631 517.238 169.194 518.139C169.517 518.647 169.709 519.227 169.754 519.829C169.799 520.43 169.695 521.033 169.451 521.584Z" fill="#38558A"/>
<path d="M152.871 627.456L153.699 628.082C153.186 628.182 152.871 628.023 152.871 627.456Z" fill="#375985"/>
<path d="M39.9075 493.447C35.5764 493.673 31.2453 493.589 27.0881 493.522C26.467 492.48 26.8563 491.854 27.4691 491.612C28.6444 491.036 29.9065 490.661 31.2039 490.503C33.8374 490.378 36.4791 490.569 39.1208 490.628C39.3858 491.57 39.6508 492.505 39.9075 493.447Z" fill="#EE6F11"/>
<path d="M1250.88 77.4226C1247.86 76.598 1245.31 76.2372 1242.99 74.6086C1242.37 71.1451 1243.96 68.5475 1245.68 66.1973C1246.97 64.6772 1248.38 63.297 1249.9 62.0741C1251.07 61.1405 1252.18 60.1068 1253.22 58.9818C1255.9 55.5286 1255.09 52.1786 1251.22 50.7355C1250.01 50.2922 1248.71 50.2098 1247.47 49.9005C1246.69 49.7447 1245.98 49.3062 1245.43 48.6495C1244.89 47.9928 1244.54 47.1524 1244.44 46.2516C1244.26 45.3553 1244.38 44.4143 1244.77 43.612C1245.16 42.8097 1245.8 42.2036 1246.56 41.9119C1247.6 41.407 1248.73 41.1781 1249.87 41.242C1253.58 41.4744 1257.19 42.7028 1260.42 44.8291C1264.96 48.0348 1266.02 52.6218 1264.65 58.4664C1264.09 61.0535 1262.71 63.3067 1260.78 64.7851C1259.82 65.5067 1258.99 66.4757 1258.04 67.1457C1254.69 69.5577 1252 72.5882 1250.88 77.4226Z" fill="#F7CD82"/>
<path d="M1244.06 92.6782C1240.89 93.0389 1238.18 89.8332 1238.26 85.9162C1238.34 84.1967 1238.94 82.5637 1239.96 81.299C1240.97 80.0343 1242.34 79.2174 1243.82 78.9893C1246.93 78.7007 1249.55 81.9786 1249.75 85.8235C1249.96 89.8332 1247.06 93.1214 1244.06 92.6782Z" fill="#F7CD82"/>
<path d="M1306.59 30.4598L1304.38 37.2836C1301.62 36.5414 1301.69 33.1604 1299.41 31.573L1292.88 31.0679C1293.05 30.0279 1293.32 29.0142 1293.69 28.0477C1294.24 27.3023 1294.84 26.6125 1295.48 25.9861C1295.89 25.5162 1296.16 24.92 1296.28 24.2714C1296.39 23.6228 1296.34 22.9503 1296.12 22.3372C1295.76 21.2643 1295.46 20.1659 1295.22 19.0489C1295.15 18.1367 1295.15 17.2193 1295.22 16.3071L1301.43 18.5542L1307.13 14.431C1308.61 17.1523 1307.23 19.9354 1308.08 22.3784C1309.28 24.3059 1311.66 24.9141 1312.68 27.4601C1310.94 29.3465 1308.54 29.0373 1306.59 30.4598Z" fill="#F2870F"/>
<path d="M187.988 89.3171C188.409 87.9704 188.485 86.8518 189.011 86.2002C191.878 82.6164 192.557 78.7501 190.569 74.3517C190.293 73.4416 190.113 72.4974 190.034 71.5389C190.989 71.4629 191.783 71.0936 192.318 71.3977C196.609 73.8196 200.49 73.6892 203.979 69.5297C204.351 69.0736 205.317 69.2474 206.387 69.0627C206.387 71.2348 206.598 73.1788 206.473 75.0359C206.383 76.0756 206.551 77.1231 206.959 78.0598C207.366 78.9965 207.996 79.7849 208.777 80.3357C209.522 80.9439 210.335 81.4217 211.023 82.1168C211.711 82.8118 212.227 83.5721 213.059 84.5821C212.492 85.1959 211.892 85.7689 211.262 86.2979C210.861 86.5595 210.413 86.7154 209.952 86.7541C206.129 87.2211 204.046 89.6429 203.501 93.9979C203.357 95.0839 203.023 96.4957 201.79 96.8324C200.404 97.2125 200.089 95.7464 199.439 94.8341C199.224 94.5891 199.041 94.3113 198.894 94.0087C197.489 90.5769 195.147 89.2737 191.869 89.6647C190.569 89.689 189.269 89.5727 187.988 89.3171Z" fill="#9EC3F9"/>
<path d="M128 28.6222V24.9423L134.706 24.5093L138.288 15.9641L146.928 17.6649C148.952 15.1292 148.665 11.542 149.999 8.50118C153.178 8.35687 156.177 10.6761 159.607 9.98552C160.78 8.00641 161.97 6.01699 163.296 3.80079L170.405 4.50172C170.826 3.65648 171.372 2.55353 171.927 1.40936C172.625 0.0590294 173.413 -0.301751 174.362 0.244566C175.311 0.790883 175.643 1.74956 175.186 3.19267C174.604 5.02747 173.87 6.80042 173.225 8.54245C170.638 9.57324 168.22 8.35688 165.758 8.70735C164.083 9.48044 163.448 11.4596 162.436 12.9955C161.993 13.7445 161.363 14.321 160.629 14.6486C159.895 14.9762 159.092 15.0396 158.326 14.8302C156.535 14.5004 154.816 13.2635 152.542 14.0262L149.731 22.6848L140.858 20.8397C138.735 22.9013 138.771 26.3544 136.837 28.5706L128 28.6222Z" fill="#F48F82"/>
<path d="M699.21 562.864H695.38C693.207 559.428 691.08 556.044 689 552.711C690.42 551.01 690.42 551.01 693.13 550L697.82 556.896C701.56 558.03 705.2 555.494 709.27 556.092C711.55 559.287 712.12 563.575 714.69 567.09L720.97 565.493C722.72 566.74 722.47 568.441 722.45 570.069L721.32 570.812L711.45 573.543C710.58 571.378 709.71 569.183 708.81 566.998C708.408 565.939 707.944 564.906 707.42 563.905C707.104 563.146 706.54 562.524 705.826 562.148C705.112 561.771 704.293 561.664 703.51 561.844C702.43 562.071 701.35 562.266 700.26 562.462L699.21 562.864Z" fill="#56C1A8"/>
<path d="M753.183 519.947C752.413 520.837 751.383 520.717 750.373 520.677C750.319 516.399 749.758 512.143 748.703 507.997C748.479 507.242 748.436 506.444 748.579 505.669C748.721 504.894 749.045 504.163 749.523 503.537C750.383 502.407 750.903 501.027 751.693 499.847C751.823 499.581 752.012 499.349 752.246 499.168C752.48 498.987 752.753 498.862 753.043 498.803C753.333 498.744 753.632 498.752 753.919 498.828C754.205 498.903 754.47 499.043 754.693 499.237C754.563 501.817 752.633 503.647 751.553 505.927C752.033 510.567 753.473 515.157 753.183 519.947Z" fill="#F9DFB1"/>
<path d="M745.374 519.776C744.501 517.744 743.121 515.97 741.368 514.622C740.347 513.76 739.382 512.833 738.481 511.846C735.576 509.2 734.373 505.786 734.114 502.011C733.873 498.625 733.911 495.22 735.261 492C736.544 488.657 739.099 485.959 742.367 484.496C744.294 483.77 746.311 483.312 748.363 483.136C758.244 481.878 765.193 489.548 766.775 497.357C767.113 499.255 767.07 501.201 766.647 503.082C766.225 504.963 765.431 506.741 764.314 508.312C762.537 511.004 761.335 513.688 761.464 516.917L757.301 517.102C757.597 512.67 756.237 508.423 755.829 504.148C756.829 502.039 758.605 500.346 758.735 497.959C758.528 497.779 758.283 497.649 758.018 497.58C757.753 497.51 757.476 497.502 757.208 497.557C756.939 497.611 756.687 497.727 756.471 497.894C756.254 498.062 756.079 498.277 755.959 498.523C755.228 499.615 754.747 500.892 753.951 501.937C753.508 502.516 753.209 503.192 753.077 503.909C752.945 504.627 752.985 505.365 753.192 506.064C754.169 509.9 754.688 513.838 754.738 517.796L751.111 518.092C750.962 513.563 750.335 509.063 749.242 504.667C749.14 503.799 748.771 502.984 748.187 502.335C746.468 500.759 744.574 499.383 742.543 498.236C742.497 499.319 742.228 500.087 742.543 500.577C743.07 501.464 743.757 502.245 744.569 502.881C746.152 504.253 747.146 506.181 747.345 508.266C747.9 511.735 748.113 515.261 748.474 518.767L745.374 519.776Z" fill="#F7CD82"/>
<path d="M751.094 518.156L754.721 517.86C755.646 517.86 756.571 518.008 757.321 517.185L761.484 517C761.586 520.229 761.771 523.477 761.771 526.687C761.771 529.232 760.846 530.388 758.431 531.249C756.043 532.013 753.527 532.296 751.029 532.081C748.513 532.017 747.643 531.387 746.995 528.889C746.403 526.622 746.07 524.263 745.654 521.996C745.524 521.275 745.478 520.534 745.395 519.813L748.485 518.767L751.094 518.156Z" fill="#9EC3F9"/>
<path d="M751.093 518.156L748.484 518.767C748.123 515.26 747.91 511.735 747.355 508.266C747.156 506.181 746.162 504.253 744.579 502.881C743.767 502.245 743.08 501.464 742.553 500.577C742.275 500.105 742.553 499.319 742.553 498.236C744.584 499.383 746.478 500.758 748.197 502.335C748.782 502.984 749.15 503.799 749.252 504.666C750.341 509.085 750.958 513.607 751.093 518.156Z" fill="#F9DFB1"/>
<path d="M757.298 517.185C756.585 518.008 755.632 517.897 754.698 517.86C754.648 513.902 754.129 509.964 753.153 506.128C752.945 505.429 752.905 504.691 753.037 503.974C753.169 503.257 753.469 502.581 753.911 502.002C754.707 500.956 755.188 499.679 755.919 498.588C756.039 498.342 756.214 498.127 756.431 497.959C756.647 497.791 756.9 497.676 757.168 497.621C757.436 497.567 757.713 497.575 757.978 497.644C758.243 497.714 758.488 497.844 758.695 498.023C758.574 500.41 756.789 502.104 755.789 504.213C756.234 508.506 757.566 512.753 757.298 517.185Z" fill="#F9DFB1"/>
<defs>
<linearGradient id="paint0_linear_534_11514" x1="1171.63" y1="406.561" x2="1428.74" y2="609.875" gradientUnits="userSpaceOnUse">
<stop offset="0.01" stop-color="#F39008"/>
<stop offset="1" stop-color="#EE6C10"/>
</linearGradient>
<linearGradient id="paint1_linear_534_11514" x1="194.857" y1="558.804" x2="359.614" y2="349.681" gradientUnits="userSpaceOnUse">
<stop stop-color="#F0780F"/>
<stop offset="0.52" stop-color="#F4910A"/>
</linearGradient>
<linearGradient id="paint2_linear_534_11514" x1="309.22" y1="635.681" x2="399.527" y2="635.681" gradientUnits="userSpaceOnUse">
<stop offset="0.01" stop-color="#F39008"/>
<stop offset="1" stop-color="#EE6C10"/>
</linearGradient>
<linearGradient id="paint3_linear_534_11514" x1="97.4945" y1="404.8" x2="102.25" y2="233.381" gradientUnits="userSpaceOnUse">
<stop stop-color="#EF7210"/>
<stop offset="1" stop-color="#ED6811"/>
</linearGradient>
</defs>
</svg>
