<svg width="390" height="857" viewBox="0 0 390 857" fill="none" xmlns="http://www.w3.org/2000/svg">
<path d="M334.369 107.462C332.128 106.928 330.233 106.694 328.511 105.638C328.053 103.393 329.229 101.709 330.506 100.185C331.466 99.1997 332.514 98.305 333.637 97.5122C334.508 96.9069 335.333 96.2368 336.104 95.5074C338.099 93.2688 337.494 91.0969 334.621 90.1614C333.724 89.874 332.76 89.8206 331.836 89.6201C331.259 89.5191 330.729 89.2348 330.325 88.8091C329.92 88.3833 329.662 87.8385 329.589 87.2545C329.455 86.6734 329.542 86.0634 329.832 85.5433C330.123 85.0232 330.595 84.6302 331.158 84.4411C331.935 84.1138 332.776 83.9654 333.618 84.0068C336.373 84.1574 339.055 84.9538 341.45 86.3323C344.827 88.4106 345.612 91.3843 344.594 95.1733C344.178 96.8505 343.154 98.3112 341.722 99.2697C341.011 99.7375 340.392 100.366 339.688 100.8C337.194 102.364 335.2 104.328 334.369 107.462Z" fill="#F7CD82"/>
<path d="M329.303 117.353C326.949 117.587 324.941 115.508 325.001 112.969C325.061 111.854 325.507 110.795 326.26 109.976C327.014 109.156 328.029 108.626 329.13 108.478C331.437 108.291 333.385 110.416 333.531 112.909C333.684 115.508 331.537 117.64 329.303 117.353Z" fill="#F7CD82"/>
<path d="M365.387 73.521L363.711 78C361.621 77.5129 361.676 75.2937 359.946 74.2517L355 73.9201C355.127 73.2375 355.334 72.5721 355.617 71.9377C356.03 71.4485 356.484 70.9957 356.974 70.5846C357.281 70.2761 357.49 69.8848 357.575 69.459C357.661 69.0333 357.619 68.5919 357.456 68.1894C357.184 67.4852 356.957 66.7643 356.778 66.0311C356.724 65.4324 356.724 64.8301 356.778 64.2314L361.479 65.7064L365.801 63C366.92 64.7862 365.875 66.613 366.52 68.2165C367.429 69.4817 369.233 69.8809 370 71.5521C368.684 72.7902 366.866 72.5873 365.387 73.521Z" fill="#F2870F"/>
<path d="M11 62.3719C11.2852 61.5493 11.337 60.866 11.6935 60.468C13.6378 58.2789 14.098 55.9173 12.7499 53.2306C12.5626 52.6747 12.4407 52.098 12.3869 51.5125C13.035 51.4661 13.573 51.2405 13.9359 51.4263C16.846 52.9056 19.4773 52.8259 21.8429 50.2852C22.0957 50.0066 22.7503 50.1128 23.4762 50C23.4762 51.3267 23.6187 52.5142 23.5345 53.6485C23.4735 54.2836 23.5875 54.9234 23.8635 55.4956C24.1396 56.0677 24.5667 56.5493 25.0965 56.8858C25.602 57.2573 26.1529 57.5492 26.6195 57.9737C27.0862 58.3983 27.4361 58.8626 28 59.4796C27.6155 59.8545 27.2086 60.2045 26.7815 60.5277C26.5097 60.6874 26.2063 60.7827 25.8936 60.8063C23.3012 61.0916 21.8883 62.5709 21.5189 65.231C21.4216 65.8943 21.1948 66.7567 20.3588 66.9624C19.419 67.1945 19.2051 66.299 18.7644 65.7418C18.619 65.5921 18.4947 65.4224 18.395 65.2376C17.4422 63.1414 15.8544 62.3453 13.6313 62.5841C12.7496 62.599 11.8685 62.528 11 62.3719Z" fill="#9EC3F9"/>
<path d="M33 17V14.8143L37.6701 14.5572L40.1641 9.48178L46.1809 10.492C47.5901 8.98589 47.3905 6.85532 48.3195 5.04924C50.533 4.96352 52.6218 6.34105 55.0098 5.93085C55.8266 4.75537 56.6559 3.57376 57.5786 2.25746L62.5292 2.67378C62.8223 2.17175 63.2027 1.51666 63.5893 0.837083C64.0756 0.0350602 64.6243 -0.179224 65.2852 0.145259C65.9461 0.469741 66.1767 1.03914 65.8587 1.89627C65.4535 2.98604 64.9422 4.03908 64.4933 5.07375C62.6914 5.68598 61.0079 4.96353 59.2933 5.17169C58.1273 5.63086 57.6846 6.80637 56.98 7.71859C56.6715 8.16348 56.2327 8.50586 55.7217 8.70046C55.2106 8.89506 54.6515 8.93268 54.1182 8.80834C52.8711 8.61243 51.674 7.87777 50.0903 8.33082L48.1325 13.4735L41.9535 12.3777C40.4758 13.6021 40.5008 15.6531 39.154 16.9694L33 17Z" fill="#F48F82"/>
<path d="M93.7969 735.875C94.4461 734.875 95.1037 733.875 95.7403 732.867C96.578 731.572 97.3613 730.277 97.7173 728.745C97.956 727.711 98.3497 726.712 98.6136 725.682C99.3717 722.775 99.1162 719.801 98.9152 716.877C98.7216 714.944 98.2165 713.056 97.4199 711.287C96.6995 709.549 95.6608 708.03 94.6932 706.448C94.4828 706.041 94.3049 705.617 94.1613 705.182C94.9655 705.148 95.7655 705.093 96.5655 705.093H179.351C180.088 705.093 180.825 705.093 181.562 705.093C184.875 705.162 188.055 706.415 190.534 708.629C195.472 712.928 197.361 720.543 194.429 727.117C192.448 731.563 189.152 734.538 184.377 735.647C183.063 735.897 181.726 735.999 180.389 735.951C152.187 735.968 123.985 735.968 95.7822 735.951C95.133 735.947 94.467 735.901 93.7969 735.875Z" fill="#F9E0B2"/>
<path d="M85.9042 792.874C84.2665 791.026 84.321 788.351 84.455 785.866C84.5639 783.921 84.3796 781.96 84.5178 780.015C84.7063 777.336 85.6236 774.897 87.6424 773.041C88.6186 772.142 89.7558 771.439 90.9932 770.969C93.1191 770.164 95.3779 769.774 97.6487 769.821C103.458 769.876 109.268 769.821 115.081 769.821H115.5C116.417 769.788 117.368 770.104 118.231 769.539C120.476 769.999 122.746 769.893 125.008 769.893H196.631V773.079C190.939 773.079 185.246 772.998 179.554 773.125C174.109 773.247 169.678 777.103 169.041 782.896C168.877 784.409 169.03 785.939 169.49 787.389C169.95 788.838 170.707 790.175 171.711 791.311C172.716 792.447 173.946 793.359 175.322 793.986C176.699 794.614 178.19 794.944 179.701 794.954C184.991 794.954 190.281 794.954 195.571 794.954C195.969 794.954 196.371 794.908 196.769 794.882H196.92H197.071H210.779C211.445 794.903 212.111 794.946 212.777 794.946H263.877C264.543 794.946 265.209 794.903 265.875 794.882L266.612 794.95L268.974 798.11C268.237 798.11 267.5 798.11 266.763 798.11C209.911 798.11 153.059 798.11 96.2079 798.11C95.4749 798.11 94.7377 798.055 94.0047 798.026C92.6477 798.418 91.3911 800.527 90.1346 796.971H90.1555C89.8154 796.887 89.4961 796.733 89.2179 796.519C88.9397 796.305 88.7084 796.035 88.5388 795.726H88.5597L88.0571 795.304C87.8142 795.127 87.4958 795.017 87.3241 794.764C86.8947 794.102 86.4202 793.47 85.9042 792.874Z" fill="#86B0F1"/>
<path d="M203.548 703.347C204.281 703.38 205.014 703.435 205.747 703.439C214.292 703.439 222.84 703.499 231.385 703.41C234.643 703.376 237.768 703.722 240.75 705.072C241.345 705.545 241.931 706.026 242.723 706.114C243.001 706.483 243.303 706.833 243.628 707.161C247.008 710.104 249.113 714.261 249.492 718.746C250.019 724.231 248.398 728.998 244.62 732.96C242.706 735.061 240.189 736.509 237.42 737.103C235.988 737.525 234.518 737.462 233.052 737.462H122.991C121.525 737.462 120.059 737.415 118.623 737.803C117.986 737.259 117.219 737.491 116.528 737.491C109.067 737.469 101.606 737.469 94.1451 737.491C93.4833 737.491 92.8174 737.563 92.1556 737.597C91.7367 737.445 91.4059 737.175 91.5776 736.711C91.6362 736.563 91.7245 736.429 91.837 736.317C91.9494 736.205 92.0835 736.118 92.231 736.061C92.7515 735.956 93.2796 735.894 93.81 735.875C94.4802 735.901 95.1462 735.947 95.8163 735.947C124.019 735.947 152.221 735.947 180.424 735.947C181.76 735.995 183.097 735.893 184.411 735.643C189.182 734.534 192.478 731.559 194.463 727.112C197.395 720.552 195.502 712.937 190.564 708.62C188.085 706.407 184.904 705.154 181.592 705.085C180.855 705.085 180.118 705.085 179.381 705.085H96.5661C95.7661 705.085 94.966 705.14 94.1619 705.174C93.6509 705.136 93.1357 705.11 92.6247 705.064C91.8121 704.988 91.7325 704.861 91.7451 703.76L92.1388 703.477C93.01 703.477 93.8812 703.448 94.7483 703.448C129.479 703.448 164.209 703.448 198.937 703.448C200.474 703.431 202.011 703.376 203.548 703.347Z" fill="#4970B6"/>
<path d="M118.618 737.799C120.055 737.411 121.521 737.457 122.987 737.457H233.052C234.518 737.457 235.984 737.5 237.42 737.099C238.044 737.685 238.815 737.432 239.515 737.436C245.906 737.457 252.302 737.436 258.698 737.436C259.23 737.436 259.766 737.415 260.294 737.462C261.316 737.55 261.73 738.225 261.303 739.124C260.985 739.782 260.574 740.39 260.206 741.035C259.468 741.035 258.731 740.985 257.998 740.985H169.37C168.7 740.985 168.03 740.985 167.36 741.006C162.627 741.098 157.575 744.524 156.072 750.102C155.707 751.611 155.566 753.167 155.653 754.717C155.841 761.742 161.617 766.636 167.448 766.708C168.118 766.708 168.788 766.708 169.458 766.708L196.587 766.737C196.587 767.779 196.587 768.826 196.608 769.868H124.985C122.723 769.868 120.453 769.973 118.208 769.514L115.867 769.02L115.029 768.716L114.644 768.615L113.844 768.273C113.804 768.23 113.753 768.198 113.698 768.179C113.642 768.161 113.583 768.157 113.525 768.168L113.039 767.906C112.996 767.858 112.942 767.821 112.881 767.799C112.821 767.777 112.756 767.77 112.692 767.779L112.235 767.509C112.196 767.459 112.144 767.42 112.086 767.396C112.027 767.372 111.963 767.363 111.9 767.37L111.431 767.071L110.514 766.59L110.221 766.303L108.893 765.375L108.612 765.088C108.101 764.666 107.481 764.349 107.104 763.822C106.209 762.682 105.416 761.465 104.734 760.185C102.677 756 102.585 751.836 104.528 747.583C105.498 745.462 106.911 743.576 108.671 742.056C109.038 741.783 109.426 741.539 109.831 741.326C109.919 741.242 110.886 740.609 110.886 740.609L111.008 740.546L111.326 740.259C111.938 739.694 112.742 739.571 113.483 739.31L114.116 739.018L114.719 738.71L114.995 738.622L115.929 738.301L116.218 738.221L116.683 738.175L118.618 737.799Z" fill="#38558A"/>
<path d="M39.9762 801.181C39.0421 801.114 39.0421 801.114 38.3008 800.443L37.7018 800.021C36.416 799.308 35.1385 798.582 33.8401 797.912C30.7685 796.277 27.697 794.655 24.6254 793.043C21.0427 791.076 17.3507 789.318 13.5678 787.778C13.409 787.744 13.245 787.744 13.0862 787.778C12.5626 788.761 13.1155 789.908 12.3113 790.954L10.8788 786.87C6.40135 785.061 1.95738 783.592 -2.70858 782.951C-4.69602 782.602 -6.73495 782.689 -8.68554 783.208C-10.7798 783.841 -12.1536 785.2 -12.673 787.347C-13.0184 788.653 -13.0912 790.016 -12.8866 791.351C-12.4918 793.481 -11.5939 795.484 -10.2688 797.19C-8.66812 799.272 -6.80053 801.13 -4.71486 802.717C-4.14767 803.193 -3.42973 803.447 -2.69183 803.434C-1.08346 803.434 0.520734 803.493 2.12911 803.531C2.38461 803.531 2.66523 803.531 2.65685 804.029C1.92806 804.354 1.13225 804.683 0.357378 805.059C0.0779924 805.241 -0.18295 805.45 -0.421679 805.683C0.290362 806.139 0.834867 806.527 1.41288 806.848C3.28931 807.89 5.15319 808.957 7.06313 809.923C14.1453 813.44 21.4856 816.402 29.0191 818.783C32.705 819.986 36.4537 821.011 40.1647 822.133C40.6296 822.272 41.2118 822.268 41.4757 822.926C40.4585 822.985 39.4379 822.937 38.4306 822.783C34.2422 822.445 30.0285 822.078 25.8233 821.762C24.8977 821.69 23.9553 821.762 23.0212 821.783C18.15 821.382 10.238 822.023 8.14795 822.985C8.05161 823.859 9.12386 824.378 8.93538 825.517C8.20659 825.175 7.61182 824.918 7.02962 824.626C4.62544 823.437 4.62125 823.424 2.22126 824.723C1.68831 825.004 1.18094 825.332 0.705023 825.702C0.237149 826.082 -0.193447 826.506 -0.580836 826.968C-1.30538 827.866 -1.72388 828.976 -1.77456 830.132C-1.88346 831.453 -1.29707 832.478 -0.312775 833.301C1.05248 834.405 2.617 835.233 4.29455 835.739C6.77832 836.528 9.32072 837.216 11.8338 837.849C14.104 838.423 16.3992 838.874 18.6778 839.38C19.0045 839.38 19.3396 839.427 19.6704 839.427H38.7364C39.1343 839.427 39.5364 839.368 39.9343 839.334C40.5332 839.363 41.128 839.423 41.727 839.423C51.7793 839.423 61.8414 839.423 71.9133 839.423C72.5122 839.423 73.107 839.363 73.706 839.33H78.9206V838.71C75.4526 837.583 72.8557 835.334 70.9625 832.254C70.0088 830.632 69.4064 828.825 69.195 826.951C68.5709 822.247 68.9144 817.53 68.9185 812.826C68.9621 810.256 69.614 807.733 70.8201 805.468C71.6805 803.889 72.8709 802.517 74.3091 801.447C75.3651 800.636 76.5089 799.948 77.7185 799.397C79.3926 798.563 81.2375 798.137 83.1049 798.152C85.7646 798.207 88.4243 798.118 91.063 798.089C90.8119 797.675 90.4998 797.303 90.1374 796.983C89.5586 796.629 89.0193 796.214 88.529 795.743C88.3698 795.608 88.2065 795.481 88.0473 795.351L87.3143 794.811C86.6309 794.16 85.9 793.562 85.1279 793.022C84.9604 792.925 76.2903 786.271 72.0431 783.166C64.7624 777.747 57.1968 772.728 49.3793 768.13C45.6275 765.92 41.7301 763.972 37.7144 762.299C37.1196 762.058 36.55 761.615 35.7039 761.797C35.4861 762.911 35.2558 764.054 34.9751 765.463C34.0997 763.776 34.1374 762.058 33.2202 760.573C31.4945 760.198 29.7521 759.687 27.9762 759.455C25.1783 759.092 22.3762 759.105 19.771 760.485C18.7992 760.582 18.0286 761.134 17.2579 761.649C15.1636 763.046 14.0076 765.024 14.1081 767.556C14.1511 768.628 14.2998 769.694 14.5521 770.737C15.0486 772.554 15.7974 774.291 16.7762 775.897C18.5767 778.969 20.6606 781.863 23.0003 784.542C26.6339 788.758 30.5226 792.744 34.6442 796.477C35.7751 797.519 36.8893 798.587 37.995 799.625C38.1102 799.629 38.2194 799.677 38.3008 799.76" fill="url(#paint0_linear_534_11847)"/>
<path d="M73.6836 839.342H78.8982L80.4522 839.372C82.1904 839.41 83.9328 839.477 85.671 839.477C149.274 839.477 212.879 839.477 276.485 839.477C277.218 839.477 277.956 839.477 278.693 839.444C279.506 840.01 280.085 840.856 280.322 841.823C279.589 841.844 278.852 841.886 278.119 841.886C183.401 841.886 88.6839 841.886 -6.03151 841.886C-6.9446 841.886 -7.90795 842.173 -8.77078 841.6C-8.77272 841.58 -8.77943 841.561 -8.79033 841.544C-8.80123 841.528 -8.81598 841.514 -8.83331 841.504C-8.85064 841.495 -8.87003 841.49 -8.88979 841.489C-8.90954 841.489 -8.92908 841.494 -8.94669 841.503C-9.17229 841.351 -9.32892 841.115 -9.3823 840.847C-9.43568 840.579 -9.38146 840.3 -9.23151 840.072C-9.11474 839.867 -8.94341 839.7 -8.7369 839.588C-8.53039 839.476 -8.29693 839.425 -8.06292 839.439H-6.45455H16.0501C16.9172 839.439 17.7884 839.414 18.6554 839.401C18.9821 839.401 19.3171 839.448 19.648 839.448H38.714C39.1119 839.448 39.514 839.389 39.9119 839.355C40.5108 839.385 41.1056 839.444 41.7046 839.444C51.7569 839.444 61.819 839.444 71.8909 839.444C72.4899 839.444 73.0846 839.385 73.6836 839.342Z" fill="#1C4655"/>
<path d="M280.317 841.832C280.081 840.866 279.502 840.02 278.688 839.456C277.249 837.277 275.625 835.227 273.834 833.33C271.446 830.29 269.06 827.248 266.676 824.205C266.355 823.865 265.921 823.656 265.457 823.618C265.691 823.234 265.733 822.863 265.327 822.572C264.25 821.812 263.291 820.884 262.06 820.348C261.038 819.905 260.037 819.403 259.027 818.931C259.223 818.889 259.422 818.863 259.622 818.851C263.626 818.851 267.63 818.813 271.635 818.884C272.7 818.929 273.752 819.137 274.755 819.5C278.118 820.679 281.092 822.769 283.35 825.542C283.991 826.314 284.606 827.124 285.23 827.9C286.763 829.757 288.299 831.609 289.838 833.457C290.675 834.562 291.45 835.693 292.317 836.76C293.096 837.726 293.959 838.625 294.789 839.553C295.217 840.513 295.916 841.325 296.799 841.886C296.763 842.052 296.782 842.224 296.854 842.377C296.926 842.53 297.047 842.654 297.197 842.73C298.416 844.312 299.626 845.903 300.866 847.472C303.228 850.468 305.602 853.459 307.986 856.446C308.016 856.484 307.986 856.564 307.986 856.623C307.894 856.708 307.811 856.864 307.723 856.864C302.696 856.864 297.67 856.864 292.644 856.864C291.677 855.91 291.011 854.754 290.156 853.75C289.302 852.746 288.518 851.713 287.702 850.692C286.742 849.502 285.783 848.308 284.879 847.076C284.255 846.232 283.279 845.654 282.969 844.57C282.03 844.076 281.737 843.034 281.071 842.308L280.707 842.013L280.317 841.832Z" fill="#375985"/>
<path d="M296.811 841.874C295.928 841.312 295.229 840.5 294.801 839.541C295.601 839.52 296.401 839.477 297.201 839.477C310.643 839.477 324.082 839.477 337.519 839.477C338.315 839.477 339.115 839.401 339.915 839.363L346.662 839.401H347.5L348.38 839.38C349.381 839.401 350.386 839.435 351.391 839.435H411.877C412.547 839.435 413.217 839.435 413.883 839.49C414.147 839.539 414.387 839.674 414.568 839.874C414.749 840.073 414.86 840.327 414.884 840.595C414.871 840.865 414.778 841.124 414.619 841.341C414.459 841.558 414.24 841.723 413.988 841.815C413.727 841.873 413.46 841.9 413.192 841.895C412.656 841.895 412.12 841.895 411.584 841.895H364.966C364.229 841.895 363.496 841.95 362.763 841.979C362.164 841.95 361.565 841.895 360.966 841.895H299.408C298.809 841.895 298.21 841.95 297.611 841.979L296.811 841.874Z" fill="#1C4655"/>
<path d="M296.812 841.874L297.612 841.975L296.812 841.874Z" fill="#F9FBFE"/>
<path d="M335.526 804.265C335.145 805.194 334.789 806.13 334.383 807.05C333.366 809.464 332.653 811.997 332.259 814.589C332.232 814.924 332.232 815.259 332.259 815.594C332.259 815.767 332.222 815.94 332.201 816.112C332.201 816.484 332.201 816.855 332.201 817.226C332.201 817.598 332.088 817.889 332.075 818.222C331.887 822.672 332.771 827.101 334.651 831.132C334.982 831.854 335.208 832.621 335.489 833.368H292.444C291.577 833.368 290.71 833.423 289.847 833.453C288.305 831.602 286.77 829.75 285.24 827.896C284.599 827.12 283.983 826.31 283.359 825.538C281.098 822.771 278.122 820.686 274.76 819.513C273.757 819.15 272.705 818.942 271.64 818.897C267.635 818.825 263.631 818.863 259.627 818.863C259.427 818.875 259.228 818.902 259.032 818.943H256.586L255.778 819.192C253.83 819.863 252.879 821.218 252.976 823.302C252.976 823.597 253.135 823.677 253.395 823.618H265.462C265.926 823.656 266.359 823.865 266.68 824.205C269.057 827.265 271.443 830.307 273.838 833.33C269.755 833.33 265.671 833.368 261.587 833.368C240.829 833.368 220.07 833.368 199.309 833.368C197.636 833.397 195.967 833.185 194.354 832.74C190.849 831.699 187.866 829.359 186.006 826.192C184.145 823.025 183.545 819.265 184.327 815.67C184.744 813.61 185.613 811.67 186.869 809.991C188.126 808.312 189.738 806.937 191.589 805.966C193.913 804.744 196.508 804.14 199.129 804.211C244.063 804.236 288.995 804.243 333.926 804.232L335.526 804.265Z" fill="#F9DFB1"/>
<path d="M339.705 798.346C339.63 798.637 339.642 798.874 339.534 798.992C338.22 800.43 337.063 802.006 336.082 803.692C335.917 803.902 335.73 804.095 335.525 804.266C335.144 805.194 334.788 806.13 334.382 807.05C333.365 809.464 332.652 811.997 332.258 814.589C332.231 814.924 332.231 815.259 332.258 815.594L333.188 815.653C333.808 815.421 334.445 815.231 335.044 814.952C340.463 812.235 345.876 809.506 351.282 806.763C351.506 806.627 351.719 806.473 351.919 806.303C352.702 805.94 353.511 805.616 354.264 805.198C355.018 804.78 355.998 804.578 356.61 803.713L353.175 801.422C353.123 801.388 353.086 801.335 353.071 801.274C353.072 801.174 353.086 801.075 353.113 800.979C353.485 800.979 353.875 800.979 354.264 800.979C356.272 801.069 358.277 801.165 360.279 801.266C360.942 801.372 361.621 801.263 362.218 800.954C364.677 799.431 367.064 797.819 369.067 795.697C369.913 794.829 370.595 793.813 371.077 792.697C371.421 791.923 371.553 791.07 371.459 790.228C371.365 789.385 371.05 788.583 370.545 787.904C369.685 786.688 368.492 785.751 367.111 785.208C364.526 784.16 361.73 783.746 358.956 784.002C358.34 785.111 357.737 786.229 357.1 787.326C356.904 787.586 356.68 787.823 356.434 788.035C356.124 786.617 356.853 785.381 356.581 784.187C356.41 784.113 356.232 784.059 356.049 784.027C350.763 784.166 345.473 784.208 340.195 784.504C337.319 784.657 334.48 785.225 331.764 786.191C329.431 786.737 327.143 787.468 324.924 788.377C324.439 788.645 323.88 788.744 323.333 788.659C324.711 787.849 323.873 788.271 325.008 787.659C326.947 786.47 328.916 785.331 330.809 784.069C331.733 783.405 332.595 782.658 333.385 781.837C334.023 781.233 334.442 780.431 334.574 779.559C334.009 779.272 333.544 779.019 333.062 778.8C332.024 778.335 330.968 777.897 329.938 777.424C329.674 777.302 329.276 777.226 329.418 776.656H335.81C340.149 771.859 344.066 766.847 346.788 760.983C347.325 759.825 347.764 758.624 348.103 757.392C348.522 755.831 348.782 754.241 348.354 752.608C347.81 750.498 346.595 749.325 344.426 749.195C343.092 749.103 341.753 749.168 340.434 749.389C338.652 749.734 336.893 750.186 335.165 750.743C330.486 752.169 326.017 754.156 321.464 755.924C321.062 756.071 320.697 756.304 320.394 756.608C320.09 756.912 319.857 757.279 319.71 757.683C318.926 759.54 318.101 761.383 317.259 763.219C317.108 763.544 317.088 764.016 316.564 764.122C316.434 762.109 317.222 760.139 316.891 758.139C316.091 757.949 315.534 758.409 314.935 758.658C310.608 760.464 306.294 762.299 301.762 763.518C300.6 763.825 299.417 764.047 298.223 764.181C297.452 764.273 296.51 764.413 296.078 763.518C295.71 762.767 296.158 762.037 296.631 761.48C297.653 760.278 298.239 758.848 298.876 757.443C300.043 754.869 301.198 752.29 302.34 749.705C302.579 749.157 302.759 748.57 302.935 748.018C303.176 747.621 303.397 747.213 303.596 746.794C306.311 740.343 308.882 733.837 311.111 727.197C312.928 721.771 314.57 716.291 315.496 710.624C315.879 708.57 316.06 706.483 316.036 704.393C316.034 702.907 315.75 701.434 315.199 700.056C314.424 698.292 313.104 697.305 311.14 697.292C310.721 697.292 310.336 697.292 309.934 697.322C307.397 697.533 304.911 698.16 302.574 699.178C298.319 700.921 294.537 703.448 290.985 706.351C289.846 707.279 288.752 708.266 287.676 709.194C287.626 711.084 287.576 712.831 287.525 714.582C287.527 714.613 287.522 714.644 287.511 714.673C287.5 714.702 287.484 714.728 287.462 714.751C287.416 714.789 287.337 714.789 287.186 714.827L285.259 711.713C284.811 712.097 284.422 712.371 284.124 712.688C280.778 716.086 277.612 719.659 274.637 723.391C274.478 723.609 274.338 723.841 274.218 724.083L271.442 727.311C271.1 728.242 270.523 729.067 269.766 729.703C269.687 729.509 269.569 729.365 269.603 729.281C270.022 728.336 270.499 727.403 270.947 726.463C271.735 724.623 272.521 722.782 273.305 720.94C273.963 719.396 274.658 717.869 275.27 716.299C277.85 709.709 280.099 703.013 281.314 696.014C281.645 694.103 282.063 692.183 281.883 690.179C281.129 689.736 280.313 689.757 279.529 689.685C278.746 689.614 277.959 689.614 277.075 689.107C278.662 687.774 280.401 686.88 281.921 685.496C281.607 681.965 280.665 678.657 278.097 676.02C274.675 672.489 270.072 671.514 265.62 673.868C264.496 674.467 263.425 675.161 262.42 675.944C258.993 678.615 256.384 682.024 253.917 685.585C254.428 688.399 254.931 691.166 255.496 694.293C255.148 694.025 254.817 693.736 254.503 693.428C253.712 692.516 252.949 691.571 252.154 690.664C251.843 690.366 251.51 690.092 251.157 689.846C249.645 692.542 247.994 694.993 246.905 697.756C246.67 698.071 246.454 698.401 246.26 698.744C245.067 701.199 243.894 703.663 242.713 706.123C242.991 706.492 243.293 706.841 243.617 707.169C246.998 710.112 249.103 714.27 249.481 718.755C250.009 724.239 248.388 729.007 244.61 732.968C242.696 735.069 240.179 736.517 237.41 737.111C238.034 737.698 238.805 737.445 239.504 737.449C245.896 737.47 252.292 737.449 258.688 737.449C259.22 737.449 259.756 737.428 260.283 737.474C261.305 737.563 261.72 738.238 261.293 739.137C260.975 739.795 260.564 740.402 260.195 741.048C259.513 743.086 258.692 745.09 258.177 747.17C256.744 752.899 257.238 758.531 259.349 764.046C259.684 764.923 260.018 765.802 260.35 766.683C260.639 767.134 260.928 767.581 261.213 768.037C261.376 768.293 261.472 768.586 261.495 768.89C261.518 769.193 261.465 769.497 261.343 769.775H268.568C268.903 770.298 268.568 770.501 268.397 770.75L266.6 773.104C266.424 773.526 266.269 773.973 266.068 774.37C263.066 780.605 262.995 786.873 265.854 793.174C266.051 793.596 266.231 794.018 266.42 794.439L266.612 794.925L268.975 798.085C269.913 798.085 270.851 798.131 271.785 798.131H337.309C338.097 798.177 338.884 798.064 339.705 798.346Z" fill="url(#paint1_linear_534_11847)"/>
<path d="M375.666 830.968C374.576 831.963 373.349 832.795 372.022 833.436C369.184 834.794 366.206 835.835 363.143 836.541C359.373 837.478 355.566 838.165 351.729 838.722C350.607 838.883 349.505 839.169 348.378 839.397L347.495 839.418C347.214 839.068 346.942 839.106 346.657 839.418L339.909 839.38C339.89 839.249 339.847 839.122 339.784 839.005C338.478 837.437 337.278 835.784 336.19 834.056C335.977 833.805 335.737 833.578 335.474 833.381C335.197 832.634 334.971 831.866 334.636 831.145C332.755 827.114 331.872 822.684 332.06 818.235C332.06 817.901 332.144 817.572 332.186 817.239C334.699 816.918 337.212 816.581 339.725 816.285C346.763 815.381 353.882 815.316 360.935 816.091C363.793 816.402 366.604 817.049 369.312 818.019C370.831 818.549 372.278 819.269 373.618 820.163C374.977 821.038 376.098 822.24 376.881 823.66C378.305 826.365 377.886 828.883 375.666 830.968Z" fill="url(#paint2_linear_534_11847)"/>
<path d="M240.753 705.072C237.771 703.722 234.646 703.385 231.387 703.41C222.843 703.499 214.294 703.444 205.75 703.439C205.017 703.439 204.284 703.38 203.551 703.347C203.551 702.566 204.472 677.961 204.753 674.535C205.224 668.078 206.647 661.728 208.975 655.693C209.942 653.286 211.177 650.997 212.657 648.871C213.312 647.872 214.093 646.963 214.981 646.166C216.08 645.16 217.288 644.283 218.583 643.551C220.631 642.431 222.854 641.669 225.155 641.298C230.181 640.61 235.031 640.981 239.446 643.829C239.793 644.024 240.154 644.192 240.527 644.331C241.423 645.133 242.361 645.892 243.22 646.736C245.542 649.028 247.099 651.99 247.676 655.212C246.458 656.815 244.744 657.95 243.438 659.621C244.351 659.768 244.933 659.224 245.595 658.98C246.256 658.735 246.943 658.423 247.769 658.072C247.883 658.455 247.957 658.848 247.99 659.245C247.882 661.735 247.84 664.236 247.597 666.713C246.504 677.788 244.3 688.673 241.984 699.537C241.591 701.381 241.167 703.233 240.753 705.072Z" fill="url(#paint3_linear_534_11847)"/>
<path d="M332.188 816.113C332.208 815.94 332.225 815.767 332.246 815.594L333.176 815.653L332.188 816.113Z" fill="#F2870F"/>
<path d="M335.523 804.265H333.915C288.986 804.265 244.054 804.258 199.117 804.244C196.497 804.174 193.902 804.778 191.578 806C189.727 806.971 188.114 808.346 186.858 810.025C185.601 811.703 184.733 813.643 184.315 815.703C183.534 819.298 184.133 823.058 185.994 826.226C187.855 829.393 190.838 831.733 194.342 832.773C195.956 833.219 197.624 833.43 199.297 833.402C220.055 833.385 240.815 833.385 261.576 833.402C265.659 833.402 269.743 833.377 273.827 833.364C275.618 835.261 277.242 837.31 278.681 839.49C277.944 839.49 277.207 839.52 276.474 839.52C212.868 839.52 149.263 839.52 85.6597 839.52C83.9215 839.52 82.1791 839.452 80.4408 839.418C79.9801 839.068 79.5152 838.718 78.8869 838.764C75.4189 837.638 72.822 835.389 70.9288 832.309C69.9795 830.668 69.3884 828.841 69.1948 826.951C68.5707 822.247 68.9142 817.53 68.9183 812.826C68.9619 810.256 69.6138 807.733 70.8199 805.468C71.6774 803.888 72.8667 802.516 74.3047 801.447C75.3607 800.636 76.5045 799.948 77.7141 799.397C79.3882 798.563 81.2331 798.137 83.1005 798.152C85.7602 798.207 88.4199 798.118 91.0586 798.089L93.9906 798.055C94.7235 798.085 95.4607 798.139 96.1937 798.139C153.045 798.139 209.897 798.139 266.748 798.139C267.486 798.139 268.223 798.139 268.96 798.139C269.898 798.139 270.836 798.186 271.77 798.186H337.295C338.07 798.186 338.87 798.072 339.691 798.355C339.615 798.646 339.628 798.882 339.519 799C338.206 800.438 337.049 802.014 336.068 803.7C335.906 803.907 335.724 804.097 335.523 804.265Z" fill="#B75743"/>
<path d="M266.599 773.104C266.423 773.526 266.268 773.973 266.067 774.37C263.065 780.605 262.994 786.873 265.853 793.174C266.05 793.596 266.23 794.018 266.418 794.439L265.874 794.861C265.208 794.882 264.542 794.925 263.876 794.925H212.777C212.111 794.925 211.445 794.882 210.779 794.861L210.385 794.507C210.385 790.258 210.352 786.01 210.352 781.761C210.352 778.863 210.385 775.964 210.402 773.066L266.599 773.104Z" fill="#F9E0B2"/>
<path d="M196.756 794.882C196.359 794.908 195.956 794.954 195.559 794.954C190.269 794.954 184.978 794.954 179.688 794.954C178.178 794.944 176.686 794.614 175.31 793.986C173.934 793.359 172.703 792.447 171.699 791.311C170.694 790.175 169.937 788.838 169.477 787.389C169.017 785.939 168.865 784.409 169.029 782.896C169.665 777.103 174.093 773.247 179.542 773.125C185.234 772.998 190.926 773.087 196.618 773.079C196.643 773.749 196.694 774.424 196.694 775.095C196.694 780.951 196.694 786.807 196.694 792.663C196.689 793.406 196.736 794.144 196.756 794.882Z" fill="#F9E0B2"/>
<path d="M196.756 794.882C196.756 794.144 196.689 793.406 196.689 792.663C196.689 786.807 196.689 780.951 196.689 775.095C196.689 774.424 196.638 773.749 196.613 773.079V769.893C196.613 768.851 196.613 767.805 196.613 766.763C196.647 763.5 196.679 760.239 196.71 756.979C196.736 756.68 196.669 756.38 196.519 756.121C196.369 755.862 196.143 755.656 195.872 755.532L195.453 754.106C198.925 754.08 202.402 753.962 205.874 754.063C208.806 754.148 210.331 755.945 210.352 758.877C210.352 761.502 210.41 764.126 210.439 766.75C210.423 767.802 210.409 768.852 210.398 769.902V773.104C210.398 776.002 210.347 778.901 210.347 781.799C210.347 786.048 210.347 790.296 210.381 794.545C209.707 794.667 209.237 794.241 208.752 793.904C207.495 793.026 206.238 792.106 204.982 791.233C203.394 790.132 203.307 790.144 201.832 791.233C201.564 791.431 201.279 791.608 201.015 791.811C199.696 792.832 198.381 793.861 197.066 794.887H196.915L196.756 794.882Z" fill="#F47559"/>
<path d="M197.059 794.878C198.374 793.853 199.689 792.824 201.008 791.803C201.272 791.6 201.557 791.423 201.825 791.225C203.304 790.136 203.387 790.123 204.975 791.225C206.231 792.098 207.488 793.018 208.744 793.895C209.23 794.233 209.699 794.659 210.374 794.536L210.767 794.891L197.059 794.878Z" fill="#F9DFB1"/>
<path d="M265.871 794.891L266.416 794.469L266.608 794.954L265.871 794.891Z" fill="#F9DFB1"/>
<path d="M210.427 766.75C210.398 764.126 210.36 761.502 210.339 758.877C210.318 755.945 208.773 754.148 205.862 754.063C202.39 753.962 198.913 754.063 195.441 754.106C194.105 754.076 192.769 753.979 191.437 754.042C190.781 754.123 190.142 754.312 189.548 754.603C189.238 754.73 189.041 755.025 189.355 755.57C191.449 755.603 193.648 755.646 195.839 755.532C196.11 755.656 196.336 755.862 196.486 756.121C196.636 756.38 196.702 756.68 196.677 756.979C196.643 760.241 196.611 763.503 196.58 766.763L169.447 766.733C168.777 766.733 168.107 766.733 167.437 766.733C161.606 766.661 155.831 761.767 155.642 754.743C155.555 753.192 155.696 751.636 156.061 750.127C157.573 744.541 162.628 741.115 167.361 741.039C168.032 741.039 168.702 741.018 169.372 741.018H258.004C258.737 741.018 259.474 741.052 260.212 741.069C259.529 743.107 258.708 745.111 258.193 747.191C256.76 752.92 257.254 758.552 259.365 764.067C259.701 764.944 260.034 765.823 260.367 766.704C259.566 766.725 258.767 766.767 257.962 766.767L210.427 766.75Z" fill="#F9E0B2"/>
<path d="M78.8945 838.731C79.5228 838.684 79.9877 839.034 80.4485 839.385L78.8945 839.351V838.731Z" fill="#EE6F11"/>
<path d="M335.481 833.368C335.744 833.566 335.984 833.792 336.197 834.043C337.285 835.771 338.485 837.425 339.791 838.992C339.854 839.109 339.897 839.236 339.916 839.368C339.116 839.406 338.316 839.482 337.521 839.482C324.078 839.482 310.639 839.482 297.202 839.482C296.402 839.482 295.602 839.524 294.802 839.545C293.965 838.617 293.127 837.718 292.331 836.752C291.464 835.685 290.656 834.554 289.852 833.448C290.714 833.419 291.581 833.364 292.448 833.364L335.481 833.368Z" fill="#B75743"/>
<path d="M265.457 823.618H253.39L252.972 823.302C252.875 821.218 253.809 819.863 255.774 819.192L256.582 818.943H259.028C260.038 819.416 261.039 819.918 262.061 820.361C263.292 820.897 264.251 821.825 265.328 822.584C265.734 822.863 265.692 823.234 265.457 823.618Z" fill="#1C4655"/>
<path d="M346.664 839.406C346.936 839.085 347.209 839.047 347.502 839.406H346.664Z" fill="#B75743"/>
<path d="M210.391 773.104V769.91C211.191 769.91 211.995 769.91 212.799 769.91C228.12 769.91 243.442 769.91 258.763 769.91C259.63 769.91 260.497 769.834 261.364 769.792H268.569C268.904 770.315 268.569 770.518 268.397 770.767L266.6 773.104H210.391Z" fill="#86B0F1"/>
<path d="M261.36 769.762C260.493 769.805 259.626 769.88 258.759 769.88C243.438 769.88 228.117 769.88 212.795 769.88C211.991 769.88 211.187 769.88 210.387 769.88C210.387 768.829 210.401 767.778 210.429 766.729H257.964C258.768 766.729 259.568 766.687 260.368 766.666C260.657 767.117 260.946 767.564 261.231 768.02C261.394 768.277 261.491 768.571 261.513 768.875C261.536 769.179 261.484 769.484 261.36 769.762Z" fill="#38558A"/>
<path d="M252.973 823.31L253.392 823.627C253.132 823.677 252.973 823.597 252.973 823.31Z" fill="#375985"/>
<path d="M195.838 755.532C193.648 755.646 191.457 755.603 189.354 755.57C189.04 755.042 189.237 754.726 189.547 754.603C190.142 754.312 190.78 754.123 191.436 754.042C192.768 753.979 194.104 754.076 195.44 754.106C195.574 754.582 195.708 755.055 195.838 755.532Z" fill="#EE6F11"/>
<path d="M177.931 578.383H174.956C173.267 575.61 171.616 572.878 170 570.189C171.103 568.816 171.103 568.816 173.208 568.001L176.851 573.566C179.756 574.481 182.583 572.435 185.744 572.917C187.515 575.496 187.958 578.957 189.954 581.793L194.832 580.504C196.192 581.51 195.997 582.883 195.982 584.197L195.104 584.796L187.438 587.001C186.762 585.254 186.086 583.482 185.387 581.718C185.075 580.864 184.714 580.03 184.307 579.223C184.062 578.61 183.624 578.108 183.069 577.804C182.515 577.501 181.878 577.414 181.27 577.559C180.432 577.742 179.593 577.9 178.746 578.058L177.931 578.383Z" fill="#56C1A8"/>
<path d="M204.896 559.531C204.29 558.121 203.332 556.889 202.115 555.953C201.406 555.355 200.737 554.711 200.111 554.026C198.094 552.189 197.259 549.819 197.079 547.198C196.912 544.847 196.938 542.483 197.876 540.248C198.766 537.928 200.54 536.055 202.809 535.039C204.146 534.534 205.547 534.217 206.971 534.095C213.831 533.221 218.655 538.546 219.754 543.967C219.988 545.285 219.958 546.636 219.665 547.942C219.372 549.248 218.821 550.482 218.045 551.573C216.812 553.442 215.977 555.304 216.067 557.546L213.176 557.675C213.382 554.598 212.437 551.65 212.155 548.682C212.849 547.217 214.082 546.042 214.172 544.385C214.028 544.26 213.858 544.17 213.674 544.122C213.49 544.073 213.298 544.068 213.112 544.106C212.925 544.144 212.75 544.224 212.6 544.34C212.45 544.456 212.328 544.606 212.245 544.777C211.737 545.535 211.403 546.421 210.851 547.147C210.544 547.549 210.336 548.018 210.244 548.516C210.153 549.014 210.18 549.526 210.324 550.012C211.002 552.675 211.362 555.409 211.397 558.156L208.879 558.362C208.776 555.218 208.341 552.094 207.581 549.042C207.511 548.439 207.255 547.874 206.849 547.423C205.655 546.329 204.341 545.374 202.931 544.577C202.899 545.329 202.712 545.862 202.931 546.203C203.297 546.818 203.774 547.361 204.338 547.802C205.436 548.754 206.126 550.093 206.265 551.54C206.65 553.949 206.798 556.396 207.048 558.831L204.896 559.531Z" fill="#F7CD82"/>
<path d="M208.867 558.407L211.385 558.201C212.027 558.201 212.67 558.304 213.19 557.732L216.08 557.604C216.151 559.846 216.28 562.1 216.28 564.329C216.28 566.096 215.637 566.899 213.961 567.496C212.303 568.027 210.556 568.223 208.822 568.074C207.075 568.029 206.471 567.592 206.021 565.858C205.61 564.284 205.379 562.646 205.09 561.073C205 560.572 204.968 560.058 204.91 559.557L207.056 558.831L208.867 558.407Z" fill="#9EC3F9"/>
<path d="M208.866 558.407L207.055 558.831C206.804 556.396 206.656 553.949 206.271 551.54C206.133 550.093 205.443 548.754 204.344 547.802C203.78 547.361 203.303 546.818 202.937 546.203C202.745 545.875 202.937 545.329 202.937 544.577C204.347 545.374 205.662 546.329 206.855 547.423C207.261 547.874 207.517 548.439 207.588 549.042C208.344 552.109 208.772 555.249 208.866 558.407Z" fill="#F9DFB1"/>
<path d="M213.175 557.733C212.68 558.304 212.019 558.227 211.37 558.201C211.335 555.454 210.975 552.72 210.297 550.057C210.153 549.571 210.125 549.059 210.217 548.561C210.309 548.063 210.516 547.594 210.824 547.192C211.376 546.466 211.71 545.579 212.218 544.822C212.301 544.651 212.423 544.501 212.573 544.385C212.723 544.269 212.898 544.189 213.085 544.151C213.271 544.113 213.463 544.118 213.647 544.167C213.831 544.215 214.001 544.305 214.145 544.43C214.061 546.087 212.821 547.262 212.128 548.727C212.436 551.707 213.361 554.656 213.175 557.733Z" fill="#F9DFB1"/>
<defs>
<linearGradient id="paint0_linear_534_11847" x1="61.1615" y1="758.548" x2="8.61401" y2="859.333" gradientUnits="userSpaceOnUse">
<stop stop-color="#F38D0A"/>
<stop offset="0.9" stop-color="#ED6712"/>
</linearGradient>
<linearGradient id="paint1_linear_534_11847" x1="274.21" y1="788.588" x2="357.54" y2="682.818" gradientUnits="userSpaceOnUse">
<stop stop-color="#F0780F"/>
<stop offset="0.52" stop-color="#F4910A"/>
</linearGradient>
<linearGradient id="paint2_linear_534_11847" x1="332.052" y1="827.47" x2="377.727" y2="827.47" gradientUnits="userSpaceOnUse">
<stop offset="0.01" stop-color="#F39008"/>
<stop offset="1" stop-color="#EE6C10"/>
</linearGradient>
<linearGradient id="paint3_linear_534_11847" x1="224.966" y1="710.696" x2="227.372" y2="623.996" gradientUnits="userSpaceOnUse">
<stop stop-color="#EF7210"/>
<stop offset="1" stop-color="#ED6811"/>
</linearGradient>
</defs>
</svg>
