<svg width="310" height="139" viewBox="0 0 310 139" fill="none" xmlns="http://www.w3.org/2000/svg">
<path d="M257.369 119.462C255.128 118.928 253.233 118.694 251.511 117.638C251.053 115.393 252.229 113.709 253.506 112.185C254.466 111.2 255.514 110.305 256.637 109.512C257.508 108.907 258.333 108.237 259.104 107.507C261.099 105.269 260.494 103.097 257.621 102.161C256.724 101.874 255.76 101.821 254.836 101.62C254.259 101.519 253.729 101.235 253.325 100.809C252.92 100.383 252.662 99.8385 252.589 99.2545C252.455 98.6734 252.542 98.0634 252.832 97.5433C253.123 97.0232 253.595 96.6302 254.158 96.4411C254.935 96.1138 255.776 95.9654 256.618 96.0068C259.373 96.1574 262.055 96.9538 264.45 98.3323C267.827 100.411 268.612 103.384 267.594 107.173C267.178 108.851 266.154 110.311 264.722 111.27C264.011 111.737 263.392 112.366 262.688 112.8C260.194 114.364 258.2 116.328 257.369 119.462Z" fill="#F7CD82"/>
<path d="M252.303 129.353C249.949 129.586 247.941 127.508 248.001 124.969C248.061 123.854 248.507 122.795 249.26 121.976C250.014 121.156 251.029 120.626 252.13 120.478C254.437 120.291 256.385 122.416 256.531 124.909C256.684 127.508 254.537 129.64 252.303 129.353Z" fill="#F7CD82"/>
<path d="M288.387 85.521L286.711 90C284.621 89.5129 284.676 87.2937 282.946 86.2517L278 85.9201C278.127 85.2375 278.334 84.5721 278.617 83.9377C279.03 83.4485 279.484 82.9957 279.974 82.5846C280.281 82.2761 280.49 81.8848 280.575 81.459C280.661 81.0333 280.619 80.5919 280.456 80.1894C280.184 79.4852 279.957 78.7643 279.778 78.0311C279.724 77.4324 279.724 76.8301 279.778 76.2314L284.479 77.7064L288.801 75C289.92 76.7862 288.875 78.613 289.52 80.2165C290.429 81.4817 292.233 81.8809 293 83.5521C291.684 84.7902 289.866 84.5873 288.387 85.521Z" fill="#F2870F"/>
<path d="M17 70.3719C17.2852 69.5493 17.337 68.866 17.6935 68.468C19.6378 66.2789 20.098 63.9173 18.7499 61.2306C18.5626 60.6747 18.4407 60.098 18.3869 59.5125C19.035 59.4661 19.573 59.2405 19.9359 59.4263C22.846 60.9056 25.4773 60.8259 27.8429 58.2852C28.0957 58.0066 28.7503 58.1128 29.4762 58C29.4762 59.3267 29.6187 60.5142 29.5345 61.6485C29.4735 62.2836 29.5875 62.9234 29.8635 63.4956C30.1396 64.0677 30.5667 64.5493 31.0965 64.8858C31.602 65.2573 32.1529 65.5492 32.6195 65.9737C33.0862 66.3983 33.4361 66.8626 34 67.4796C33.6155 67.8545 33.2086 68.2045 32.7815 68.5277C32.5097 68.6874 32.2063 68.7827 31.8936 68.8063C29.3012 69.0916 27.8883 70.5709 27.5189 73.231C27.4216 73.8943 27.1948 74.7567 26.3588 74.9624C25.419 75.1945 25.2051 74.299 24.7644 73.7418C24.619 73.5921 24.4947 73.4224 24.395 73.2376C23.4422 71.1414 21.8544 70.3453 19.6313 70.5841C18.7496 70.599 17.8685 70.528 17 70.3719Z" fill="#9EC3F9"/>
<path d="M39 25V22.8143L43.6701 22.5572L46.1641 17.4818L52.1809 18.492C53.5901 16.9859 53.3905 14.8553 54.3195 13.0492C56.533 12.9635 58.6218 14.341 61.0098 13.9309C61.8266 12.7554 62.6559 11.5738 63.5786 10.2575L68.5292 10.6738C68.8223 10.1717 69.2027 9.51666 69.5893 8.83708C70.0756 8.03506 70.6243 7.82078 71.2852 8.14526C71.9461 8.46974 72.1767 9.03914 71.8587 9.89627C71.4535 10.986 70.9422 12.0391 70.4933 13.0737C68.6914 13.686 67.0079 12.9635 65.2933 13.1717C64.1273 13.6309 63.6846 14.8064 62.98 15.7186C62.6715 16.1635 62.2327 16.5059 61.7217 16.7005C61.2106 16.8951 60.6515 16.9327 60.1182 16.8083C58.8711 16.6124 57.674 15.8778 56.0903 16.3308L54.1325 21.4735L47.9535 20.3777C46.4758 21.6021 46.5008 23.6531 45.154 24.9694L39 25Z" fill="#F48F82"/>
</svg>
